<?xml version="1.0" encoding="utf-8" standalone="no"?>
<!DOCTYPE svg PUBLIC "-//W3C//DTD SVG 1.1//EN"
  "http://www.w3.org/Graphics/SVG/1.1/DTD/svg11.dtd">
<!-- Created with matplotlib (https://matplotlib.org/) -->
<svg height="345.6pt" version="1.1" viewBox="0 0 460.8 345.6" width="460.8pt" xmlns="http://www.w3.org/2000/svg" xmlns:xlink="http://www.w3.org/1999/xlink">
 <defs>
  <style type="text/css">
*{stroke-linecap:butt;stroke-linejoin:round;}
  </style>
 </defs>
 <g id="figure_1">
  <g id="patch_1">
   <path d="M 0 345.6 
L 460.8 345.6 
L 460.8 0 
L 0 0 
z
" style="fill:#ffffff;"/>
  </g>
  <g id="axes_1">
   <g id="patch_2">
    <path d="M 58.945313 277.733497 
L 446.5 277.733497 
L 446.5 25.918125 
L 58.945313 25.918125 
z
" style="fill:#ffffff;"/>
   </g>
   <g id="matplotlib.axis_1">
    <g id="xtick_1">
     <g id="line2d_1">
      <defs>
       <path d="M 0 0 
L 0 3.5 
" id="m646f435cc3" style="stroke:#000000;stroke-width:0.8;"/>
      </defs>
      <g>
       <use style="stroke:#000000;stroke-width:0.8;" x="62.807105" xlink:href="#m646f435cc3" y="277.733497"/>
      </g>
     </g>
     <g id="text_1">
      <!-- 2016-05 -->
      <defs>
       <path d="M 19.1875 8.296875 
L 53.609375 8.296875 
L 53.609375 0 
L 7.328125 0 
L 7.328125 8.296875 
Q 12.9375 14.109375 22.625 23.890625 
Q 32.328125 33.6875 34.8125 36.53125 
Q 39.546875 41.84375 41.421875 45.53125 
Q 43.3125 49.21875 43.3125 52.78125 
Q 43.3125 58.59375 39.234375 62.25 
Q 35.15625 65.921875 28.609375 65.921875 
Q 23.96875 65.921875 18.8125 64.3125 
Q 13.671875 62.703125 7.8125 59.421875 
L 7.8125 69.390625 
Q 13.765625 71.78125 18.9375 73 
Q 24.125 74.21875 28.421875 74.21875 
Q 39.75 74.21875 46.484375 68.546875 
Q 53.21875 62.890625 53.21875 53.421875 
Q 53.21875 48.921875 51.53125 44.890625 
Q 49.859375 40.875 45.40625 35.40625 
Q 44.1875 33.984375 37.640625 27.21875 
Q 31.109375 20.453125 19.1875 8.296875 
z
" id="DejaVuSans-50"/>
       <path d="M 31.78125 66.40625 
Q 24.171875 66.40625 20.328125 58.90625 
Q 16.5 51.421875 16.5 36.375 
Q 16.5 21.390625 20.328125 13.890625 
Q 24.171875 6.390625 31.78125 6.390625 
Q 39.453125 6.390625 43.28125 13.890625 
Q 47.125 21.390625 47.125 36.375 
Q 47.125 51.421875 43.28125 58.90625 
Q 39.453125 66.40625 31.78125 66.40625 
z
M 31.78125 74.21875 
Q 44.046875 74.21875 50.515625 64.515625 
Q 56.984375 54.828125 56.984375 36.375 
Q 56.984375 17.96875 50.515625 8.265625 
Q 44.046875 -1.421875 31.78125 -1.421875 
Q 19.53125 -1.421875 13.0625 8.265625 
Q 6.59375 17.96875 6.59375 36.375 
Q 6.59375 54.828125 13.0625 64.515625 
Q 19.53125 74.21875 31.78125 74.21875 
z
" id="DejaVuSans-48"/>
       <path d="M 12.40625 8.296875 
L 28.515625 8.296875 
L 28.515625 63.921875 
L 10.984375 60.40625 
L 10.984375 69.390625 
L 28.421875 72.90625 
L 38.28125 72.90625 
L 38.28125 8.296875 
L 54.390625 8.296875 
L 54.390625 0 
L 12.40625 0 
z
" id="DejaVuSans-49"/>
       <path d="M 33.015625 40.375 
Q 26.375 40.375 22.484375 35.828125 
Q 18.609375 31.296875 18.609375 23.390625 
Q 18.609375 15.53125 22.484375 10.953125 
Q 26.375 6.390625 33.015625 6.390625 
Q 39.65625 6.390625 43.53125 10.953125 
Q 47.40625 15.53125 47.40625 23.390625 
Q 47.40625 31.296875 43.53125 35.828125 
Q 39.65625 40.375 33.015625 40.375 
z
M 52.59375 71.296875 
L 52.59375 62.3125 
Q 48.875 64.0625 45.09375 64.984375 
Q 41.3125 65.921875 37.59375 65.921875 
Q 27.828125 65.921875 22.671875 59.328125 
Q 17.53125 52.734375 16.796875 39.40625 
Q 19.671875 43.65625 24.015625 45.921875 
Q 28.375 48.1875 33.59375 48.1875 
Q 44.578125 48.1875 50.953125 41.515625 
Q 57.328125 34.859375 57.328125 23.390625 
Q 57.328125 12.15625 50.6875 5.359375 
Q 44.046875 -1.421875 33.015625 -1.421875 
Q 20.359375 -1.421875 13.671875 8.265625 
Q 6.984375 17.96875 6.984375 36.375 
Q 6.984375 53.65625 15.1875 63.9375 
Q 23.390625 74.21875 37.203125 74.21875 
Q 40.921875 74.21875 44.703125 73.484375 
Q 48.484375 72.75 52.59375 71.296875 
z
" id="DejaVuSans-54"/>
       <path d="M 4.890625 31.390625 
L 31.203125 31.390625 
L 31.203125 23.390625 
L 4.890625 23.390625 
z
" id="DejaVuSans-45"/>
       <path d="M 10.796875 72.90625 
L 49.515625 72.90625 
L 49.515625 64.59375 
L 19.828125 64.59375 
L 19.828125 46.734375 
Q 21.96875 47.46875 24.109375 47.828125 
Q 26.265625 48.1875 28.421875 48.1875 
Q 40.625 48.1875 47.75 41.5 
Q 54.890625 34.8125 54.890625 23.390625 
Q 54.890625 11.625 47.5625 5.09375 
Q 40.234375 -1.421875 26.90625 -1.421875 
Q 22.3125 -1.421875 17.546875 -0.640625 
Q 12.796875 0.140625 7.71875 1.703125 
L 7.71875 11.625 
Q 12.109375 9.234375 16.796875 8.0625 
Q 21.484375 6.890625 26.703125 6.890625 
Q 35.15625 6.890625 40.078125 11.328125 
Q 45.015625 15.765625 45.015625 23.390625 
Q 45.015625 31 40.078125 35.4375 
Q 35.15625 39.890625 26.703125 39.890625 
Q 22.75 39.890625 18.8125 39.015625 
Q 14.890625 38.140625 10.796875 36.28125 
z
" id="DejaVuSans-53"/>
      </defs>
      <g transform="translate(49.985823 319.651314)rotate(-45)scale(0.1 -0.1)">
       <use xlink:href="#DejaVuSans-50"/>
       <use x="63.623047" xlink:href="#DejaVuSans-48"/>
       <use x="127.246094" xlink:href="#DejaVuSans-49"/>
       <use x="190.869141" xlink:href="#DejaVuSans-54"/>
       <use x="254.492188" xlink:href="#DejaVuSans-45"/>
       <use x="290.576172" xlink:href="#DejaVuSans-48"/>
       <use x="354.199219" xlink:href="#DejaVuSans-53"/>
      </g>
     </g>
    </g>
    <g id="xtick_2">
     <g id="line2d_2">
      <g>
       <use style="stroke:#000000;stroke-width:0.8;" x="106.186145" xlink:href="#m646f435cc3" y="277.733497"/>
      </g>
     </g>
     <g id="text_2">
      <!-- 2016-09 -->
      <defs>
       <path d="M 10.984375 1.515625 
L 10.984375 10.5 
Q 14.703125 8.734375 18.5 7.8125 
Q 22.3125 6.890625 25.984375 6.890625 
Q 35.75 6.890625 40.890625 13.453125 
Q 46.046875 20.015625 46.78125 33.40625 
Q 43.953125 29.203125 39.59375 26.953125 
Q 35.25 24.703125 29.984375 24.703125 
Q 19.046875 24.703125 12.671875 31.3125 
Q 6.296875 37.9375 6.296875 49.421875 
Q 6.296875 60.640625 12.9375 67.421875 
Q 19.578125 74.21875 30.609375 74.21875 
Q 43.265625 74.21875 49.921875 64.515625 
Q 56.59375 54.828125 56.59375 36.375 
Q 56.59375 19.140625 48.40625 8.859375 
Q 40.234375 -1.421875 26.421875 -1.421875 
Q 22.703125 -1.421875 18.890625 -0.6875 
Q 15.09375 0.046875 10.984375 1.515625 
z
M 30.609375 32.421875 
Q 37.25 32.421875 41.125 36.953125 
Q 45.015625 41.5 45.015625 49.421875 
Q 45.015625 57.28125 41.125 61.84375 
Q 37.25 66.40625 30.609375 66.40625 
Q 23.96875 66.40625 20.09375 61.84375 
Q 16.21875 57.28125 16.21875 49.421875 
Q 16.21875 41.5 20.09375 36.953125 
Q 23.96875 32.421875 30.609375 32.421875 
z
" id="DejaVuSans-57"/>
      </defs>
      <g transform="translate(93.364862 319.651314)rotate(-45)scale(0.1 -0.1)">
       <use xlink:href="#DejaVuSans-50"/>
       <use x="63.623047" xlink:href="#DejaVuSans-48"/>
       <use x="127.246094" xlink:href="#DejaVuSans-49"/>
       <use x="190.869141" xlink:href="#DejaVuSans-54"/>
       <use x="254.492188" xlink:href="#DejaVuSans-45"/>
       <use x="290.576172" xlink:href="#DejaVuSans-48"/>
       <use x="354.199219" xlink:href="#DejaVuSans-57"/>
      </g>
     </g>
    </g>
    <g id="xtick_3">
     <g id="line2d_3">
      <g>
       <use style="stroke:#000000;stroke-width:0.8;" x="149.212509" xlink:href="#m646f435cc3" y="277.733497"/>
      </g>
     </g>
     <g id="text_3">
      <!-- 2017-01 -->
      <defs>
       <path d="M 8.203125 72.90625 
L 55.078125 72.90625 
L 55.078125 68.703125 
L 28.609375 0 
L 18.3125 0 
L 43.21875 64.59375 
L 8.203125 64.59375 
z
" id="DejaVuSans-55"/>
      </defs>
      <g transform="translate(136.391227 319.651314)rotate(-45)scale(0.1 -0.1)">
       <use xlink:href="#DejaVuSans-50"/>
       <use x="63.623047" xlink:href="#DejaVuSans-48"/>
       <use x="127.246094" xlink:href="#DejaVuSans-49"/>
       <use x="190.869141" xlink:href="#DejaVuSans-55"/>
       <use x="254.492188" xlink:href="#DejaVuSans-45"/>
       <use x="290.576172" xlink:href="#DejaVuSans-48"/>
       <use x="354.199219" xlink:href="#DejaVuSans-49"/>
      </g>
     </g>
    </g>
    <g id="xtick_4">
     <g id="line2d_4">
      <g>
       <use style="stroke:#000000;stroke-width:0.8;" x="191.533523" xlink:href="#m646f435cc3" y="277.733497"/>
      </g>
     </g>
     <g id="text_4">
      <!-- 2017-05 -->
      <g transform="translate(178.712241 319.651314)rotate(-45)scale(0.1 -0.1)">
       <use xlink:href="#DejaVuSans-50"/>
       <use x="63.623047" xlink:href="#DejaVuSans-48"/>
       <use x="127.246094" xlink:href="#DejaVuSans-49"/>
       <use x="190.869141" xlink:href="#DejaVuSans-55"/>
       <use x="254.492188" xlink:href="#DejaVuSans-45"/>
       <use x="290.576172" xlink:href="#DejaVuSans-48"/>
       <use x="354.199219" xlink:href="#DejaVuSans-53"/>
      </g>
     </g>
    </g>
    <g id="xtick_5">
     <g id="line2d_5">
      <g>
       <use style="stroke:#000000;stroke-width:0.8;" x="234.912563" xlink:href="#m646f435cc3" y="277.733497"/>
      </g>
     </g>
     <g id="text_5">
      <!-- 2017-09 -->
      <g transform="translate(222.091281 319.651314)rotate(-45)scale(0.1 -0.1)">
       <use xlink:href="#DejaVuSans-50"/>
       <use x="63.623047" xlink:href="#DejaVuSans-48"/>
       <use x="127.246094" xlink:href="#DejaVuSans-49"/>
       <use x="190.869141" xlink:href="#DejaVuSans-55"/>
       <use x="254.492188" xlink:href="#DejaVuSans-45"/>
       <use x="290.576172" xlink:href="#DejaVuSans-48"/>
       <use x="354.199219" xlink:href="#DejaVuSans-57"/>
      </g>
     </g>
    </g>
    <g id="xtick_6">
     <g id="line2d_6">
      <g>
       <use style="stroke:#000000;stroke-width:0.8;" x="277.938927" xlink:href="#m646f435cc3" y="277.733497"/>
      </g>
     </g>
     <g id="text_6">
      <!-- 2018-01 -->
      <defs>
       <path d="M 31.78125 34.625 
Q 24.75 34.625 20.71875 30.859375 
Q 16.703125 27.09375 16.703125 20.515625 
Q 16.703125 13.921875 20.71875 10.15625 
Q 24.75 6.390625 31.78125 6.390625 
Q 38.8125 6.390625 42.859375 10.171875 
Q 46.921875 13.96875 46.921875 20.515625 
Q 46.921875 27.09375 42.890625 30.859375 
Q 38.875 34.625 31.78125 34.625 
z
M 21.921875 38.8125 
Q 15.578125 40.375 12.03125 44.71875 
Q 8.5 49.078125 8.5 55.328125 
Q 8.5 64.0625 14.71875 69.140625 
Q 20.953125 74.21875 31.78125 74.21875 
Q 42.671875 74.21875 48.875 69.140625 
Q 55.078125 64.0625 55.078125 55.328125 
Q 55.078125 49.078125 51.53125 44.71875 
Q 48 40.375 41.703125 38.8125 
Q 48.828125 37.15625 52.796875 32.3125 
Q 56.78125 27.484375 56.78125 20.515625 
Q 56.78125 9.90625 50.3125 4.234375 
Q 43.84375 -1.421875 31.78125 -1.421875 
Q 19.734375 -1.421875 13.25 4.234375 
Q 6.78125 9.90625 6.78125 20.515625 
Q 6.78125 27.484375 10.78125 32.3125 
Q 14.796875 37.15625 21.921875 38.8125 
z
M 18.3125 54.390625 
Q 18.3125 48.734375 21.84375 45.5625 
Q 25.390625 42.390625 31.78125 42.390625 
Q 38.140625 42.390625 41.71875 45.5625 
Q 45.3125 48.734375 45.3125 54.390625 
Q 45.3125 60.0625 41.71875 63.234375 
Q 38.140625 66.40625 31.78125 66.40625 
Q 25.390625 66.40625 21.84375 63.234375 
Q 18.3125 60.0625 18.3125 54.390625 
z
" id="DejaVuSans-56"/>
      </defs>
      <g transform="translate(265.117645 319.651314)rotate(-45)scale(0.1 -0.1)">
       <use xlink:href="#DejaVuSans-50"/>
       <use x="63.623047" xlink:href="#DejaVuSans-48"/>
       <use x="127.246094" xlink:href="#DejaVuSans-49"/>
       <use x="190.869141" xlink:href="#DejaVuSans-56"/>
       <use x="254.492188" xlink:href="#DejaVuSans-45"/>
       <use x="290.576172" xlink:href="#DejaVuSans-48"/>
       <use x="354.199219" xlink:href="#DejaVuSans-49"/>
      </g>
     </g>
    </g>
    <g id="xtick_7">
     <g id="line2d_7">
      <g>
       <use style="stroke:#000000;stroke-width:0.8;" x="320.259941" xlink:href="#m646f435cc3" y="277.733497"/>
      </g>
     </g>
     <g id="text_7">
      <!-- 2018-05 -->
      <g transform="translate(307.438659 319.651314)rotate(-45)scale(0.1 -0.1)">
       <use xlink:href="#DejaVuSans-50"/>
       <use x="63.623047" xlink:href="#DejaVuSans-48"/>
       <use x="127.246094" xlink:href="#DejaVuSans-49"/>
       <use x="190.869141" xlink:href="#DejaVuSans-56"/>
       <use x="254.492188" xlink:href="#DejaVuSans-45"/>
       <use x="290.576172" xlink:href="#DejaVuSans-48"/>
       <use x="354.199219" xlink:href="#DejaVuSans-53"/>
      </g>
     </g>
    </g>
    <g id="xtick_8">
     <g id="line2d_8">
      <g>
       <use style="stroke:#000000;stroke-width:0.8;" x="363.638981" xlink:href="#m646f435cc3" y="277.733497"/>
      </g>
     </g>
     <g id="text_8">
      <!-- 2018-09 -->
      <g transform="translate(350.817699 319.651314)rotate(-45)scale(0.1 -0.1)">
       <use xlink:href="#DejaVuSans-50"/>
       <use x="63.623047" xlink:href="#DejaVuSans-48"/>
       <use x="127.246094" xlink:href="#DejaVuSans-49"/>
       <use x="190.869141" xlink:href="#DejaVuSans-56"/>
       <use x="254.492188" xlink:href="#DejaVuSans-45"/>
       <use x="290.576172" xlink:href="#DejaVuSans-48"/>
       <use x="354.199219" xlink:href="#DejaVuSans-57"/>
      </g>
     </g>
    </g>
    <g id="xtick_9">
     <g id="line2d_9">
      <g>
       <use style="stroke:#000000;stroke-width:0.8;" x="406.665345" xlink:href="#m646f435cc3" y="277.733497"/>
      </g>
     </g>
     <g id="text_9">
      <!-- 2019-01 -->
      <g transform="translate(393.844063 319.651314)rotate(-45)scale(0.1 -0.1)">
       <use xlink:href="#DejaVuSans-50"/>
       <use x="63.623047" xlink:href="#DejaVuSans-48"/>
       <use x="127.246094" xlink:href="#DejaVuSans-49"/>
       <use x="190.869141" xlink:href="#DejaVuSans-57"/>
       <use x="254.492188" xlink:href="#DejaVuSans-45"/>
       <use x="290.576172" xlink:href="#DejaVuSans-48"/>
       <use x="354.199219" xlink:href="#DejaVuSans-49"/>
      </g>
     </g>
    </g>
    <g id="text_10">
     <!-- Days -->
     <defs>
      <path d="M 19.671875 64.796875 
L 19.671875 8.109375 
L 31.59375 8.109375 
Q 46.6875 8.109375 53.6875 14.9375 
Q 60.6875 21.78125 60.6875 36.53125 
Q 60.6875 51.171875 53.6875 57.984375 
Q 46.6875 64.796875 31.59375 64.796875 
z
M 9.8125 72.90625 
L 30.078125 72.90625 
Q 51.265625 72.90625 61.171875 64.09375 
Q 71.09375 55.28125 71.09375 36.53125 
Q 71.09375 17.671875 61.125 8.828125 
Q 51.171875 0 30.078125 0 
L 9.8125 0 
z
" id="DejaVuSans-68"/>
      <path d="M 34.28125 27.484375 
Q 23.390625 27.484375 19.1875 25 
Q 14.984375 22.515625 14.984375 16.5 
Q 14.984375 11.71875 18.140625 8.90625 
Q 21.296875 6.109375 26.703125 6.109375 
Q 34.1875 6.109375 38.703125 11.40625 
Q 43.21875 16.703125 43.21875 25.484375 
L 43.21875 27.484375 
z
M 52.203125 31.203125 
L 52.203125 0 
L 43.21875 0 
L 43.21875 8.296875 
Q 40.140625 3.328125 35.546875 0.953125 
Q 30.953125 -1.421875 24.3125 -1.421875 
Q 15.921875 -1.421875 10.953125 3.296875 
Q 6 8.015625 6 15.921875 
Q 6 25.140625 12.171875 29.828125 
Q 18.359375 34.515625 30.609375 34.515625 
L 43.21875 34.515625 
L 43.21875 35.40625 
Q 43.21875 41.609375 39.140625 45 
Q 35.0625 48.390625 27.6875 48.390625 
Q 23 48.390625 18.546875 47.265625 
Q 14.109375 46.140625 10.015625 43.890625 
L 10.015625 52.203125 
Q 14.9375 54.109375 19.578125 55.046875 
Q 24.21875 56 28.609375 56 
Q 40.484375 56 46.34375 49.84375 
Q 52.203125 43.703125 52.203125 31.203125 
z
" id="DejaVuSans-97"/>
      <path d="M 32.171875 -5.078125 
Q 28.375 -14.84375 24.75 -17.8125 
Q 21.140625 -20.796875 15.09375 -20.796875 
L 7.90625 -20.796875 
L 7.90625 -13.28125 
L 13.1875 -13.28125 
Q 16.890625 -13.28125 18.9375 -11.515625 
Q 21 -9.765625 23.484375 -3.21875 
L 25.09375 0.875 
L 2.984375 54.6875 
L 12.5 54.6875 
L 29.59375 11.921875 
L 46.6875 54.6875 
L 56.203125 54.6875 
z
" id="DejaVuSans-121"/>
      <path d="M 44.28125 53.078125 
L 44.28125 44.578125 
Q 40.484375 46.53125 36.375 47.5 
Q 32.28125 48.484375 27.875 48.484375 
Q 21.1875 48.484375 17.84375 46.4375 
Q 14.5 44.390625 14.5 40.28125 
Q 14.5 37.15625 16.890625 35.375 
Q 19.28125 33.59375 26.515625 31.984375 
L 29.59375 31.296875 
Q 39.15625 29.25 43.1875 25.515625 
Q 47.21875 21.78125 47.21875 15.09375 
Q 47.21875 7.46875 41.1875 3.015625 
Q 35.15625 -1.421875 24.609375 -1.421875 
Q 20.21875 -1.421875 15.453125 -0.5625 
Q 10.6875 0.296875 5.421875 2 
L 5.421875 11.28125 
Q 10.40625 8.6875 15.234375 7.390625 
Q 20.0625 6.109375 24.8125 6.109375 
Q 31.15625 6.109375 34.5625 8.28125 
Q 37.984375 10.453125 37.984375 14.40625 
Q 37.984375 18.0625 35.515625 20.015625 
Q 33.0625 21.96875 24.703125 23.78125 
L 21.578125 24.515625 
Q 13.234375 26.265625 9.515625 29.90625 
Q 5.8125 33.546875 5.8125 39.890625 
Q 5.8125 47.609375 11.28125 51.796875 
Q 16.75 56 26.8125 56 
Q 31.78125 56 36.171875 55.265625 
Q 40.578125 54.546875 44.28125 53.078125 
z
" id="DejaVuSans-115"/>
     </defs>
     <g transform="translate(240.244531 332.720312)scale(0.1 -0.1)">
      <use xlink:href="#DejaVuSans-68"/>
      <use x="77.001953" xlink:href="#DejaVuSans-97"/>
      <use x="138.28125" xlink:href="#DejaVuSans-121"/>
      <use x="197.460938" xlink:href="#DejaVuSans-115"/>
     </g>
    </g>
   </g>
   <g id="matplotlib.axis_2">
    <g id="ytick_1">
     <g id="line2d_10">
      <defs>
       <path d="M 0 0 
L -3.5 0 
" id="m248b1fe4bf" style="stroke:#000000;stroke-width:0.8;"/>
      </defs>
      <g>
       <use style="stroke:#000000;stroke-width:0.8;" x="58.945313" xlink:href="#m248b1fe4bf" y="258.270982"/>
      </g>
     </g>
     <g id="text_11">
      <!-- −100 -->
      <defs>
       <path d="M 10.59375 35.5 
L 73.1875 35.5 
L 73.1875 27.203125 
L 10.59375 27.203125 
z
" id="DejaVuSans-8722"/>
      </defs>
      <g transform="translate(24.478125 262.0702)scale(0.1 -0.1)">
       <use xlink:href="#DejaVuSans-8722"/>
       <use x="83.789062" xlink:href="#DejaVuSans-49"/>
       <use x="147.412109" xlink:href="#DejaVuSans-48"/>
       <use x="211.035156" xlink:href="#DejaVuSans-48"/>
      </g>
     </g>
    </g>
    <g id="ytick_2">
     <g id="line2d_11">
      <g>
       <use style="stroke:#000000;stroke-width:0.8;" x="58.945313" xlink:href="#m248b1fe4bf" y="211.605361"/>
      </g>
     </g>
     <g id="text_12">
      <!-- −50 -->
      <g transform="translate(30.840625 215.40458)scale(0.1 -0.1)">
       <use xlink:href="#DejaVuSans-8722"/>
       <use x="83.789062" xlink:href="#DejaVuSans-53"/>
       <use x="147.412109" xlink:href="#DejaVuSans-48"/>
      </g>
     </g>
    </g>
    <g id="ytick_3">
     <g id="line2d_12">
      <g>
       <use style="stroke:#000000;stroke-width:0.8;" x="58.945313" xlink:href="#m248b1fe4bf" y="164.939741"/>
      </g>
     </g>
     <g id="text_13">
      <!-- 0 -->
      <g transform="translate(45.582813 168.73896)scale(0.1 -0.1)">
       <use xlink:href="#DejaVuSans-48"/>
      </g>
     </g>
    </g>
    <g id="ytick_4">
     <g id="line2d_13">
      <g>
       <use style="stroke:#000000;stroke-width:0.8;" x="58.945313" xlink:href="#m248b1fe4bf" y="118.274121"/>
      </g>
     </g>
     <g id="text_14">
      <!-- 50 -->
      <g transform="translate(39.220313 122.073339)scale(0.1 -0.1)">
       <use xlink:href="#DejaVuSans-53"/>
       <use x="63.623047" xlink:href="#DejaVuSans-48"/>
      </g>
     </g>
    </g>
    <g id="ytick_5">
     <g id="line2d_14">
      <g>
       <use style="stroke:#000000;stroke-width:0.8;" x="58.945313" xlink:href="#m248b1fe4bf" y="71.6085"/>
      </g>
     </g>
     <g id="text_15">
      <!-- 100 -->
      <g transform="translate(32.857813 75.407719)scale(0.1 -0.1)">
       <use xlink:href="#DejaVuSans-49"/>
       <use x="63.623047" xlink:href="#DejaVuSans-48"/>
       <use x="127.246094" xlink:href="#DejaVuSans-48"/>
      </g>
     </g>
    </g>
    <g id="text_16">
     <!-- MACD and Signal units -->
     <defs>
      <path d="M 9.8125 72.90625 
L 24.515625 72.90625 
L 43.109375 23.296875 
L 61.8125 72.90625 
L 76.515625 72.90625 
L 76.515625 0 
L 66.890625 0 
L 66.890625 64.015625 
L 48.09375 14.015625 
L 38.1875 14.015625 
L 19.390625 64.015625 
L 19.390625 0 
L 9.8125 0 
z
" id="DejaVuSans-77"/>
      <path d="M 34.1875 63.1875 
L 20.796875 26.90625 
L 47.609375 26.90625 
z
M 28.609375 72.90625 
L 39.796875 72.90625 
L 67.578125 0 
L 57.328125 0 
L 50.6875 18.703125 
L 17.828125 18.703125 
L 11.1875 0 
L 0.78125 0 
z
" id="DejaVuSans-65"/>
      <path d="M 64.40625 67.28125 
L 64.40625 56.890625 
Q 59.421875 61.53125 53.78125 63.8125 
Q 48.140625 66.109375 41.796875 66.109375 
Q 29.296875 66.109375 22.65625 58.46875 
Q 16.015625 50.828125 16.015625 36.375 
Q 16.015625 21.96875 22.65625 14.328125 
Q 29.296875 6.6875 41.796875 6.6875 
Q 48.140625 6.6875 53.78125 8.984375 
Q 59.421875 11.28125 64.40625 15.921875 
L 64.40625 5.609375 
Q 59.234375 2.09375 53.4375 0.328125 
Q 47.65625 -1.421875 41.21875 -1.421875 
Q 24.65625 -1.421875 15.125 8.703125 
Q 5.609375 18.84375 5.609375 36.375 
Q 5.609375 53.953125 15.125 64.078125 
Q 24.65625 74.21875 41.21875 74.21875 
Q 47.75 74.21875 53.53125 72.484375 
Q 59.328125 70.75 64.40625 67.28125 
z
" id="DejaVuSans-67"/>
      <path id="DejaVuSans-32"/>
      <path d="M 54.890625 33.015625 
L 54.890625 0 
L 45.90625 0 
L 45.90625 32.71875 
Q 45.90625 40.484375 42.875 44.328125 
Q 39.84375 48.1875 33.796875 48.1875 
Q 26.515625 48.1875 22.3125 43.546875 
Q 18.109375 38.921875 18.109375 30.90625 
L 18.109375 0 
L 9.078125 0 
L 9.078125 54.6875 
L 18.109375 54.6875 
L 18.109375 46.1875 
Q 21.34375 51.125 25.703125 53.5625 
Q 30.078125 56 35.796875 56 
Q 45.21875 56 50.046875 50.171875 
Q 54.890625 44.34375 54.890625 33.015625 
z
" id="DejaVuSans-110"/>
      <path d="M 45.40625 46.390625 
L 45.40625 75.984375 
L 54.390625 75.984375 
L 54.390625 0 
L 45.40625 0 
L 45.40625 8.203125 
Q 42.578125 3.328125 38.25 0.953125 
Q 33.9375 -1.421875 27.875 -1.421875 
Q 17.96875 -1.421875 11.734375 6.484375 
Q 5.515625 14.40625 5.515625 27.296875 
Q 5.515625 40.1875 11.734375 48.09375 
Q 17.96875 56 27.875 56 
Q 33.9375 56 38.25 53.625 
Q 42.578125 51.265625 45.40625 46.390625 
z
M 14.796875 27.296875 
Q 14.796875 17.390625 18.875 11.75 
Q 22.953125 6.109375 30.078125 6.109375 
Q 37.203125 6.109375 41.296875 11.75 
Q 45.40625 17.390625 45.40625 27.296875 
Q 45.40625 37.203125 41.296875 42.84375 
Q 37.203125 48.484375 30.078125 48.484375 
Q 22.953125 48.484375 18.875 42.84375 
Q 14.796875 37.203125 14.796875 27.296875 
z
" id="DejaVuSans-100"/>
      <path d="M 53.515625 70.515625 
L 53.515625 60.890625 
Q 47.90625 63.578125 42.921875 64.890625 
Q 37.9375 66.21875 33.296875 66.21875 
Q 25.25 66.21875 20.875 63.09375 
Q 16.5 59.96875 16.5 54.203125 
Q 16.5 49.359375 19.40625 46.890625 
Q 22.3125 44.4375 30.421875 42.921875 
L 36.375 41.703125 
Q 47.40625 39.59375 52.65625 34.296875 
Q 57.90625 29 57.90625 20.125 
Q 57.90625 9.515625 50.796875 4.046875 
Q 43.703125 -1.421875 29.984375 -1.421875 
Q 24.8125 -1.421875 18.96875 -0.25 
Q 13.140625 0.921875 6.890625 3.21875 
L 6.890625 13.375 
Q 12.890625 10.015625 18.65625 8.296875 
Q 24.421875 6.59375 29.984375 6.59375 
Q 38.421875 6.59375 43.015625 9.90625 
Q 47.609375 13.234375 47.609375 19.390625 
Q 47.609375 24.75 44.3125 27.78125 
Q 41.015625 30.8125 33.5 32.328125 
L 27.484375 33.5 
Q 16.453125 35.6875 11.515625 40.375 
Q 6.59375 45.0625 6.59375 53.421875 
Q 6.59375 63.09375 13.40625 68.65625 
Q 20.21875 74.21875 32.171875 74.21875 
Q 37.3125 74.21875 42.625 73.28125 
Q 47.953125 72.359375 53.515625 70.515625 
z
" id="DejaVuSans-83"/>
      <path d="M 9.421875 54.6875 
L 18.40625 54.6875 
L 18.40625 0 
L 9.421875 0 
z
M 9.421875 75.984375 
L 18.40625 75.984375 
L 18.40625 64.59375 
L 9.421875 64.59375 
z
" id="DejaVuSans-105"/>
      <path d="M 45.40625 27.984375 
Q 45.40625 37.75 41.375 43.109375 
Q 37.359375 48.484375 30.078125 48.484375 
Q 22.859375 48.484375 18.828125 43.109375 
Q 14.796875 37.75 14.796875 27.984375 
Q 14.796875 18.265625 18.828125 12.890625 
Q 22.859375 7.515625 30.078125 7.515625 
Q 37.359375 7.515625 41.375 12.890625 
Q 45.40625 18.265625 45.40625 27.984375 
z
M 54.390625 6.78125 
Q 54.390625 -7.171875 48.1875 -13.984375 
Q 42 -20.796875 29.203125 -20.796875 
Q 24.46875 -20.796875 20.265625 -20.09375 
Q 16.0625 -19.390625 12.109375 -17.921875 
L 12.109375 -9.1875 
Q 16.0625 -11.328125 19.921875 -12.34375 
Q 23.78125 -13.375 27.78125 -13.375 
Q 36.625 -13.375 41.015625 -8.765625 
Q 45.40625 -4.15625 45.40625 5.171875 
L 45.40625 9.625 
Q 42.625 4.78125 38.28125 2.390625 
Q 33.9375 0 27.875 0 
Q 17.828125 0 11.671875 7.65625 
Q 5.515625 15.328125 5.515625 27.984375 
Q 5.515625 40.671875 11.671875 48.328125 
Q 17.828125 56 27.875 56 
Q 33.9375 56 38.28125 53.609375 
Q 42.625 51.21875 45.40625 46.390625 
L 45.40625 54.6875 
L 54.390625 54.6875 
z
" id="DejaVuSans-103"/>
      <path d="M 9.421875 75.984375 
L 18.40625 75.984375 
L 18.40625 0 
L 9.421875 0 
z
" id="DejaVuSans-108"/>
      <path d="M 8.5 21.578125 
L 8.5 54.6875 
L 17.484375 54.6875 
L 17.484375 21.921875 
Q 17.484375 14.15625 20.5 10.265625 
Q 23.53125 6.390625 29.59375 6.390625 
Q 36.859375 6.390625 41.078125 11.03125 
Q 45.3125 15.671875 45.3125 23.6875 
L 45.3125 54.6875 
L 54.296875 54.6875 
L 54.296875 0 
L 45.3125 0 
L 45.3125 8.40625 
Q 42.046875 3.421875 37.71875 1 
Q 33.40625 -1.421875 27.6875 -1.421875 
Q 18.265625 -1.421875 13.375 4.4375 
Q 8.5 10.296875 8.5 21.578125 
z
M 31.109375 56 
z
" id="DejaVuSans-117"/>
      <path d="M 18.3125 70.21875 
L 18.3125 54.6875 
L 36.8125 54.6875 
L 36.8125 47.703125 
L 18.3125 47.703125 
L 18.3125 18.015625 
Q 18.3125 11.328125 20.140625 9.421875 
Q 21.96875 7.515625 27.59375 7.515625 
L 36.8125 7.515625 
L 36.8125 0 
L 27.59375 0 
Q 17.1875 0 13.234375 3.875 
Q 9.28125 7.765625 9.28125 18.015625 
L 9.28125 47.703125 
L 2.6875 47.703125 
L 2.6875 54.6875 
L 9.28125 54.6875 
L 9.28125 70.21875 
z
" id="DejaVuSans-116"/>
     </defs>
     <g transform="translate(18.398438 208.725811)rotate(-90)scale(0.1 -0.1)">
      <use xlink:href="#DejaVuSans-77"/>
      <use x="86.279297" xlink:href="#DejaVuSans-65"/>
      <use x="154.671875" xlink:href="#DejaVuSans-67"/>
      <use x="224.496094" xlink:href="#DejaVuSans-68"/>
      <use x="301.498047" xlink:href="#DejaVuSans-32"/>
      <use x="333.285156" xlink:href="#DejaVuSans-97"/>
      <use x="394.564453" xlink:href="#DejaVuSans-110"/>
      <use x="457.943359" xlink:href="#DejaVuSans-100"/>
      <use x="521.419922" xlink:href="#DejaVuSans-32"/>
      <use x="553.207031" xlink:href="#DejaVuSans-83"/>
      <use x="616.683594" xlink:href="#DejaVuSans-105"/>
      <use x="644.466797" xlink:href="#DejaVuSans-103"/>
      <use x="707.943359" xlink:href="#DejaVuSans-110"/>
      <use x="771.322266" xlink:href="#DejaVuSans-97"/>
      <use x="832.601562" xlink:href="#DejaVuSans-108"/>
      <use x="860.384766" xlink:href="#DejaVuSans-32"/>
      <use x="892.171875" xlink:href="#DejaVuSans-117"/>
      <use x="955.550781" xlink:href="#DejaVuSans-110"/>
      <use x="1018.929688" xlink:href="#DejaVuSans-105"/>
      <use x="1046.712891" xlink:href="#DejaVuSans-116"/>
      <use x="1085.921875" xlink:href="#DejaVuSans-115"/>
     </g>
    </g>
   </g>
   <g id="line2d_15">
    <path clip-path="url(#pd26b5219b4)" d="M 76.561435 164.939741 
L 77.972135 164.832844 
L 78.677485 164.65518 
L 79.382836 164.753987 
L 79.735511 164.586377 
L 80.440861 164.679977 
L 81.146211 164.934677 
L 81.498886 165.238479 
L 81.851561 165.821925 
L 82.204237 165.964691 
L 83.262262 165.513139 
L 85.730988 164.579118 
L 86.436338 164.567232 
L 86.789013 164.604069 
L 87.141688 164.827664 
L 89.610414 164.959993 
L 92.07914 164.941604 
L 92.78449 164.992805 
L 95.253216 164.88769 
L 96.663916 165.078645 
L 104.775444 164.810816 
L 105.833469 164.944654 
L 110.770921 165.043875 
L 112.534297 165.039563 
L 115.708373 164.897473 
L 120.293149 164.970725 
L 121.351175 164.951739 
L 122.4092 164.895268 
L 124.525251 164.955387 
L 125.583276 164.917292 
L 128.757352 164.869176 
L 129.462702 165.044974 
L 132.284103 165.018853 
L 133.342129 164.890225 
L 136.16353 164.943113 
L 138.984931 164.927291 
L 140.042956 164.905166 
L 140.395631 165.087341 
L 140.748306 165.141858 
L 142.159007 164.952754 
L 144.275057 164.917981 
L 144.980408 164.867872 
L 146.391108 164.899693 
L 146.743783 164.540431 
L 147.096458 164.443032 
L 148.507159 164.666533 
L 148.859834 164.684396 
L 149.565184 164.965995 
L 150.975885 165.013322 
L 151.681235 165.432453 
L 152.386585 165.365782 
L 153.091935 164.890867 
L 153.44461 165.094466 
L 154.502636 165.125469 
L 157.676712 164.907146 
L 158.734737 164.907924 
L 160.498113 164.763324 
L 163.319514 164.976527 
L 164.024864 165.09353 
L 168.962316 164.85509 
L 170.725691 164.965188 
L 171.431041 164.810325 
L 174.252442 165.078625 
L 174.605118 165.038701 
L 174.957793 164.786202 
L 176.368493 164.864816 
L 177.073843 165.046288 
L 180.600595 164.809113 
L 180.95327 163.210611 
L 181.305945 163.027124 
L 182.011295 162.892704 
L 182.716645 163.149081 
L 183.06932 161.990907 
L 183.421996 162.715591 
L 183.774671 163.801485 
L 184.127346 164.243189 
L 184.480021 165.33459 
L 185.185371 166.006886 
L 185.538046 165.311914 
L 185.890721 165.332269 
L 186.243396 165.092886 
L 186.948747 165.121935 
L 187.654097 165.549953 
L 188.006772 166.053107 
L 188.359447 165.745151 
L 188.712122 165.012754 
L 189.417473 162.598717 
L 190.122823 162.922093 
L 190.828173 164.120866 
L 191.180848 164.850605 
L 191.533523 164.66177 
L 191.886198 164.842306 
L 192.238873 164.861638 
L 192.591549 165.114209 
L 192.944224 162.723126 
L 193.296899 161.214609 
L 194.354924 159.344854 
L 194.707599 160.938725 
L 195.060274 159.94731 
L 195.41295 161.287288 
L 195.765625 163.334936 
L 196.1183 166.30594 
L 196.82365 167.767992 
L 197.529 171.378712 
L 197.881675 170.523797 
L 198.23435 168.239964 
L 198.939701 167.307093 
L 199.292376 167.618397 
L 199.645051 168.081508 
L 200.350401 161.859731 
L 201.408427 167.960768 
L 201.761102 167.974994 
L 202.113777 166.65963 
L 202.466452 166.475427 
L 202.819127 165.690276 
L 203.171802 164.280059 
L 203.524477 163.392803 
L 203.877152 163.337098 
L 204.229827 163.019779 
L 204.582503 161.895566 
L 204.935178 161.713914 
L 205.287853 162.732005 
L 205.640528 162.700767 
L 205.993203 163.227266 
L 206.345878 164.13931 
L 206.698553 162.724641 
L 207.051228 164.892647 
L 207.403904 165.028242 
L 207.756579 166.001219 
L 208.109254 166.302145 
L 208.461929 164.247009 
L 208.814604 157.987038 
L 209.167279 157.283032 
L 209.519954 156.064229 
L 209.872629 157.517938 
L 210.225304 160.18373 
L 210.57798 161.256696 
L 210.930655 162.867023 
L 211.28333 166.197985 
L 211.98868 170.632961 
L 212.341355 170.556272 
L 212.69403 169.525018 
L 213.046705 169.811066 
L 213.399381 169.701451 
L 213.752056 169.919152 
L 214.104731 167.851002 
L 214.457406 164.264678 
L 214.810081 158.51587 
L 215.162756 157.591209 
L 215.515431 158.867436 
L 215.868106 162.539019 
L 216.220782 162.138102 
L 216.573457 163.770835 
L 216.926132 166.667765 
L 217.278807 168.491192 
L 217.631482 167.505182 
L 217.984157 167.742865 
L 218.336832 168.97721 
L 218.689507 171.161746 
L 219.042182 170.301143 
L 219.747533 166.632782 
L 220.100208 167.07835 
L 220.452883 164.695982 
L 221.158233 161.788539 
L 221.863583 162.8225 
L 222.216259 164.614096 
L 223.274284 166.430442 
L 223.626959 166.3466 
L 223.979634 166.586642 
L 224.684984 164.521535 
L 225.037659 164.693759 
L 225.74301 163.959036 
L 226.095685 162.357266 
L 226.44836 162.218175 
L 226.801035 162.258282 
L 227.15371 161.280012 
L 227.506385 161.977478 
L 227.85906 163.216753 
L 228.211736 163.849275 
L 228.917086 165.825065 
L 229.269761 166.128509 
L 229.622436 167.455191 
L 230.327786 167.343006 
L 230.680461 165.773309 
L 231.033136 165.709479 
L 231.385812 165.276509 
L 231.738487 163.978011 
L 232.091162 164.220151 
L 232.443837 161.323325 
L 232.796512 161.985487 
L 233.501862 162.253299 
L 233.854537 158.625382 
L 234.207213 157.245272 
L 234.559888 157.078301 
L 234.912563 157.459073 
L 235.265238 155.460905 
L 235.617913 149.551784 
L 236.323263 156.971673 
L 236.675938 165.652822 
L 237.028613 167.142723 
L 237.381289 164.748939 
L 237.733964 165.098893 
L 238.086639 169.629624 
L 238.791989 175.287683 
L 239.144664 175.117566 
L 239.497339 175.355783 
L 239.850014 176.588357 
L 240.20269 183.302858 
L 241.260715 174.682168 
L 241.61339 169.444279 
L 242.31874 166.339859 
L 242.671415 166.887304 
L 243.02409 165.799122 
L 243.376766 163.767427 
L 243.729441 163.225139 
L 244.082116 160.317775 
L 244.434791 159.056969 
L 244.787466 156.803007 
L 245.140141 157.379717 
L 245.492816 159.260254 
L 245.845491 159.435447 
L 246.198167 160.244075 
L 247.256192 164.997777 
L 247.608867 165.573907 
L 247.961542 165.662544 
L 248.314217 165.578856 
L 248.666892 165.232922 
L 249.019568 166.579146 
L 249.372243 166.664569 
L 249.724918 166.353209 
L 250.077593 161.605703 
L 250.430268 160.437217 
L 250.782943 158.315073 
L 251.135618 157.369671 
L 251.488293 158.394024 
L 251.840968 162.344845 
L 252.546319 165.600151 
L 252.898994 166.274562 
L 253.957019 170.245655 
L 254.309694 169.854012 
L 255.015045 168.493383 
L 255.720395 167.761526 
L 256.07307 165.821332 
L 256.425745 165.015136 
L 256.77842 164.829479 
L 257.131095 165.86706 
L 257.48377 165.53383 
L 257.836445 164.336654 
L 258.189121 164.295743 
L 258.894471 164.436007 
L 259.247146 161.677475 
L 259.599821 159.810372 
L 259.952496 158.72173 
L 260.305171 161.667254 
L 260.657846 161.978718 
L 261.010522 164.116057 
L 262.068547 163.699156 
L 262.421222 160.452584 
L 262.773897 161.379213 
L 263.126572 161.39162 
L 263.479247 160.981311 
L 263.831922 161.366973 
L 264.184598 163.266592 
L 264.889948 164.234429 
L 265.242623 162.290731 
L 265.595298 157.376349 
L 265.947973 156.628734 
L 266.653323 156.638391 
L 267.005999 162.812537 
L 267.358674 165.331758 
L 267.711349 161.520568 
L 268.064024 160.577857 
L 268.416699 160.755919 
L 268.769374 160.509279 
L 269.827399 170.332553 
L 270.180075 159.434064 
L 270.53275 143.068426 
L 270.885425 141.143911 
L 271.2381 114.002657 
L 271.590775 71.902663 
L 271.94345 64.702438 
L 272.296125 84.148246 
L 272.6488 96.688701 
L 273.001476 114.352428 
L 273.354151 123.952102 
L 273.706826 119.725889 
L 274.059501 137.13139 
L 274.412176 171.155442 
L 274.764851 190.186827 
L 275.117526 228.438383 
L 275.470201 234.000841 
L 275.822876 236.503044 
L 276.175552 233.323506 
L 276.528227 217.662626 
L 276.880902 212.641707 
L 277.233577 213.410182 
L 277.586252 211.006652 
L 277.938927 219.386567 
L 278.644277 194.871458 
L 278.996953 172.467244 
L 279.349628 162.116467 
L 279.702303 158.997388 
L 280.054978 154.301855 
L 280.407653 135.05937 
L 280.760328 132.209194 
L 281.465678 151.857216 
L 281.818354 155.22206 
L 282.171029 168.360124 
L 282.523704 169.741712 
L 282.876379 160.529733 
L 283.229054 167.894918 
L 283.581729 172.661572 
L 283.934404 196.200256 
L 284.287079 200.737687 
L 284.639754 197.243172 
L 284.99243 189.119555 
L 285.345105 173.47856 
L 285.69778 173.051985 
L 286.050455 175.493967 
L 286.40313 173.825435 
L 287.10848 166.157763 
L 287.461155 164.042821 
L 287.813831 158.854505 
L 288.166506 148.527217 
L 288.519181 151.377023 
L 288.871856 159.819992 
L 289.224531 164.617265 
L 289.929881 183.198988 
L 290.282556 170.119092 
L 290.635231 169.674593 
L 290.987907 178.017765 
L 291.340582 171.444011 
L 291.693257 168.505842 
L 292.398607 149.169424 
L 292.751282 149.560534 
L 293.103957 152.906643 
L 293.456632 148.636588 
L 293.809308 149.193478 
L 294.161983 126.746602 
L 294.514658 117.927866 
L 294.867333 116.466094 
L 295.220008 121.77461 
L 295.572683 137.300067 
L 295.925358 145.386101 
L 296.278033 149.50662 
L 296.983384 181.370446 
L 297.336059 182.714213 
L 297.688734 183.520794 
L 298.041409 178.071223 
L 298.394084 176.071976 
L 298.746759 176.797078 
L 299.099434 181.911552 
L 299.452109 178.720677 
L 299.804785 174.259761 
L 300.15746 172.955197 
L 300.510135 170.032856 
L 300.86281 169.596143 
L 301.920835 186.584029 
L 302.27351 181.396301 
L 302.626185 180.905543 
L 302.978861 172.767394 
L 303.331536 172.290057 
L 303.684211 171.40371 
L 304.036886 176.189742 
L 304.742236 171.280621 
L 305.094911 173.277734 
L 305.447586 171.552638 
L 306.152937 158.005168 
L 306.505612 154.594781 
L 306.858287 155.605959 
L 307.210962 154.044697 
L 307.563637 158.073651 
L 307.916312 159.44922 
L 308.268987 165.64356 
L 308.621663 174.031242 
L 308.974338 177.818178 
L 309.327013 185.19388 
L 309.679688 184.07575 
L 310.032363 181.784705 
L 310.385038 178.652375 
L 310.737713 172.511541 
L 311.090388 160.692189 
L 311.443063 161.92021 
L 311.795739 161.001497 
L 312.148414 162.338416 
L 312.853764 158.304889 
L 313.206439 158.53978 
L 313.559114 159.169935 
L 313.911789 157.45911 
L 314.264464 152.089239 
L 314.61714 152.588996 
L 314.969815 153.66327 
L 315.32249 152.447833 
L 315.675165 154.839201 
L 316.02784 155.472075 
L 317.085865 148.553343 
L 317.791216 158.178234 
L 318.143891 159.205857 
L 318.496566 155.71507 
L 318.849241 165.060587 
L 319.201916 166.287508 
L 319.554591 171.106217 
L 320.259941 169.326368 
L 320.612617 171.757218 
L 320.965292 172.911478 
L 321.317967 170.882569 
L 322.375992 153.350317 
L 322.728667 155.458193 
L 323.434017 166.844142 
L 323.786693 170.659585 
L 324.492043 183.148034 
L 324.844718 182.229625 
L 325.550068 174.056473 
L 325.902743 174.611708 
L 326.255418 173.493838 
L 326.608094 174.493348 
L 327.666119 164.236242 
L 328.018794 164.43316 
L 328.371469 166.572194 
L 328.724144 171.103888 
L 329.076819 169.762497 
L 329.429494 169.838689 
L 329.78217 168.953528 
L 330.134845 167.690414 
L 330.48752 169.194963 
L 330.840195 164.623179 
L 331.89822 159.523981 
L 332.250895 157.20885 
L 332.603571 155.749979 
L 332.956246 158.140532 
L 333.308921 158.773075 
L 334.366946 162.412855 
L 334.719621 164.674788 
L 335.072296 170.85105 
L 335.424971 172.553737 
L 336.130322 178.492008 
L 336.482997 174.614477 
L 336.835672 173.845089 
L 337.893697 166.064273 
L 338.246372 163.537887 
L 338.599048 162.139546 
L 338.951723 161.788212 
L 339.304398 166.594742 
L 339.657073 168.964927 
L 340.009748 169.8481 
L 340.362423 168.826845 
L 340.715098 170.108297 
L 341.067773 167.299957 
L 341.420449 168.326575 
L 342.125799 162.401707 
L 342.478474 161.368743 
L 342.831149 158.151259 
L 343.183824 157.090886 
L 343.536499 156.933875 
L 344.241849 159.685315 
L 344.594525 159.952741 
L 345.299875 163.949798 
L 345.65255 167.063214 
L 346.005225 167.231202 
L 346.3579 167.591933 
L 346.710575 167.65633 
L 347.06325 167.523026 
L 347.415926 165.90128 
L 348.121276 158.845914 
L 348.473951 159.115343 
L 348.826626 159.910104 
L 349.179301 162.703857 
L 349.531976 163.438308 
L 350.237326 165.664965 
L 350.590002 162.650068 
L 350.942677 163.072748 
L 351.295352 164.940665 
L 352.000702 165.996612 
L 352.353377 166.236245 
L 352.706052 167.037893 
L 353.058727 168.853549 
L 353.411403 169.677607 
L 353.764078 170.153543 
L 354.116753 169.118596 
L 354.469428 170.220283 
L 355.174778 168.583787 
L 355.880128 172.578532 
L 356.232803 171.909724 
L 356.938154 172.488706 
L 357.290829 171.267495 
L 357.643504 169.021839 
L 357.996179 167.888934 
L 358.701529 164.442238 
L 359.054204 160.004935 
L 359.40688 160.075336 
L 359.759555 159.731702 
L 360.11223 161.71886 
L 360.464905 161.166005 
L 360.81758 161.592024 
L 361.170255 160.935066 
L 361.52293 160.800737 
L 361.875605 161.05748 
L 362.22828 161.923408 
L 362.933631 159.822023 
L 363.286306 160.715268 
L 363.638981 162.211253 
L 363.991656 162.377008 
L 364.344331 160.865089 
L 364.697006 160.972525 
L 365.049681 162.12625 
L 365.402357 162.231267 
L 365.755032 167.303422 
L 366.460382 171.082663 
L 366.813057 172.425237 
L 367.518407 170.407892 
L 367.871082 170.376235 
L 368.223757 169.658377 
L 369.281783 163.555988 
L 369.634458 162.567399 
L 369.987133 164.212641 
L 370.692483 163.470212 
L 371.045158 162.325435 
L 371.397834 160.131543 
L 371.750509 159.782935 
L 372.103184 159.893918 
L 372.808534 163.681983 
L 373.161209 164.738544 
L 373.513884 162.552782 
L 373.866559 162.699151 
L 374.219235 163.295504 
L 375.27726 166.230152 
L 375.629935 167.55033 
L 375.98261 167.687271 
L 376.335285 167.122951 
L 376.68796 167.155994 
L 377.040635 166.782399 
L 377.393311 165.816127 
L 377.745986 165.5971 
L 378.098661 165.607953 
L 378.451336 168.765627 
L 378.804011 168.51341 
L 379.156686 167.704071 
L 379.509361 167.587445 
L 379.862036 165.519354 
L 380.214712 164.548914 
L 380.567387 164.246028 
L 380.920062 164.784891 
L 381.272737 164.845311 
L 381.625412 164.517645 
L 381.978087 164.505975 
L 382.330762 164.699668 
L 382.683437 164.537793 
L 383.741463 164.805252 
L 384.446813 165.129101 
L 384.799488 166.389535 
L 385.152163 166.583401 
L 385.504838 166.104581 
L 385.857513 165.379077 
L 386.210189 164.394387 
L 386.562864 164.234712 
L 386.915539 162.536653 
L 387.268214 162.276946 
L 387.620889 161.296695 
L 387.973564 162.130876 
L 388.678914 164.63815 
L 389.031589 165.009881 
L 389.384265 165.789618 
L 390.089615 166.744258 
L 390.44229 169.281315 
L 391.14764 170.478859 
L 391.500315 170.184216 
L 391.85299 169.228215 
L 392.558341 171.715443 
L 392.911016 170.433638 
L 393.263691 170.284478 
L 393.616366 168.863401 
L 393.969041 168.694366 
L 394.321716 166.860821 
L 394.674391 165.819771 
L 395.027066 164.049626 
L 395.379742 161.348447 
L 395.732417 160.548093 
L 396.085092 161.145899 
L 396.437767 160.284538 
L 396.790442 160.460728 
L 397.143117 162.183106 
L 397.495792 162.999658 
L 398.553818 167.285617 
L 398.906493 167.731706 
L 399.259168 167.034325 
L 399.964518 166.855738 
L 400.317193 165.985727 
L 400.669868 165.843677 
L 401.375219 164.564603 
L 401.727894 163.176677 
L 402.080569 160.812506 
L 402.433244 159.565124 
L 402.785919 160.003649 
L 403.138594 159.050598 
L 403.491269 160.330316 
L 403.843944 160.759132 
L 404.19662 160.937007 
L 404.549295 161.797481 
L 405.60732 167.179386 
L 405.959995 165.91128 
L 406.31267 166.224172 
L 406.665345 165.959359 
L 407.018021 166.731976 
L 407.370696 166.048516 
L 407.723371 165.071413 
L 408.076046 165.330955 
L 408.428721 165.354347 
L 408.781396 164.188192 
L 409.134071 161.768095 
L 409.486746 161.751038 
L 409.839421 161.545579 
L 410.192097 162.410059 
L 410.544772 165.601966 
L 410.897447 167.743924 
L 411.250122 168.407857 
L 411.602797 169.522242 
L 411.955472 168.521357 
L 412.308147 168.28646 
L 413.366173 166.65761 
L 413.718848 165.581446 
L 414.071523 165.718143 
L 414.424198 165.401587 
L 415.129548 164.111963 
L 415.482223 163.481333 
L 415.834898 163.282301 
L 416.187574 163.317651 
L 416.540249 163.804225 
L 416.892924 164.615793 
L 417.245599 165.043015 
L 417.598274 164.776186 
L 417.950949 164.81488 
L 418.303624 164.240016 
L 418.656299 163.288491 
L 419.008975 163.686477 
L 419.714325 163.836498 
L 420.067 164.712674 
L 420.419675 164.962513 
L 420.77235 160.483147 
L 421.125025 158.450212 
L 421.4777 157.3931 
L 421.830375 159.868534 
L 422.183051 161.216205 
L 422.535726 163.565079 
L 422.888401 165.145252 
L 423.241076 165.662685 
L 423.593751 165.788586 
L 423.946426 165.794735 
L 424.299101 164.10135 
L 424.651776 164.157157 
L 425.004452 162.561093 
L 425.357127 163.645001 
L 425.709802 164.165615 
L 426.062477 163.663556 
L 426.415152 167.377027 
L 426.767827 168.200697 
L 427.120502 168.663771 
L 427.473177 168.626357 
L 427.825852 168.09957 
L 428.531203 165.759893 
L 428.883878 165.353719 
L 428.883878 165.353719 
" style="fill:none;stroke:#008000;stroke-linecap:square;stroke-width:1.5;"/>
   </g>
   <g id="line2d_16">
    <path clip-path="url(#pd26b5219b4)" d="M 76.561435 164.939741 
L 78.32481 164.885874 
L 79.735511 164.65949 
L 80.088186 164.715273 
L 80.440861 164.557644 
L 81.146211 164.638689 
L 81.851561 164.977391 
L 82.204237 165.34847 
L 82.556912 166.044154 
L 82.909587 166.323837 
L 83.967612 165.591927 
L 85.378313 164.778114 
L 85.730988 164.616177 
L 86.083663 164.331606 
L 87.141688 164.430975 
L 87.494363 164.521574 
L 87.847038 164.806107 
L 88.905064 165.063072 
L 89.610414 165.016933 
L 96.311241 164.931651 
L 97.721942 165.104002 
L 100.896018 164.868479 
L 102.659393 164.923148 
L 105.480794 164.787581 
L 106.53882 164.990164 
L 108.302195 164.897664 
L 109.007546 164.833758 
L 112.534297 165.067851 
L 120.645824 164.952537 
L 122.056525 164.95281 
L 123.11455 164.871922 
L 125.230601 164.973104 
L 126.288626 164.900738 
L 129.462702 164.870334 
L 130.168053 165.089396 
L 131.578753 165.06445 
L 133.342129 164.932114 
L 134.400154 164.843152 
L 138.27958 164.990219 
L 140.748306 164.884886 
L 141.453656 165.193601 
L 144.275057 164.913691 
L 146.391108 164.885668 
L 147.096458 164.904571 
L 147.449133 164.516623 
L 147.801809 164.322422 
L 148.507159 164.547723 
L 149.212509 164.675049 
L 149.565184 164.697758 
L 150.270534 165.046116 
L 150.975885 165.034895 
L 151.681235 165.059319 
L 152.73926 165.588812 
L 153.091935 165.496671 
L 153.797286 164.84372 
L 154.502636 165.075784 
L 155.560661 165.0839 
L 158.382062 164.883445 
L 159.440087 164.922606 
L 160.145438 164.833613 
L 160.850788 164.759108 
L 161.908813 164.759846 
L 163.672189 165.020985 
L 164.377539 165.110624 
L 165.435564 165.113866 
L 167.90429 164.907942 
L 168.962316 164.869666 
L 170.373016 164.916152 
L 171.431041 164.991109 
L 172.136392 164.790724 
L 173.899767 165.004687 
L 174.957793 165.136987 
L 175.310468 165.083639 
L 175.663143 164.788837 
L 176.721168 164.667436 
L 177.779194 165.094817 
L 179.189894 165.073373 
L 179.895244 164.943136 
L 181.305945 164.770319 
L 181.65862 163.041681 
L 182.011295 162.456338 
L 182.716645 162.377408 
L 183.421996 162.910752 
L 183.774671 161.797368 
L 184.127346 162.357333 
L 184.480021 163.744701 
L 184.832696 164.58555 
L 185.185371 165.893556 
L 185.538046 166.48916 
L 185.890721 166.823786 
L 186.243396 165.992074 
L 187.301422 165.125725 
L 187.654097 165.059148 
L 188.359447 165.574442 
L 188.712122 166.177505 
L 189.064797 165.975988 
L 189.417473 165.105712 
L 190.122823 161.890037 
L 190.475498 161.819843 
L 190.828173 162.169319 
L 191.533523 164.008839 
L 191.886198 165.080099 
L 192.944224 165.245306 
L 193.296899 165.426901 
L 194.002249 160.530901 
L 194.707599 158.497031 
L 195.060274 158.046668 
L 195.41295 159.925753 
L 195.765625 159.541591 
L 196.1183 161.003803 
L 196.470975 163.656324 
L 196.82365 167.482865 
L 197.176325 169.132027 
L 197.529 169.800461 
L 198.23435 173.473396 
L 198.587026 172.534143 
L 198.939701 169.425215 
L 199.292376 167.796404 
L 199.645051 166.870394 
L 199.997726 167.004204 
L 200.350401 167.638619 
L 201.055751 160.450294 
L 201.408427 162.017702 
L 202.113777 168.160307 
L 202.466452 168.873494 
L 202.819127 167.504348 
L 203.171802 166.823215 
L 203.524477 165.755532 
L 204.229827 162.614254 
L 204.935178 162.081601 
L 205.287853 161.015142 
L 205.640528 160.771757 
L 205.993203 162.024986 
L 206.345878 162.454501 
L 206.698553 163.205841 
L 207.051228 164.403785 
L 207.403904 163.138423 
L 207.756579 165.079409 
L 208.109254 165.666548 
L 208.461929 166.730603 
L 208.814604 167.150597 
L 209.167279 164.871363 
L 209.519954 157.454907 
L 209.872629 154.969898 
L 210.225304 153.470975 
L 210.57798 155.159129 
L 210.930655 158.881134 
L 211.636005 163.638257 
L 212.341355 170.915574 
L 212.69403 173.601412 
L 213.046705 173.54735 
L 213.399381 171.796258 
L 214.104731 170.512165 
L 214.457406 170.362634 
L 214.810081 167.948922 
L 215.162756 163.438127 
L 215.515431 156.301372 
L 215.868106 153.988171 
L 216.220782 155.503674 
L 216.573457 160.498223 
L 216.926132 161.733233 
L 217.278807 163.969376 
L 217.984157 170.433005 
L 218.336832 169.715801 
L 218.689507 169.382304 
L 219.042182 170.229651 
L 219.394858 172.452145 
L 219.747533 171.748694 
L 220.452883 166.559505 
L 220.805558 166.297373 
L 221.510908 161.767971 
L 221.863583 160.013891 
L 222.216259 160.508155 
L 222.568934 161.533549 
L 222.921609 164.029828 
L 223.274284 165.50716 
L 223.979634 167.228561 
L 224.684984 167.318519 
L 225.390335 164.507849 
L 225.74301 164.284832 
L 226.44836 163.478042 
L 226.801035 161.747477 
L 227.15371 161.303674 
L 227.506385 161.42964 
L 227.85906 160.587416 
L 228.211736 161.293229 
L 228.917086 164.098797 
L 229.622436 166.7399 
L 229.975111 167.196485 
L 230.327786 168.510808 
L 230.680461 168.577829 
L 231.033136 168.264446 
L 231.385812 166.280091 
L 232.091162 164.951274 
L 232.443837 163.436199 
L 232.796512 163.418568 
L 233.149187 160.461458 
L 233.501862 160.620459 
L 234.207213 161.577589 
L 234.559888 157.962898 
L 234.912563 155.759045 
L 235.265238 155.351071 
L 235.617913 156.017764 
L 235.970588 154.329989 
L 236.323263 147.849534 
L 236.675938 150.571827 
L 237.028613 155.790258 
L 237.381289 166.664268 
L 237.733964 170.803393 
L 238.086639 168.603216 
L 238.439314 167.705736 
L 239.144664 175.555495 
L 239.497339 178.682398 
L 239.850014 178.454708 
L 240.20269 177.91053 
L 240.555365 178.497266 
L 240.90804 185.464174 
L 241.260715 183.862285 
L 241.966065 174.755868 
L 242.31874 167.962056 
L 242.671415 164.640261 
L 243.02409 162.938101 
L 243.376766 163.752252 
L 243.729441 163.395506 
L 244.082116 161.655093 
L 244.434791 161.219127 
L 244.787466 158.483896 
L 245.140141 156.893801 
L 245.492816 154.573403 
L 245.845491 155.082728 
L 246.198167 157.700648 
L 246.903517 160.215564 
L 247.961542 166.560712 
L 248.314217 167.355609 
L 248.666892 167.285488 
L 249.019568 166.806709 
L 249.372243 166.028303 
L 249.724918 167.091011 
L 250.077593 167.291942 
L 250.430268 166.844414 
L 250.782943 161.517289 
L 251.488293 156.336189 
L 251.840968 155.055749 
L 252.193644 156.293202 
L 252.546319 161.281821 
L 253.251669 166.994958 
L 253.957019 169.584753 
L 254.662369 172.257475 
L 255.015045 171.694091 
L 255.720395 168.996494 
L 256.07307 168.067462 
L 256.425745 167.484091 
L 256.77842 165.286329 
L 257.131095 163.966934 
L 257.48377 163.642719 
L 257.836445 164.919057 
L 258.189121 165.08672 
L 258.541796 163.966117 
L 258.894471 163.749238 
L 259.599821 164.128138 
L 260.305171 158.678884 
L 260.657846 157.085902 
L 261.010522 160.175122 
L 261.363197 161.573582 
L 261.715872 164.331574 
L 262.068547 164.851079 
L 262.421222 164.721743 
L 262.773897 164.368121 
L 263.126572 160.690227 
L 263.831922 160.812818 
L 264.184598 160.459259 
L 264.537273 160.890449 
L 264.889948 163.140022 
L 265.595298 164.972023 
L 265.947973 162.950779 
L 266.300648 157.070662 
L 266.653323 154.847185 
L 267.005999 154.668919 
L 267.358674 154.961684 
L 267.711349 161.986292 
L 268.064024 166.60094 
L 268.416699 163.454126 
L 268.769374 161.363352 
L 269.474724 160.521776 
L 269.827399 163.625006 
L 270.53275 172.447486 
L 270.885425 161.366736 
L 271.2381 140.76282 
L 271.590775 134.122404 
L 271.94345 104.618675 
L 272.296125 53.961793 
L 272.6488 37.364278 
L 273.354151 83.4154 
L 273.706826 111.36451 
L 274.059501 129.964755 
L 274.412176 129.484132 
L 274.764851 146.54922 
L 275.822876 255.66548 
L 276.175552 266.287344 
L 276.528227 264.916727 
L 276.880902 255.045105 
L 277.233577 231.023699 
L 277.586252 216.342232 
L 278.291602 207.727128 
L 278.644277 215.989426 
L 279.349628 190.086565 
L 279.702303 163.540788 
L 280.054978 147.882302 
L 280.760328 140.512515 
L 281.113003 121.929457 
L 281.465678 117.235263 
L 281.818354 129.675529 
L 282.171029 146.371144 
L 282.523704 155.570019 
L 282.876379 172.36429 
L 283.229054 177.370227 
L 283.581729 167.328636 
L 284.287079 176.943458 
L 284.639754 202.342773 
L 284.99243 211.921836 
L 285.345105 208.255326 
L 285.69778 196.387589 
L 286.050455 175.094641 
L 286.40313 168.92981 
L 286.755805 170.615199 
L 287.10848 169.84764 
L 287.813831 161.766876 
L 288.166506 159.677778 
L 288.519181 154.672806 
L 288.871856 143.378483 
L 289.224531 144.826144 
L 290.635231 189.650842 
L 290.987907 177.22589 
L 291.340582 172.381412 
L 291.693257 179.599706 
L 292.398607 168.499479 
L 293.103957 144.014806 
L 293.456632 141.935775 
L 293.809308 146.591072 
L 294.161983 144.551436 
L 294.514658 145.488914 
L 294.867333 122.480466 
L 295.220008 108.487095 
L 295.572683 105.429938 
L 295.925358 112.682244 
L 296.630708 147.630825 
L 296.983384 155.462082 
L 297.688734 193.576887 
L 298.041409 197.865287 
L 298.394084 196.628158 
L 299.099434 180.9606 
L 299.452109 178.670729 
L 299.804785 182.949224 
L 300.15746 180.090535 
L 300.510135 174.110216 
L 301.215485 167.811583 
L 301.56816 166.954925 
L 301.920835 173.217657 
L 302.626185 189.468948 
L 302.978861 185.292772 
L 303.331536 183.120895 
L 303.684211 173.416687 
L 304.036886 170.325334 
L 304.389561 168.886446 
L 304.742236 174.065611 
L 305.094911 173.288415 
L 305.447586 170.367558 
L 305.800262 172.064551 
L 306.152937 171.003521 
L 307.210962 149.599596 
L 307.563637 150.328498 
L 307.916312 149.851497 
L 308.268987 155.013165 
L 308.621663 158.467979 
L 308.974338 166.272413 
L 309.327013 177.221956 
L 309.679688 183.49519 
L 310.032363 191.890853 
L 310.385038 191.396703 
L 310.737713 187.282222 
L 311.090388 181.694147 
L 311.443063 172.928371 
L 311.795739 157.802858 
L 312.148414 155.788727 
L 312.501089 155.37042 
L 312.853764 157.800037 
L 313.206439 157.404059 
L 313.559114 155.768605 
L 313.911789 156.275404 
L 314.264464 157.676438 
L 314.61714 156.606617 
L 314.969815 150.836829 
L 315.32249 150.16723 
L 315.675165 151.646893 
L 316.02784 151.105809 
L 316.380515 153.867541 
L 316.73319 155.473135 
L 317.085865 153.653081 
L 317.43854 151.211389 
L 317.791216 147.537319 
L 318.143891 151.698969 
L 318.496566 158.412424 
L 318.849241 161.117463 
L 319.201916 157.694723 
L 319.554591 166.529114 
L 319.907266 169.71867 
L 320.259941 175.004765 
L 320.612617 174.590569 
L 320.965292 172.603923 
L 321.670642 174.964367 
L 322.023317 172.566519 
L 323.081342 149.150326 
L 323.434017 150.233546 
L 325.197393 188.633724 
L 325.550068 188.770931 
L 325.902743 183.68516 
L 326.255418 176.400858 
L 326.960769 172.648987 
L 327.313444 173.291924 
L 328.018794 166.673877 
L 328.371469 161.573556 
L 328.724144 161.16831 
L 329.076819 164.062744 
L 329.429494 170.1814 
L 329.78217 170.444684 
L 330.134845 170.555236 
L 330.48752 169.550279 
L 330.840195 167.897601 
L 331.19287 169.059829 
L 331.545545 164.44928 
L 332.250895 159.321225 
L 333.308921 153.031844 
L 333.661596 155.778177 
L 335.072296 163.314773 
L 335.424971 166.105979 
L 335.777647 173.163041 
L 336.835672 182.622987 
L 337.188347 178.348521 
L 337.541022 175.656554 
L 338.951723 160.761234 
L 339.304398 158.915408 
L 339.657073 158.723051 
L 340.362423 168.983924 
L 340.715098 171.105791 
L 341.067773 170.382214 
L 341.420449 171.343784 
L 341.773124 168.335467 
L 342.125799 168.470524 
L 343.536499 155.775996 
L 343.889174 154.256836 
L 344.241849 154.313253 
L 346.005225 165.14422 
L 346.3579 168.962338 
L 346.710575 169.723466 
L 347.06325 169.788383 
L 347.415926 169.398052 
L 347.768601 168.756029 
L 348.121276 166.551393 
L 348.826626 157.22662 
L 349.179301 156.529464 
L 349.531976 157.687163 
L 349.884651 161.432431 
L 350.590002 165.2057 
L 350.942677 166.760925 
L 351.295352 163.75176 
L 351.648027 163.282431 
L 352.000702 165.112479 
L 352.353377 166.066707 
L 352.706052 166.670025 
L 353.058727 166.926452 
L 353.411403 167.717805 
L 353.764078 169.715225 
L 354.116753 170.921174 
L 354.469428 171.495126 
L 354.822103 170.218348 
L 355.174778 170.840515 
L 355.880128 168.701321 
L 356.232803 170.313909 
L 356.585479 173.04562 
L 356.938154 172.880028 
L 357.290829 172.905716 
L 357.643504 173.150345 
L 357.996179 171.764308 
L 358.348854 168.885965 
L 359.40688 162.70341 
L 359.759555 157.713527 
L 360.11223 157.056357 
L 360.464905 157.134483 
L 360.81758 159.842664 
L 361.170255 160.351693 
L 361.52293 161.18651 
L 361.875605 160.821801 
L 362.22828 160.671847 
L 362.580956 160.969656 
L 362.933631 162.014988 
L 363.286306 161.075412 
L 363.638981 159.686067 
L 363.991656 160.317267 
L 364.344331 162.166307 
L 364.697006 162.797739 
L 365.049681 161.262589 
L 365.402357 160.931081 
L 365.755032 162.088411 
L 366.107707 162.481179 
L 366.460382 167.985189 
L 366.813057 171.574963 
L 367.165732 173.716762 
L 367.518407 175.163919 
L 367.871082 173.958093 
L 368.223757 172.000573 
L 368.576433 171.101378 
L 368.929108 169.88438 
L 369.987133 161.646733 
L 370.339808 160.427466 
L 370.692483 162.331824 
L 371.045158 162.832378 
L 371.397834 162.792281 
L 371.750509 161.735566 
L 372.103184 159.29729 
L 372.455859 158.531146 
L 372.808534 158.727897 
L 373.513884 163.863017 
L 373.866559 165.594431 
L 374.219235 163.54851 
L 374.57191 163.042667 
L 374.924585 163.496998 
L 375.629935 165.757125 
L 376.335285 168.571755 
L 376.68796 168.894399 
L 377.040635 168.137199 
L 377.393311 167.794215 
L 377.745986 167.141318 
L 378.098661 165.834175 
L 378.451336 165.243915 
L 378.804011 165.157352 
L 379.156686 168.600912 
L 379.509361 169.202496 
L 379.862036 168.373569 
L 380.214712 167.933829 
L 380.920062 163.895326 
L 381.272737 163.283639 
L 381.625412 163.879205 
L 381.978087 164.247541 
L 382.330762 164.102622 
L 382.683437 164.184948 
L 383.036112 164.507258 
L 383.388788 164.469574 
L 384.446813 164.843571 
L 385.152163 165.263022 
L 385.504838 166.636389 
L 385.857513 167.128559 
L 386.210189 166.627787 
L 386.562864 165.623904 
L 386.915539 164.265329 
L 387.268214 163.770335 
L 387.620889 161.901288 
L 387.973564 161.281207 
L 388.326239 160.266365 
L 388.678914 161.118729 
L 389.384265 164.862233 
L 390.44229 167.123899 
L 390.794965 167.66672 
L 391.14764 170.321658 
L 391.500315 171.522386 
L 391.85299 171.989822 
L 392.205666 171.463791 
L 392.558341 170.036802 
L 392.911016 170.9198 
L 393.263691 172.269808 
L 393.616366 171.083039 
L 393.969041 170.479311 
L 394.321716 168.742717 
L 394.674391 168.156108 
L 396.437767 158.259975 
L 396.790442 159.087564 
L 397.143117 158.796343 
L 397.495792 159.261628 
L 398.201143 163.134945 
L 399.259168 168.880563 
L 399.611843 169.416276 
L 400.317193 167.79117 
L 400.669868 167.33542 
L 401.022543 166.139072 
L 401.375219 165.628374 
L 402.080569 164.018707 
L 402.433244 162.418121 
L 402.785919 159.65185 
L 403.138594 157.878822 
L 403.491269 158.252844 
L 403.843944 157.679551 
L 404.549295 160.307816 
L 404.90197 160.903574 
L 405.254645 162.022006 
L 406.31267 168.748345 
L 406.665345 167.695428 
L 407.018021 167.416399 
L 407.370696 166.783358 
L 407.723371 167.263679 
L 408.076046 166.494217 
L 408.428721 165.133709 
L 408.781396 165.030765 
L 409.134071 165.072892 
L 409.486746 163.875904 
L 409.839421 161.070609 
L 410.192097 160.501604 
L 410.544772 160.386984 
L 410.897447 161.517053 
L 411.602797 168.748612 
L 412.308147 171.335583 
L 413.718848 166.95246 
L 414.071523 166.30113 
L 414.424198 165.005614 
L 414.776873 164.937832 
L 415.129548 164.741486 
L 416.187574 162.757316 
L 416.540249 162.539134 
L 416.892924 162.685787 
L 417.245599 163.383177 
L 417.950949 165.296339 
L 418.656299 165.12109 
L 419.008975 164.434418 
L 419.36165 163.200662 
L 420.419675 163.661594 
L 420.77235 164.671436 
L 421.125025 165.208043 
L 421.830375 157.166685 
L 422.183051 155.469417 
L 423.593751 166.289447 
L 423.946426 167.282052 
L 424.299101 167.388177 
L 424.651776 167.14847 
L 425.004452 164.962615 
L 425.357127 164.258259 
L 425.709802 162.274525 
L 426.415152 163.79606 
L 426.767827 163.53755 
L 427.120502 167.503596 
L 427.473177 169.357323 
L 427.825852 170.103723 
L 428.178528 169.985692 
L 428.531203 169.119384 
L 428.883878 167.460006 
L 428.883878 167.460006 
" style="fill:none;stroke:#ffa500;stroke-linecap:square;stroke-width:1.5;"/>
   </g>
   <g id="patch_3">
    <path d="M 58.945313 277.733497 
L 58.945313 25.918125 
" style="fill:none;stroke:#000000;stroke-linecap:square;stroke-linejoin:miter;stroke-width:0.8;"/>
   </g>
   <g id="patch_4">
    <path d="M 446.5 277.733497 
L 446.5 25.918125 
" style="fill:none;stroke:#000000;stroke-linecap:square;stroke-linejoin:miter;stroke-width:0.8;"/>
   </g>
   <g id="patch_5">
    <path d="M 58.945312 277.733497 
L 446.5 277.733497 
" style="fill:none;stroke:#000000;stroke-linecap:square;stroke-linejoin:miter;stroke-width:0.8;"/>
   </g>
   <g id="patch_6">
    <path d="M 58.945312 25.918125 
L 446.5 25.918125 
" style="fill:none;stroke:#000000;stroke-linecap:square;stroke-linejoin:miter;stroke-width:0.8;"/>
   </g>
   <g id="text_17">
    <!-- MACD and Signal pointers from last 1000 days -->
    <defs>
     <path d="M 18.109375 8.203125 
L 18.109375 -20.796875 
L 9.078125 -20.796875 
L 9.078125 54.6875 
L 18.109375 54.6875 
L 18.109375 46.390625 
Q 20.953125 51.265625 25.265625 53.625 
Q 29.59375 56 35.59375 56 
Q 45.5625 56 51.78125 48.09375 
Q 58.015625 40.1875 58.015625 27.296875 
Q 58.015625 14.40625 51.78125 6.484375 
Q 45.5625 -1.421875 35.59375 -1.421875 
Q 29.59375 -1.421875 25.265625 0.953125 
Q 20.953125 3.328125 18.109375 8.203125 
z
M 48.6875 27.296875 
Q 48.6875 37.203125 44.609375 42.84375 
Q 40.53125 48.484375 33.40625 48.484375 
Q 26.265625 48.484375 22.1875 42.84375 
Q 18.109375 37.203125 18.109375 27.296875 
Q 18.109375 17.390625 22.1875 11.75 
Q 26.265625 6.109375 33.40625 6.109375 
Q 40.53125 6.109375 44.609375 11.75 
Q 48.6875 17.390625 48.6875 27.296875 
z
" id="DejaVuSans-112"/>
     <path d="M 30.609375 48.390625 
Q 23.390625 48.390625 19.1875 42.75 
Q 14.984375 37.109375 14.984375 27.296875 
Q 14.984375 17.484375 19.15625 11.84375 
Q 23.34375 6.203125 30.609375 6.203125 
Q 37.796875 6.203125 41.984375 11.859375 
Q 46.1875 17.53125 46.1875 27.296875 
Q 46.1875 37.015625 41.984375 42.703125 
Q 37.796875 48.390625 30.609375 48.390625 
z
M 30.609375 56 
Q 42.328125 56 49.015625 48.375 
Q 55.71875 40.765625 55.71875 27.296875 
Q 55.71875 13.875 49.015625 6.21875 
Q 42.328125 -1.421875 30.609375 -1.421875 
Q 18.84375 -1.421875 12.171875 6.21875 
Q 5.515625 13.875 5.515625 27.296875 
Q 5.515625 40.765625 12.171875 48.375 
Q 18.84375 56 30.609375 56 
z
" id="DejaVuSans-111"/>
     <path d="M 56.203125 29.59375 
L 56.203125 25.203125 
L 14.890625 25.203125 
Q 15.484375 15.921875 20.484375 11.0625 
Q 25.484375 6.203125 34.421875 6.203125 
Q 39.59375 6.203125 44.453125 7.46875 
Q 49.3125 8.734375 54.109375 11.28125 
L 54.109375 2.78125 
Q 49.265625 0.734375 44.1875 -0.34375 
Q 39.109375 -1.421875 33.890625 -1.421875 
Q 20.796875 -1.421875 13.15625 6.1875 
Q 5.515625 13.8125 5.515625 26.8125 
Q 5.515625 40.234375 12.765625 48.109375 
Q 20.015625 56 32.328125 56 
Q 43.359375 56 49.78125 48.890625 
Q 56.203125 41.796875 56.203125 29.59375 
z
M 47.21875 32.234375 
Q 47.125 39.59375 43.09375 43.984375 
Q 39.0625 48.390625 32.421875 48.390625 
Q 24.90625 48.390625 20.390625 44.140625 
Q 15.875 39.890625 15.1875 32.171875 
z
" id="DejaVuSans-101"/>
     <path d="M 41.109375 46.296875 
Q 39.59375 47.171875 37.8125 47.578125 
Q 36.03125 48 33.890625 48 
Q 26.265625 48 22.1875 43.046875 
Q 18.109375 38.09375 18.109375 28.8125 
L 18.109375 0 
L 9.078125 0 
L 9.078125 54.6875 
L 18.109375 54.6875 
L 18.109375 46.1875 
Q 20.953125 51.171875 25.484375 53.578125 
Q 30.03125 56 36.53125 56 
Q 37.453125 56 38.578125 55.875 
Q 39.703125 55.765625 41.0625 55.515625 
z
" id="DejaVuSans-114"/>
     <path d="M 37.109375 75.984375 
L 37.109375 68.5 
L 28.515625 68.5 
Q 23.6875 68.5 21.796875 66.546875 
Q 19.921875 64.59375 19.921875 59.515625 
L 19.921875 54.6875 
L 34.71875 54.6875 
L 34.71875 47.703125 
L 19.921875 47.703125 
L 19.921875 0 
L 10.890625 0 
L 10.890625 47.703125 
L 2.296875 47.703125 
L 2.296875 54.6875 
L 10.890625 54.6875 
L 10.890625 58.5 
Q 10.890625 67.625 15.140625 71.796875 
Q 19.390625 75.984375 28.609375 75.984375 
z
" id="DejaVuSans-102"/>
     <path d="M 52 44.1875 
Q 55.375 50.25 60.0625 53.125 
Q 64.75 56 71.09375 56 
Q 79.640625 56 84.28125 50.015625 
Q 88.921875 44.046875 88.921875 33.015625 
L 88.921875 0 
L 79.890625 0 
L 79.890625 32.71875 
Q 79.890625 40.578125 77.09375 44.375 
Q 74.3125 48.1875 68.609375 48.1875 
Q 61.625 48.1875 57.5625 43.546875 
Q 53.515625 38.921875 53.515625 30.90625 
L 53.515625 0 
L 44.484375 0 
L 44.484375 32.71875 
Q 44.484375 40.625 41.703125 44.40625 
Q 38.921875 48.1875 33.109375 48.1875 
Q 26.21875 48.1875 22.15625 43.53125 
Q 18.109375 38.875 18.109375 30.90625 
L 18.109375 0 
L 9.078125 0 
L 9.078125 54.6875 
L 18.109375 54.6875 
L 18.109375 46.1875 
Q 21.1875 51.21875 25.484375 53.609375 
Q 29.78125 56 35.6875 56 
Q 41.65625 56 45.828125 52.96875 
Q 50 49.953125 52 44.1875 
z
" id="DejaVuSans-109"/>
    </defs>
    <g transform="translate(112.632031 19.918125)scale(0.12 -0.12)">
     <use xlink:href="#DejaVuSans-77"/>
     <use x="86.279297" xlink:href="#DejaVuSans-65"/>
     <use x="154.671875" xlink:href="#DejaVuSans-67"/>
     <use x="224.496094" xlink:href="#DejaVuSans-68"/>
     <use x="301.498047" xlink:href="#DejaVuSans-32"/>
     <use x="333.285156" xlink:href="#DejaVuSans-97"/>
     <use x="394.564453" xlink:href="#DejaVuSans-110"/>
     <use x="457.943359" xlink:href="#DejaVuSans-100"/>
     <use x="521.419922" xlink:href="#DejaVuSans-32"/>
     <use x="553.207031" xlink:href="#DejaVuSans-83"/>
     <use x="616.683594" xlink:href="#DejaVuSans-105"/>
     <use x="644.466797" xlink:href="#DejaVuSans-103"/>
     <use x="707.943359" xlink:href="#DejaVuSans-110"/>
     <use x="771.322266" xlink:href="#DejaVuSans-97"/>
     <use x="832.601562" xlink:href="#DejaVuSans-108"/>
     <use x="860.384766" xlink:href="#DejaVuSans-32"/>
     <use x="892.171875" xlink:href="#DejaVuSans-112"/>
     <use x="955.648438" xlink:href="#DejaVuSans-111"/>
     <use x="1016.830078" xlink:href="#DejaVuSans-105"/>
     <use x="1044.613281" xlink:href="#DejaVuSans-110"/>
     <use x="1107.992188" xlink:href="#DejaVuSans-116"/>
     <use x="1147.201172" xlink:href="#DejaVuSans-101"/>
     <use x="1208.724609" xlink:href="#DejaVuSans-114"/>
     <use x="1249.837891" xlink:href="#DejaVuSans-115"/>
     <use x="1301.9375" xlink:href="#DejaVuSans-32"/>
     <use x="1333.724609" xlink:href="#DejaVuSans-102"/>
     <use x="1368.929688" xlink:href="#DejaVuSans-114"/>
     <use x="1410.011719" xlink:href="#DejaVuSans-111"/>
     <use x="1471.193359" xlink:href="#DejaVuSans-109"/>
     <use x="1568.605469" xlink:href="#DejaVuSans-32"/>
     <use x="1600.392578" xlink:href="#DejaVuSans-108"/>
     <use x="1628.175781" xlink:href="#DejaVuSans-97"/>
     <use x="1689.455078" xlink:href="#DejaVuSans-115"/>
     <use x="1741.554688" xlink:href="#DejaVuSans-116"/>
     <use x="1780.763672" xlink:href="#DejaVuSans-32"/>
     <use x="1812.550781" xlink:href="#DejaVuSans-49"/>
     <use x="1876.173828" xlink:href="#DejaVuSans-48"/>
     <use x="1939.796875" xlink:href="#DejaVuSans-48"/>
     <use x="2003.419922" xlink:href="#DejaVuSans-48"/>
     <use x="2067.042969" xlink:href="#DejaVuSans-32"/>
     <use x="2098.830078" xlink:href="#DejaVuSans-100"/>
     <use x="2162.306641" xlink:href="#DejaVuSans-97"/>
     <use x="2223.585938" xlink:href="#DejaVuSans-121"/>
     <use x="2282.765625" xlink:href="#DejaVuSans-115"/>
    </g>
   </g>
   <g id="legend_1">
    <g id="patch_7">
     <path d="M 65.945312 63.274375 
L 128.664062 63.274375 
Q 130.664062 63.274375 130.664062 61.274375 
L 130.664062 32.918125 
Q 130.664062 30.918125 128.664062 30.918125 
L 65.945312 30.918125 
Q 63.945312 30.918125 63.945312 32.918125 
L 63.945312 61.274375 
Q 63.945312 63.274375 65.945312 63.274375 
z
" style="fill:#ffffff;opacity:0.8;stroke:#cccccc;stroke-linejoin:miter;"/>
    </g>
    <g id="line2d_17">
     <path d="M 67.945312 39.016563 
L 87.945312 39.016563 
" style="fill:none;stroke:#008000;stroke-linecap:square;stroke-width:1.5;"/>
    </g>
    <g id="line2d_18"/>
    <g id="text_18">
     <!-- Macd -->
     <defs>
      <path d="M 48.78125 52.59375 
L 48.78125 44.1875 
Q 44.96875 46.296875 41.140625 47.34375 
Q 37.3125 48.390625 33.40625 48.390625 
Q 24.65625 48.390625 19.8125 42.84375 
Q 14.984375 37.3125 14.984375 27.296875 
Q 14.984375 17.28125 19.8125 11.734375 
Q 24.65625 6.203125 33.40625 6.203125 
Q 37.3125 6.203125 41.140625 7.25 
Q 44.96875 8.296875 48.78125 10.40625 
L 48.78125 2.09375 
Q 45.015625 0.34375 40.984375 -0.53125 
Q 36.96875 -1.421875 32.421875 -1.421875 
Q 20.0625 -1.421875 12.78125 6.34375 
Q 5.515625 14.109375 5.515625 27.296875 
Q 5.515625 40.671875 12.859375 48.328125 
Q 20.21875 56 33.015625 56 
Q 37.15625 56 41.109375 55.140625 
Q 45.0625 54.296875 48.78125 52.59375 
z
" id="DejaVuSans-99"/>
     </defs>
     <g transform="translate(95.945312 42.516563)scale(0.1 -0.1)">
      <use xlink:href="#DejaVuSans-77"/>
      <use x="86.279297" xlink:href="#DejaVuSans-97"/>
      <use x="147.558594" xlink:href="#DejaVuSans-99"/>
      <use x="202.539062" xlink:href="#DejaVuSans-100"/>
     </g>
    </g>
    <g id="line2d_19">
     <path d="M 67.945312 53.694688 
L 87.945312 53.694688 
" style="fill:none;stroke:#ffa500;stroke-linecap:square;stroke-width:1.5;"/>
    </g>
    <g id="line2d_20"/>
    <g id="text_19">
     <!-- Signal -->
     <g transform="translate(95.945312 57.194688)scale(0.1 -0.1)">
      <use xlink:href="#DejaVuSans-83"/>
      <use x="63.476562" xlink:href="#DejaVuSans-105"/>
      <use x="91.259766" xlink:href="#DejaVuSans-103"/>
      <use x="154.736328" xlink:href="#DejaVuSans-110"/>
      <use x="218.115234" xlink:href="#DejaVuSans-97"/>
      <use x="279.394531" xlink:href="#DejaVuSans-108"/>
     </g>
    </g>
   </g>
  </g>
 </g>
 <defs>
  <clipPath id="pd26b5219b4">
   <rect height="251.815372" width="387.554687" x="58.945313" y="25.918125"/>
  </clipPath>
 </defs>
</svg>
