<?xml version="1.0" encoding="utf-8" standalone="no"?>
<!DOCTYPE svg PUBLIC "-//W3C//DTD SVG 1.1//EN"
  "http://www.w3.org/Graphics/SVG/1.1/DTD/svg11.dtd">
<!-- Created with matplotlib (https://matplotlib.org/) -->
<svg height="345.6pt" version="1.1" viewBox="0 0 460.8 345.6" width="460.8pt" xmlns="http://www.w3.org/2000/svg" xmlns:xlink="http://www.w3.org/1999/xlink">
 <defs>
  <style type="text/css">
*{stroke-linecap:butt;stroke-linejoin:round;}
  </style>
 </defs>
 <g id="figure_1">
  <g id="patch_1">
   <path d="M 0 345.6 
L 460.8 345.6 
L 460.8 0 
L 0 0 
z
" style="fill:#ffffff;"/>
  </g>
  <g id="axes_1">
   <g id="patch_2">
    <path d="M 58.945313 277.733497 
L 446.5 277.733497 
L 446.5 25.918125 
L 58.945313 25.918125 
z
" style="fill:#ffffff;"/>
   </g>
   <g id="matplotlib.axis_1">
    <g id="xtick_1">
     <g id="line2d_1">
      <defs>
       <path d="M 0 0 
L 0 3.5 
" id="m55534cd084" style="stroke:#000000;stroke-width:0.8;"/>
      </defs>
      <g>
       <use style="stroke:#000000;stroke-width:0.8;" x="80.911094" xlink:href="#m55534cd084" y="277.733497"/>
      </g>
     </g>
     <g id="text_1">
      <!-- 2016-05 -->
      <defs>
       <path d="M 19.1875 8.296875 
L 53.609375 8.296875 
L 53.609375 0 
L 7.328125 0 
L 7.328125 8.296875 
Q 12.9375 14.109375 22.625 23.890625 
Q 32.328125 33.6875 34.8125 36.53125 
Q 39.546875 41.84375 41.421875 45.53125 
Q 43.3125 49.21875 43.3125 52.78125 
Q 43.3125 58.59375 39.234375 62.25 
Q 35.15625 65.921875 28.609375 65.921875 
Q 23.96875 65.921875 18.8125 64.3125 
Q 13.671875 62.703125 7.8125 59.421875 
L 7.8125 69.390625 
Q 13.765625 71.78125 18.9375 73 
Q 24.125 74.21875 28.421875 74.21875 
Q 39.75 74.21875 46.484375 68.546875 
Q 53.21875 62.890625 53.21875 53.421875 
Q 53.21875 48.921875 51.53125 44.890625 
Q 49.859375 40.875 45.40625 35.40625 
Q 44.1875 33.984375 37.640625 27.21875 
Q 31.109375 20.453125 19.1875 8.296875 
z
" id="DejaVuSans-50"/>
       <path d="M 31.78125 66.40625 
Q 24.171875 66.40625 20.328125 58.90625 
Q 16.5 51.421875 16.5 36.375 
Q 16.5 21.390625 20.328125 13.890625 
Q 24.171875 6.390625 31.78125 6.390625 
Q 39.453125 6.390625 43.28125 13.890625 
Q 47.125 21.390625 47.125 36.375 
Q 47.125 51.421875 43.28125 58.90625 
Q 39.453125 66.40625 31.78125 66.40625 
z
M 31.78125 74.21875 
Q 44.046875 74.21875 50.515625 64.515625 
Q 56.984375 54.828125 56.984375 36.375 
Q 56.984375 17.96875 50.515625 8.265625 
Q 44.046875 -1.421875 31.78125 -1.421875 
Q 19.53125 -1.421875 13.0625 8.265625 
Q 6.59375 17.96875 6.59375 36.375 
Q 6.59375 54.828125 13.0625 64.515625 
Q 19.53125 74.21875 31.78125 74.21875 
z
" id="DejaVuSans-48"/>
       <path d="M 12.40625 8.296875 
L 28.515625 8.296875 
L 28.515625 63.921875 
L 10.984375 60.40625 
L 10.984375 69.390625 
L 28.421875 72.90625 
L 38.28125 72.90625 
L 38.28125 8.296875 
L 54.390625 8.296875 
L 54.390625 0 
L 12.40625 0 
z
" id="DejaVuSans-49"/>
       <path d="M 33.015625 40.375 
Q 26.375 40.375 22.484375 35.828125 
Q 18.609375 31.296875 18.609375 23.390625 
Q 18.609375 15.53125 22.484375 10.953125 
Q 26.375 6.390625 33.015625 6.390625 
Q 39.65625 6.390625 43.53125 10.953125 
Q 47.40625 15.53125 47.40625 23.390625 
Q 47.40625 31.296875 43.53125 35.828125 
Q 39.65625 40.375 33.015625 40.375 
z
M 52.59375 71.296875 
L 52.59375 62.3125 
Q 48.875 64.0625 45.09375 64.984375 
Q 41.3125 65.921875 37.59375 65.921875 
Q 27.828125 65.921875 22.671875 59.328125 
Q 17.53125 52.734375 16.796875 39.40625 
Q 19.671875 43.65625 24.015625 45.921875 
Q 28.375 48.1875 33.59375 48.1875 
Q 44.578125 48.1875 50.953125 41.515625 
Q 57.328125 34.859375 57.328125 23.390625 
Q 57.328125 12.15625 50.6875 5.359375 
Q 44.046875 -1.421875 33.015625 -1.421875 
Q 20.359375 -1.421875 13.671875 8.265625 
Q 6.984375 17.96875 6.984375 36.375 
Q 6.984375 53.65625 15.1875 63.9375 
Q 23.390625 74.21875 37.203125 74.21875 
Q 40.921875 74.21875 44.703125 73.484375 
Q 48.484375 72.75 52.59375 71.296875 
z
" id="DejaVuSans-54"/>
       <path d="M 4.890625 31.390625 
L 31.203125 31.390625 
L 31.203125 23.390625 
L 4.890625 23.390625 
z
" id="DejaVuSans-45"/>
       <path d="M 10.796875 72.90625 
L 49.515625 72.90625 
L 49.515625 64.59375 
L 19.828125 64.59375 
L 19.828125 46.734375 
Q 21.96875 47.46875 24.109375 47.828125 
Q 26.265625 48.1875 28.421875 48.1875 
Q 40.625 48.1875 47.75 41.5 
Q 54.890625 34.8125 54.890625 23.390625 
Q 54.890625 11.625 47.5625 5.09375 
Q 40.234375 -1.421875 26.90625 -1.421875 
Q 22.3125 -1.421875 17.546875 -0.640625 
Q 12.796875 0.140625 7.71875 1.703125 
L 7.71875 11.625 
Q 12.109375 9.234375 16.796875 8.0625 
Q 21.484375 6.890625 26.703125 6.890625 
Q 35.15625 6.890625 40.078125 11.328125 
Q 45.015625 15.765625 45.015625 23.390625 
Q 45.015625 31 40.078125 35.4375 
Q 35.15625 39.890625 26.703125 39.890625 
Q 22.75 39.890625 18.8125 39.015625 
Q 14.890625 38.140625 10.796875 36.28125 
z
" id="DejaVuSans-53"/>
      </defs>
      <g transform="translate(68.089812 319.651314)rotate(-45)scale(0.1 -0.1)">
       <use xlink:href="#DejaVuSans-50"/>
       <use x="63.623047" xlink:href="#DejaVuSans-48"/>
       <use x="127.246094" xlink:href="#DejaVuSans-49"/>
       <use x="190.869141" xlink:href="#DejaVuSans-54"/>
       <use x="254.492188" xlink:href="#DejaVuSans-45"/>
       <use x="290.576172" xlink:href="#DejaVuSans-48"/>
       <use x="354.199219" xlink:href="#DejaVuSans-53"/>
      </g>
     </g>
    </g>
    <g id="xtick_2">
     <g id="line2d_2">
      <g>
       <use style="stroke:#000000;stroke-width:0.8;" x="122.065568" xlink:href="#m55534cd084" y="277.733497"/>
      </g>
     </g>
     <g id="text_2">
      <!-- 2016-09 -->
      <defs>
       <path d="M 10.984375 1.515625 
L 10.984375 10.5 
Q 14.703125 8.734375 18.5 7.8125 
Q 22.3125 6.890625 25.984375 6.890625 
Q 35.75 6.890625 40.890625 13.453125 
Q 46.046875 20.015625 46.78125 33.40625 
Q 43.953125 29.203125 39.59375 26.953125 
Q 35.25 24.703125 29.984375 24.703125 
Q 19.046875 24.703125 12.671875 31.3125 
Q 6.296875 37.9375 6.296875 49.421875 
Q 6.296875 60.640625 12.9375 67.421875 
Q 19.578125 74.21875 30.609375 74.21875 
Q 43.265625 74.21875 49.921875 64.515625 
Q 56.59375 54.828125 56.59375 36.375 
Q 56.59375 19.140625 48.40625 8.859375 
Q 40.234375 -1.421875 26.421875 -1.421875 
Q 22.703125 -1.421875 18.890625 -0.6875 
Q 15.09375 0.046875 10.984375 1.515625 
z
M 30.609375 32.421875 
Q 37.25 32.421875 41.125 36.953125 
Q 45.015625 41.5 45.015625 49.421875 
Q 45.015625 57.28125 41.125 61.84375 
Q 37.25 66.40625 30.609375 66.40625 
Q 23.96875 66.40625 20.09375 61.84375 
Q 16.21875 57.28125 16.21875 49.421875 
Q 16.21875 41.5 20.09375 36.953125 
Q 23.96875 32.421875 30.609375 32.421875 
z
" id="DejaVuSans-57"/>
      </defs>
      <g transform="translate(109.244286 319.651314)rotate(-45)scale(0.1 -0.1)">
       <use xlink:href="#DejaVuSans-50"/>
       <use x="63.623047" xlink:href="#DejaVuSans-48"/>
       <use x="127.246094" xlink:href="#DejaVuSans-49"/>
       <use x="190.869141" xlink:href="#DejaVuSans-54"/>
       <use x="254.492188" xlink:href="#DejaVuSans-45"/>
       <use x="290.576172" xlink:href="#DejaVuSans-48"/>
       <use x="354.199219" xlink:href="#DejaVuSans-57"/>
      </g>
     </g>
    </g>
    <g id="xtick_3">
     <g id="line2d_3">
      <g>
       <use style="stroke:#000000;stroke-width:0.8;" x="162.885452" xlink:href="#m55534cd084" y="277.733497"/>
      </g>
     </g>
     <g id="text_3">
      <!-- 2017-01 -->
      <defs>
       <path d="M 8.203125 72.90625 
L 55.078125 72.90625 
L 55.078125 68.703125 
L 28.609375 0 
L 18.3125 0 
L 43.21875 64.59375 
L 8.203125 64.59375 
z
" id="DejaVuSans-55"/>
      </defs>
      <g transform="translate(150.06417 319.651314)rotate(-45)scale(0.1 -0.1)">
       <use xlink:href="#DejaVuSans-50"/>
       <use x="63.623047" xlink:href="#DejaVuSans-48"/>
       <use x="127.246094" xlink:href="#DejaVuSans-49"/>
       <use x="190.869141" xlink:href="#DejaVuSans-55"/>
       <use x="254.492188" xlink:href="#DejaVuSans-45"/>
       <use x="290.576172" xlink:href="#DejaVuSans-48"/>
       <use x="354.199219" xlink:href="#DejaVuSans-49"/>
      </g>
     </g>
    </g>
    <g id="xtick_4">
     <g id="line2d_4">
      <g>
       <use style="stroke:#000000;stroke-width:0.8;" x="203.036158" xlink:href="#m55534cd084" y="277.733497"/>
      </g>
     </g>
     <g id="text_4">
      <!-- 2017-05 -->
      <g transform="translate(190.214876 319.651314)rotate(-45)scale(0.1 -0.1)">
       <use xlink:href="#DejaVuSans-50"/>
       <use x="63.623047" xlink:href="#DejaVuSans-48"/>
       <use x="127.246094" xlink:href="#DejaVuSans-49"/>
       <use x="190.869141" xlink:href="#DejaVuSans-55"/>
       <use x="254.492188" xlink:href="#DejaVuSans-45"/>
       <use x="290.576172" xlink:href="#DejaVuSans-48"/>
       <use x="354.199219" xlink:href="#DejaVuSans-53"/>
      </g>
     </g>
    </g>
    <g id="xtick_5">
     <g id="line2d_5">
      <g>
       <use style="stroke:#000000;stroke-width:0.8;" x="244.190631" xlink:href="#m55534cd084" y="277.733497"/>
      </g>
     </g>
     <g id="text_5">
      <!-- 2017-09 -->
      <g transform="translate(231.369349 319.651314)rotate(-45)scale(0.1 -0.1)">
       <use xlink:href="#DejaVuSans-50"/>
       <use x="63.623047" xlink:href="#DejaVuSans-48"/>
       <use x="127.246094" xlink:href="#DejaVuSans-49"/>
       <use x="190.869141" xlink:href="#DejaVuSans-55"/>
       <use x="254.492188" xlink:href="#DejaVuSans-45"/>
       <use x="290.576172" xlink:href="#DejaVuSans-48"/>
       <use x="354.199219" xlink:href="#DejaVuSans-57"/>
      </g>
     </g>
    </g>
    <g id="xtick_6">
     <g id="line2d_6">
      <g>
       <use style="stroke:#000000;stroke-width:0.8;" x="285.010515" xlink:href="#m55534cd084" y="277.733497"/>
      </g>
     </g>
     <g id="text_6">
      <!-- 2018-01 -->
      <defs>
       <path d="M 31.78125 34.625 
Q 24.75 34.625 20.71875 30.859375 
Q 16.703125 27.09375 16.703125 20.515625 
Q 16.703125 13.921875 20.71875 10.15625 
Q 24.75 6.390625 31.78125 6.390625 
Q 38.8125 6.390625 42.859375 10.171875 
Q 46.921875 13.96875 46.921875 20.515625 
Q 46.921875 27.09375 42.890625 30.859375 
Q 38.875 34.625 31.78125 34.625 
z
M 21.921875 38.8125 
Q 15.578125 40.375 12.03125 44.71875 
Q 8.5 49.078125 8.5 55.328125 
Q 8.5 64.0625 14.71875 69.140625 
Q 20.953125 74.21875 31.78125 74.21875 
Q 42.671875 74.21875 48.875 69.140625 
Q 55.078125 64.0625 55.078125 55.328125 
Q 55.078125 49.078125 51.53125 44.71875 
Q 48 40.375 41.703125 38.8125 
Q 48.828125 37.15625 52.796875 32.3125 
Q 56.78125 27.484375 56.78125 20.515625 
Q 56.78125 9.90625 50.3125 4.234375 
Q 43.84375 -1.421875 31.78125 -1.421875 
Q 19.734375 -1.421875 13.25 4.234375 
Q 6.78125 9.90625 6.78125 20.515625 
Q 6.78125 27.484375 10.78125 32.3125 
Q 14.796875 37.15625 21.921875 38.8125 
z
M 18.3125 54.390625 
Q 18.3125 48.734375 21.84375 45.5625 
Q 25.390625 42.390625 31.78125 42.390625 
Q 38.140625 42.390625 41.71875 45.5625 
Q 45.3125 48.734375 45.3125 54.390625 
Q 45.3125 60.0625 41.71875 63.234375 
Q 38.140625 66.40625 31.78125 66.40625 
Q 25.390625 66.40625 21.84375 63.234375 
Q 18.3125 60.0625 18.3125 54.390625 
z
" id="DejaVuSans-56"/>
      </defs>
      <g transform="translate(272.189233 319.651314)rotate(-45)scale(0.1 -0.1)">
       <use xlink:href="#DejaVuSans-50"/>
       <use x="63.623047" xlink:href="#DejaVuSans-48"/>
       <use x="127.246094" xlink:href="#DejaVuSans-49"/>
       <use x="190.869141" xlink:href="#DejaVuSans-56"/>
       <use x="254.492188" xlink:href="#DejaVuSans-45"/>
       <use x="290.576172" xlink:href="#DejaVuSans-48"/>
       <use x="354.199219" xlink:href="#DejaVuSans-49"/>
      </g>
     </g>
    </g>
    <g id="xtick_7">
     <g id="line2d_7">
      <g>
       <use style="stroke:#000000;stroke-width:0.8;" x="325.161221" xlink:href="#m55534cd084" y="277.733497"/>
      </g>
     </g>
     <g id="text_7">
      <!-- 2018-05 -->
      <g transform="translate(312.339939 319.651314)rotate(-45)scale(0.1 -0.1)">
       <use xlink:href="#DejaVuSans-50"/>
       <use x="63.623047" xlink:href="#DejaVuSans-48"/>
       <use x="127.246094" xlink:href="#DejaVuSans-49"/>
       <use x="190.869141" xlink:href="#DejaVuSans-56"/>
       <use x="254.492188" xlink:href="#DejaVuSans-45"/>
       <use x="290.576172" xlink:href="#DejaVuSans-48"/>
       <use x="354.199219" xlink:href="#DejaVuSans-53"/>
      </g>
     </g>
    </g>
    <g id="xtick_8">
     <g id="line2d_8">
      <g>
       <use style="stroke:#000000;stroke-width:0.8;" x="366.315695" xlink:href="#m55534cd084" y="277.733497"/>
      </g>
     </g>
     <g id="text_8">
      <!-- 2018-09 -->
      <g transform="translate(353.494412 319.651314)rotate(-45)scale(0.1 -0.1)">
       <use xlink:href="#DejaVuSans-50"/>
       <use x="63.623047" xlink:href="#DejaVuSans-48"/>
       <use x="127.246094" xlink:href="#DejaVuSans-49"/>
       <use x="190.869141" xlink:href="#DejaVuSans-56"/>
       <use x="254.492188" xlink:href="#DejaVuSans-45"/>
       <use x="290.576172" xlink:href="#DejaVuSans-48"/>
       <use x="354.199219" xlink:href="#DejaVuSans-57"/>
      </g>
     </g>
    </g>
    <g id="xtick_9">
     <g id="line2d_9">
      <g>
       <use style="stroke:#000000;stroke-width:0.8;" x="407.135579" xlink:href="#m55534cd084" y="277.733497"/>
      </g>
     </g>
     <g id="text_9">
      <!-- 2019-01 -->
      <g transform="translate(394.314297 319.651314)rotate(-45)scale(0.1 -0.1)">
       <use xlink:href="#DejaVuSans-50"/>
       <use x="63.623047" xlink:href="#DejaVuSans-48"/>
       <use x="127.246094" xlink:href="#DejaVuSans-49"/>
       <use x="190.869141" xlink:href="#DejaVuSans-57"/>
       <use x="254.492188" xlink:href="#DejaVuSans-45"/>
       <use x="290.576172" xlink:href="#DejaVuSans-48"/>
       <use x="354.199219" xlink:href="#DejaVuSans-49"/>
      </g>
     </g>
    </g>
    <g id="text_10">
     <!-- Days -->
     <defs>
      <path d="M 19.671875 64.796875 
L 19.671875 8.109375 
L 31.59375 8.109375 
Q 46.6875 8.109375 53.6875 14.9375 
Q 60.6875 21.78125 60.6875 36.53125 
Q 60.6875 51.171875 53.6875 57.984375 
Q 46.6875 64.796875 31.59375 64.796875 
z
M 9.8125 72.90625 
L 30.078125 72.90625 
Q 51.265625 72.90625 61.171875 64.09375 
Q 71.09375 55.28125 71.09375 36.53125 
Q 71.09375 17.671875 61.125 8.828125 
Q 51.171875 0 30.078125 0 
L 9.8125 0 
z
" id="DejaVuSans-68"/>
      <path d="M 34.28125 27.484375 
Q 23.390625 27.484375 19.1875 25 
Q 14.984375 22.515625 14.984375 16.5 
Q 14.984375 11.71875 18.140625 8.90625 
Q 21.296875 6.109375 26.703125 6.109375 
Q 34.1875 6.109375 38.703125 11.40625 
Q 43.21875 16.703125 43.21875 25.484375 
L 43.21875 27.484375 
z
M 52.203125 31.203125 
L 52.203125 0 
L 43.21875 0 
L 43.21875 8.296875 
Q 40.140625 3.328125 35.546875 0.953125 
Q 30.953125 -1.421875 24.3125 -1.421875 
Q 15.921875 -1.421875 10.953125 3.296875 
Q 6 8.015625 6 15.921875 
Q 6 25.140625 12.171875 29.828125 
Q 18.359375 34.515625 30.609375 34.515625 
L 43.21875 34.515625 
L 43.21875 35.40625 
Q 43.21875 41.609375 39.140625 45 
Q 35.0625 48.390625 27.6875 48.390625 
Q 23 48.390625 18.546875 47.265625 
Q 14.109375 46.140625 10.015625 43.890625 
L 10.015625 52.203125 
Q 14.9375 54.109375 19.578125 55.046875 
Q 24.21875 56 28.609375 56 
Q 40.484375 56 46.34375 49.84375 
Q 52.203125 43.703125 52.203125 31.203125 
z
" id="DejaVuSans-97"/>
      <path d="M 32.171875 -5.078125 
Q 28.375 -14.84375 24.75 -17.8125 
Q 21.140625 -20.796875 15.09375 -20.796875 
L 7.90625 -20.796875 
L 7.90625 -13.28125 
L 13.1875 -13.28125 
Q 16.890625 -13.28125 18.9375 -11.515625 
Q 21 -9.765625 23.484375 -3.21875 
L 25.09375 0.875 
L 2.984375 54.6875 
L 12.5 54.6875 
L 29.59375 11.921875 
L 46.6875 54.6875 
L 56.203125 54.6875 
z
" id="DejaVuSans-121"/>
      <path d="M 44.28125 53.078125 
L 44.28125 44.578125 
Q 40.484375 46.53125 36.375 47.5 
Q 32.28125 48.484375 27.875 48.484375 
Q 21.1875 48.484375 17.84375 46.4375 
Q 14.5 44.390625 14.5 40.28125 
Q 14.5 37.15625 16.890625 35.375 
Q 19.28125 33.59375 26.515625 31.984375 
L 29.59375 31.296875 
Q 39.15625 29.25 43.1875 25.515625 
Q 47.21875 21.78125 47.21875 15.09375 
Q 47.21875 7.46875 41.1875 3.015625 
Q 35.15625 -1.421875 24.609375 -1.421875 
Q 20.21875 -1.421875 15.453125 -0.5625 
Q 10.6875 0.296875 5.421875 2 
L 5.421875 11.28125 
Q 10.40625 8.6875 15.234375 7.390625 
Q 20.0625 6.109375 24.8125 6.109375 
Q 31.15625 6.109375 34.5625 8.28125 
Q 37.984375 10.453125 37.984375 14.40625 
Q 37.984375 18.0625 35.515625 20.015625 
Q 33.0625 21.96875 24.703125 23.78125 
L 21.578125 24.515625 
Q 13.234375 26.265625 9.515625 29.90625 
Q 5.8125 33.546875 5.8125 39.890625 
Q 5.8125 47.609375 11.28125 51.796875 
Q 16.75 56 26.8125 56 
Q 31.78125 56 36.171875 55.265625 
Q 40.578125 54.546875 44.28125 53.078125 
z
" id="DejaVuSans-115"/>
     </defs>
     <g transform="translate(240.244531 332.720312)scale(0.1 -0.1)">
      <use xlink:href="#DejaVuSans-68"/>
      <use x="77.001953" xlink:href="#DejaVuSans-97"/>
      <use x="138.28125" xlink:href="#DejaVuSans-121"/>
      <use x="197.460938" xlink:href="#DejaVuSans-115"/>
     </g>
    </g>
   </g>
   <g id="matplotlib.axis_2">
    <g id="ytick_1">
     <g id="line2d_10">
      <defs>
       <path d="M 0 0 
L -3.5 0 
" id="m61dcdcc961" style="stroke:#000000;stroke-width:0.8;"/>
      </defs>
      <g>
       <use style="stroke:#000000;stroke-width:0.8;" x="58.945313" xlink:href="#m61dcdcc961" y="240.601477"/>
      </g>
     </g>
     <g id="text_11">
      <!-- −100 -->
      <defs>
       <path d="M 10.59375 35.5 
L 73.1875 35.5 
L 73.1875 27.203125 
L 10.59375 27.203125 
z
" id="DejaVuSans-8722"/>
      </defs>
      <g transform="translate(24.478125 244.400695)scale(0.1 -0.1)">
       <use xlink:href="#DejaVuSans-8722"/>
       <use x="83.789062" xlink:href="#DejaVuSans-49"/>
       <use x="147.412109" xlink:href="#DejaVuSans-48"/>
       <use x="211.035156" xlink:href="#DejaVuSans-48"/>
      </g>
     </g>
    </g>
    <g id="ytick_2">
     <g id="line2d_11">
      <g>
       <use style="stroke:#000000;stroke-width:0.8;" x="58.945313" xlink:href="#m61dcdcc961" y="195.372323"/>
      </g>
     </g>
     <g id="text_12">
      <!-- −50 -->
      <g transform="translate(30.840625 199.171542)scale(0.1 -0.1)">
       <use xlink:href="#DejaVuSans-8722"/>
       <use x="83.789062" xlink:href="#DejaVuSans-53"/>
       <use x="147.412109" xlink:href="#DejaVuSans-48"/>
      </g>
     </g>
    </g>
    <g id="ytick_3">
     <g id="line2d_12">
      <g>
       <use style="stroke:#000000;stroke-width:0.8;" x="58.945313" xlink:href="#m61dcdcc961" y="150.14317"/>
      </g>
     </g>
     <g id="text_13">
      <!-- 0 -->
      <g transform="translate(45.582813 153.942389)scale(0.1 -0.1)">
       <use xlink:href="#DejaVuSans-48"/>
      </g>
     </g>
    </g>
    <g id="ytick_4">
     <g id="line2d_13">
      <g>
       <use style="stroke:#000000;stroke-width:0.8;" x="58.945313" xlink:href="#m61dcdcc961" y="104.914017"/>
      </g>
     </g>
     <g id="text_14">
      <!-- 50 -->
      <g transform="translate(39.220313 108.713235)scale(0.1 -0.1)">
       <use xlink:href="#DejaVuSans-53"/>
       <use x="63.623047" xlink:href="#DejaVuSans-48"/>
      </g>
     </g>
    </g>
    <g id="ytick_5">
     <g id="line2d_14">
      <g>
       <use style="stroke:#000000;stroke-width:0.8;" x="58.945313" xlink:href="#m61dcdcc961" y="59.684863"/>
      </g>
     </g>
     <g id="text_15">
      <!-- 100 -->
      <g transform="translate(32.857813 63.484082)scale(0.1 -0.1)">
       <use xlink:href="#DejaVuSans-49"/>
       <use x="63.623047" xlink:href="#DejaVuSans-48"/>
       <use x="127.246094" xlink:href="#DejaVuSans-48"/>
      </g>
     </g>
    </g>
    <g id="text_16">
     <!-- MACD and Signal units -->
     <defs>
      <path d="M 9.8125 72.90625 
L 24.515625 72.90625 
L 43.109375 23.296875 
L 61.8125 72.90625 
L 76.515625 72.90625 
L 76.515625 0 
L 66.890625 0 
L 66.890625 64.015625 
L 48.09375 14.015625 
L 38.1875 14.015625 
L 19.390625 64.015625 
L 19.390625 0 
L 9.8125 0 
z
" id="DejaVuSans-77"/>
      <path d="M 34.1875 63.1875 
L 20.796875 26.90625 
L 47.609375 26.90625 
z
M 28.609375 72.90625 
L 39.796875 72.90625 
L 67.578125 0 
L 57.328125 0 
L 50.6875 18.703125 
L 17.828125 18.703125 
L 11.1875 0 
L 0.78125 0 
z
" id="DejaVuSans-65"/>
      <path d="M 64.40625 67.28125 
L 64.40625 56.890625 
Q 59.421875 61.53125 53.78125 63.8125 
Q 48.140625 66.109375 41.796875 66.109375 
Q 29.296875 66.109375 22.65625 58.46875 
Q 16.015625 50.828125 16.015625 36.375 
Q 16.015625 21.96875 22.65625 14.328125 
Q 29.296875 6.6875 41.796875 6.6875 
Q 48.140625 6.6875 53.78125 8.984375 
Q 59.421875 11.28125 64.40625 15.921875 
L 64.40625 5.609375 
Q 59.234375 2.09375 53.4375 0.328125 
Q 47.65625 -1.421875 41.21875 -1.421875 
Q 24.65625 -1.421875 15.125 8.703125 
Q 5.609375 18.84375 5.609375 36.375 
Q 5.609375 53.953125 15.125 64.078125 
Q 24.65625 74.21875 41.21875 74.21875 
Q 47.75 74.21875 53.53125 72.484375 
Q 59.328125 70.75 64.40625 67.28125 
z
" id="DejaVuSans-67"/>
      <path id="DejaVuSans-32"/>
      <path d="M 54.890625 33.015625 
L 54.890625 0 
L 45.90625 0 
L 45.90625 32.71875 
Q 45.90625 40.484375 42.875 44.328125 
Q 39.84375 48.1875 33.796875 48.1875 
Q 26.515625 48.1875 22.3125 43.546875 
Q 18.109375 38.921875 18.109375 30.90625 
L 18.109375 0 
L 9.078125 0 
L 9.078125 54.6875 
L 18.109375 54.6875 
L 18.109375 46.1875 
Q 21.34375 51.125 25.703125 53.5625 
Q 30.078125 56 35.796875 56 
Q 45.21875 56 50.046875 50.171875 
Q 54.890625 44.34375 54.890625 33.015625 
z
" id="DejaVuSans-110"/>
      <path d="M 45.40625 46.390625 
L 45.40625 75.984375 
L 54.390625 75.984375 
L 54.390625 0 
L 45.40625 0 
L 45.40625 8.203125 
Q 42.578125 3.328125 38.25 0.953125 
Q 33.9375 -1.421875 27.875 -1.421875 
Q 17.96875 -1.421875 11.734375 6.484375 
Q 5.515625 14.40625 5.515625 27.296875 
Q 5.515625 40.1875 11.734375 48.09375 
Q 17.96875 56 27.875 56 
Q 33.9375 56 38.25 53.625 
Q 42.578125 51.265625 45.40625 46.390625 
z
M 14.796875 27.296875 
Q 14.796875 17.390625 18.875 11.75 
Q 22.953125 6.109375 30.078125 6.109375 
Q 37.203125 6.109375 41.296875 11.75 
Q 45.40625 17.390625 45.40625 27.296875 
Q 45.40625 37.203125 41.296875 42.84375 
Q 37.203125 48.484375 30.078125 48.484375 
Q 22.953125 48.484375 18.875 42.84375 
Q 14.796875 37.203125 14.796875 27.296875 
z
" id="DejaVuSans-100"/>
      <path d="M 53.515625 70.515625 
L 53.515625 60.890625 
Q 47.90625 63.578125 42.921875 64.890625 
Q 37.9375 66.21875 33.296875 66.21875 
Q 25.25 66.21875 20.875 63.09375 
Q 16.5 59.96875 16.5 54.203125 
Q 16.5 49.359375 19.40625 46.890625 
Q 22.3125 44.4375 30.421875 42.921875 
L 36.375 41.703125 
Q 47.40625 39.59375 52.65625 34.296875 
Q 57.90625 29 57.90625 20.125 
Q 57.90625 9.515625 50.796875 4.046875 
Q 43.703125 -1.421875 29.984375 -1.421875 
Q 24.8125 -1.421875 18.96875 -0.25 
Q 13.140625 0.921875 6.890625 3.21875 
L 6.890625 13.375 
Q 12.890625 10.015625 18.65625 8.296875 
Q 24.421875 6.59375 29.984375 6.59375 
Q 38.421875 6.59375 43.015625 9.90625 
Q 47.609375 13.234375 47.609375 19.390625 
Q 47.609375 24.75 44.3125 27.78125 
Q 41.015625 30.8125 33.5 32.328125 
L 27.484375 33.5 
Q 16.453125 35.6875 11.515625 40.375 
Q 6.59375 45.0625 6.59375 53.421875 
Q 6.59375 63.09375 13.40625 68.65625 
Q 20.21875 74.21875 32.171875 74.21875 
Q 37.3125 74.21875 42.625 73.28125 
Q 47.953125 72.359375 53.515625 70.515625 
z
" id="DejaVuSans-83"/>
      <path d="M 9.421875 54.6875 
L 18.40625 54.6875 
L 18.40625 0 
L 9.421875 0 
z
M 9.421875 75.984375 
L 18.40625 75.984375 
L 18.40625 64.59375 
L 9.421875 64.59375 
z
" id="DejaVuSans-105"/>
      <path d="M 45.40625 27.984375 
Q 45.40625 37.75 41.375 43.109375 
Q 37.359375 48.484375 30.078125 48.484375 
Q 22.859375 48.484375 18.828125 43.109375 
Q 14.796875 37.75 14.796875 27.984375 
Q 14.796875 18.265625 18.828125 12.890625 
Q 22.859375 7.515625 30.078125 7.515625 
Q 37.359375 7.515625 41.375 12.890625 
Q 45.40625 18.265625 45.40625 27.984375 
z
M 54.390625 6.78125 
Q 54.390625 -7.171875 48.1875 -13.984375 
Q 42 -20.796875 29.203125 -20.796875 
Q 24.46875 -20.796875 20.265625 -20.09375 
Q 16.0625 -19.390625 12.109375 -17.921875 
L 12.109375 -9.1875 
Q 16.0625 -11.328125 19.921875 -12.34375 
Q 23.78125 -13.375 27.78125 -13.375 
Q 36.625 -13.375 41.015625 -8.765625 
Q 45.40625 -4.15625 45.40625 5.171875 
L 45.40625 9.625 
Q 42.625 4.78125 38.28125 2.390625 
Q 33.9375 0 27.875 0 
Q 17.828125 0 11.671875 7.65625 
Q 5.515625 15.328125 5.515625 27.984375 
Q 5.515625 40.671875 11.671875 48.328125 
Q 17.828125 56 27.875 56 
Q 33.9375 56 38.28125 53.609375 
Q 42.625 51.21875 45.40625 46.390625 
L 45.40625 54.6875 
L 54.390625 54.6875 
z
" id="DejaVuSans-103"/>
      <path d="M 9.421875 75.984375 
L 18.40625 75.984375 
L 18.40625 0 
L 9.421875 0 
z
" id="DejaVuSans-108"/>
      <path d="M 8.5 21.578125 
L 8.5 54.6875 
L 17.484375 54.6875 
L 17.484375 21.921875 
Q 17.484375 14.15625 20.5 10.265625 
Q 23.53125 6.390625 29.59375 6.390625 
Q 36.859375 6.390625 41.078125 11.03125 
Q 45.3125 15.671875 45.3125 23.6875 
L 45.3125 54.6875 
L 54.296875 54.6875 
L 54.296875 0 
L 45.3125 0 
L 45.3125 8.40625 
Q 42.046875 3.421875 37.71875 1 
Q 33.40625 -1.421875 27.6875 -1.421875 
Q 18.265625 -1.421875 13.375 4.4375 
Q 8.5 10.296875 8.5 21.578125 
z
M 31.109375 56 
z
" id="DejaVuSans-117"/>
      <path d="M 18.3125 70.21875 
L 18.3125 54.6875 
L 36.8125 54.6875 
L 36.8125 47.703125 
L 18.3125 47.703125 
L 18.3125 18.015625 
Q 18.3125 11.328125 20.140625 9.421875 
Q 21.96875 7.515625 27.59375 7.515625 
L 36.8125 7.515625 
L 36.8125 0 
L 27.59375 0 
Q 17.1875 0 13.234375 3.875 
Q 9.28125 7.765625 9.28125 18.015625 
L 9.28125 47.703125 
L 2.6875 47.703125 
L 2.6875 54.6875 
L 9.28125 54.6875 
L 9.28125 70.21875 
z
" id="DejaVuSans-116"/>
     </defs>
     <g transform="translate(18.398438 208.725811)rotate(-90)scale(0.1 -0.1)">
      <use xlink:href="#DejaVuSans-77"/>
      <use x="86.279297" xlink:href="#DejaVuSans-65"/>
      <use x="154.671875" xlink:href="#DejaVuSans-67"/>
      <use x="224.496094" xlink:href="#DejaVuSans-68"/>
      <use x="301.498047" xlink:href="#DejaVuSans-32"/>
      <use x="333.285156" xlink:href="#DejaVuSans-97"/>
      <use x="394.564453" xlink:href="#DejaVuSans-110"/>
      <use x="457.943359" xlink:href="#DejaVuSans-100"/>
      <use x="521.419922" xlink:href="#DejaVuSans-32"/>
      <use x="553.207031" xlink:href="#DejaVuSans-83"/>
      <use x="616.683594" xlink:href="#DejaVuSans-105"/>
      <use x="644.466797" xlink:href="#DejaVuSans-103"/>
      <use x="707.943359" xlink:href="#DejaVuSans-110"/>
      <use x="771.322266" xlink:href="#DejaVuSans-97"/>
      <use x="832.601562" xlink:href="#DejaVuSans-108"/>
      <use x="860.384766" xlink:href="#DejaVuSans-32"/>
      <use x="892.171875" xlink:href="#DejaVuSans-117"/>
      <use x="955.550781" xlink:href="#DejaVuSans-110"/>
      <use x="1018.929688" xlink:href="#DejaVuSans-105"/>
      <use x="1046.712891" xlink:href="#DejaVuSans-116"/>
      <use x="1085.921875" xlink:href="#DejaVuSans-115"/>
     </g>
    </g>
   </g>
   <g id="line2d_15">
    <path clip-path="url(#p37d5545eee)" d="M 76.561435 150.14317 
L 77.230613 150.14317 
L 77.565202 144.145844 
L 77.899792 134.503671 
L 78.903559 130.843791 
L 79.572738 148.661201 
L 80.241916 169.565305 
L 81.245684 184.329022 
L 81.914862 180.998431 
L 82.249451 176.232553 
L 82.584041 174.173551 
L 83.587808 181.221618 
L 83.922397 191.301211 
L 84.256987 180.152382 
L 84.591576 175.6719 
L 84.926165 178.302682 
L 85.929933 176.442301 
L 86.264522 171.860006 
L 86.599111 156.960075 
L 86.9337 133.001436 
L 87.26829 128.742082 
L 88.272057 127.700446 
L 88.606646 146.265928 
L 88.941236 150.121087 
L 89.610414 144.621507 
L 90.614182 132.90791 
L 90.948771 123.416564 
L 91.617949 126.651878 
L 91.952539 144.378128 
L 93.290895 185.087113 
L 94.294663 135.622098 
L 95.298431 123.318981 
L 95.63302 132.397871 
L 95.967609 156.913737 
L 96.636788 168.211482 
L 97.640555 171.086015 
L 97.975144 177.400853 
L 98.644323 152.397802 
L 98.978912 133.816568 
L 99.98268 118.581691 
L 100.317269 178.360466 
L 100.651858 162.482055 
L 101.321037 147.995466 
L 102.324804 146.468619 
L 102.659393 143.711399 
L 102.993983 155.479347 
L 103.663161 163.960381 
L 104.666929 171.868388 
L 105.336107 154.847169 
L 105.670696 135.631044 
L 106.005286 128.195813 
L 107.009053 129.896892 
L 107.343642 129.028106 
L 107.678232 122.020511 
L 108.012821 111.974045 
L 108.34741 107.22853 
L 109.351178 109.579326 
L 109.685767 115.791083 
L 110.020356 124.520343 
L 110.354945 127.062184 
L 110.689535 138.175018 
L 111.693302 150.916939 
L 112.027891 157.988457 
L 112.362481 176.681842 
L 112.69707 175.587238 
L 113.031659 161.125431 
L 114.035427 162.038522 
L 114.370016 147.88827 
L 115.039194 134.790946 
L 115.373784 130.20154 
L 116.71214 129.13884 
L 117.04673 126.554767 
L 117.381319 131.999895 
L 117.715908 142.166185 
L 118.719676 159.033633 
L 119.054265 167.280147 
L 119.388854 182.022336 
L 119.723443 188.877091 
L 120.058033 191.19552 
L 121.0618 187.461761 
L 121.396389 184.069055 
L 121.730979 182.655503 
L 122.065568 175.883395 
L 122.400157 159.095055 
L 123.403925 149.3622 
L 123.738514 159.486716 
L 124.073103 156.419596 
L 124.407692 143.371467 
L 124.742282 136.471946 
L 125.746049 125.287412 
L 126.080638 131.21291 
L 126.415228 155.759358 
L 126.749817 168.870596 
L 127.084406 174.370925 
L 128.088174 171.391191 
L 128.422763 163.016052 
L 128.757352 159.316463 
L 129.426531 143.60495 
L 130.430298 137.004248 
L 130.764887 128.991598 
L 131.099477 134.731235 
L 131.768655 151.280276 
L 132.772423 155.249212 
L 133.441601 164.814987 
L 133.77619 158.62533 
L 134.11078 142.417868 
L 135.449136 129.552764 
L 135.783726 132.391323 
L 136.118315 130.749496 
L 136.452904 137.495803 
L 137.456672 142.691951 
L 138.12585 167.287162 
L 138.460439 169.949248 
L 138.795029 168.082588 
L 139.798796 153.094205 
L 140.133385 146.207233 
L 140.467975 142.425172 
L 140.802564 128.012531 
L 141.137153 122.515616 
L 142.140921 125.095842 
L 142.810099 122.670924 
L 143.144688 116.003962 
L 143.479278 123.15433 
L 144.483045 148.346742 
L 144.817634 161.265083 
L 145.152224 164.001141 
L 145.486813 167.75682 
L 146.82517 171.211134 
L 147.159759 154.559754 
L 147.494348 150.287196 
L 147.828937 164.641656 
L 148.163527 169.291318 
L 149.167294 167.538201 
L 149.501883 175.692954 
L 149.836473 177.872209 
L 150.505651 148.04322 
L 151.509419 130.739315 
L 151.844008 119.399047 
L 152.178597 124.775784 
L 152.513186 136.921884 
L 152.847776 140.667728 
L 153.851543 134.912451 
L 154.520722 145.493744 
L 155.1899 104.188282 
L 156.528257 89.301345 
L 156.862846 102.555526 
L 157.197435 123.414499 
L 157.532025 123.902595 
L 158.535792 124.777681 
L 159.204971 150.888628 
L 159.53956 153.447336 
L 159.874149 152.586702 
L 161.212506 161.760899 
L 161.547095 161.658009 
L 161.881684 167.370138 
L 162.216274 168.580097 
L 163.220041 168.819026 
L 163.554631 162.307811 
L 163.88922 160.769591 
L 164.223809 153.887414 
L 165.562166 138.561501 
L 165.896755 133.192721 
L 166.565933 131.604909 
L 166.900523 127.254556 
L 167.90429 127.339438 
L 168.23888 134.701013 
L 168.573469 146.507183 
L 168.908058 148.636727 
L 169.242647 155.742145 
L 170.246415 166.445454 
L 170.581004 167.530565 
L 171.250182 178.588614 
L 171.584772 169.656818 
L 172.923129 123.491037 
L 173.257718 120.989726 
L 173.592307 137.786983 
L 173.926896 141.193986 
L 174.930664 139.368523 
L 175.265253 146.64387 
L 175.599842 147.108035 
L 175.934431 144.536116 
L 176.269021 146.805213 
L 177.272788 146.929809 
L 177.607378 126.828326 
L 178.276556 107.483324 
L 178.611145 110.943717 
L 179.614913 116.782162 
L 179.949502 112.83231 
L 180.61868 141.497795 
L 180.95327 125.60684 
L 181.957037 126.942174 
L 182.291627 132.891422 
L 182.626216 158.981592 
L 183.295394 188.374192 
L 184.299162 165.856344 
L 184.633751 163.04648 
L 184.96834 167.960198 
L 185.637519 188.999225 
L 186.641286 181.625192 
L 186.975876 184.638382 
L 187.310465 181.206257 
L 187.645054 156.760222 
L 187.979643 143.960764 
L 188.983411 137.74577 
L 189.318 118.983356 
L 189.652589 111.152155 
L 189.987178 118.477186 
L 190.321768 147.279086 
L 191.325535 167.836614 
L 191.660125 167.380116 
L 191.994714 175.107505 
L 192.329303 180.023589 
L 192.663892 168.105987 
L 193.66766 169.2072 
L 194.336838 179.046001 
L 194.671427 166.012513 
L 195.006017 146.737777 
L 196.009784 134.658724 
L 196.344374 127.328694 
L 196.678963 125.586058 
L 197.013552 131.512403 
L 198.686498 143.838252 
L 199.021087 153.104651 
L 200.694033 129.357662 
L 201.028623 119.872608 
L 201.363212 122.343799 
L 201.697801 119.787189 
L 202.03239 99.151155 
L 203.370747 86.911546 
L 204.039925 88.056122 
L 204.374515 99.714679 
L 205.378282 107.620268 
L 205.712872 131.342012 
L 206.047461 138.356866 
L 206.38205 152.656573 
L 206.716639 149.33885 
L 207.720407 164.628218 
L 208.054996 179.255322 
L 208.389585 181.44912 
L 208.724175 182.633123 
L 209.058764 201.818386 
L 210.062531 219.389823 
L 210.397121 221.25844 
L 211.066299 178.386049 
L 211.400888 181.54652 
L 212.404656 163.407611 
L 212.739245 145.867894 
L 213.073834 147.901226 
L 213.408424 151.772267 
L 213.743013 162.392796 
L 214.74678 168.136671 
L 215.08137 162.009698 
L 215.415959 152.830811 
L 215.750548 161.694563 
L 216.085137 146.64573 
L 217.088905 138.234596 
L 217.423494 121.346686 
L 217.758083 120.675698 
L 218.427262 137.357188 
L 219.431029 143.376484 
L 219.765619 148.988792 
L 220.100208 143.22633 
L 220.434797 134.807045 
L 220.769386 147.934724 
L 221.773154 146.45409 
L 222.107743 149.494669 
L 222.442332 147.870666 
L 222.776922 138.083385 
L 223.111511 131.683039 
L 224.115278 135.214788 
L 224.449868 142.205684 
L 224.784457 155.468663 
L 225.119046 155.694698 
L 225.453635 164.441764 
L 226.457403 162.802661 
L 226.791992 165.394115 
L 227.126581 162.161242 
L 227.461171 160.245811 
L 227.79576 160.698599 
L 228.799527 142.806462 
L 229.134117 128.772775 
L 229.803295 116.619239 
L 230.137884 119.741303 
L 231.141652 120.046255 
L 232.14542 158.261557 
L 232.480009 160.799257 
L 233.483776 154.797008 
L 233.818366 160.316582 
L 234.152955 157.737225 
L 234.822133 139.50843 
L 235.825901 147.366768 
L 236.16049 151.592326 
L 236.829669 143.065118 
L 237.164258 128.108867 
L 238.168025 133.042798 
L 239.171793 159.50691 
L 239.506382 161.334288 
L 240.51015 162.078346 
L 240.844739 176.129767 
L 241.179328 174.906018 
L 241.848507 151.57212 
L 242.852274 143.786417 
L 243.186864 110.652491 
L 243.521453 96.991246 
L 243.856042 74.042208 
L 244.190631 81.545309 
L 245.194399 88.874969 
L 245.863577 119.264318 
L 246.198167 130.02286 
L 246.532756 144.963392 
L 247.536523 157.419033 
L 247.871113 176.129254 
L 248.205702 185.200941 
L 248.540291 176.013582 
L 248.87488 176.348121 
L 249.878648 178.201044 
L 250.213237 174.747631 
L 250.547826 173.047071 
L 250.882416 173.58961 
L 251.217005 167.223245 
L 252.220772 165.271706 
L 252.555362 178.787694 
L 252.889951 174.702829 
L 253.22454 181.67251 
L 253.559129 182.498925 
L 254.562897 185.837654 
L 254.897486 182.329714 
L 255.566665 145.052498 
L 255.901254 137.135015 
L 256.905021 144.872214 
L 257.239611 137.656677 
L 258.243378 104.33875 
L 259.247146 89.812157 
L 259.581735 99.257027 
L 259.916324 114.185246 
L 260.250914 124.09721 
L 260.585503 140.71239 
L 261.58927 163.714231 
L 261.92386 181.308732 
L 262.258449 190.879637 
L 262.593038 190.907695 
L 262.927627 196.3514 
L 263.931395 192.803366 
L 264.935163 160.014338 
L 265.269752 137.342853 
L 266.273519 122.904891 
L 266.942698 133.817554 
L 267.277287 126.835687 
L 267.611876 115.37094 
L 268.615644 129.292241 
L 269.284822 174.334305 
L 269.619412 178.188366 
L 269.954001 179.165365 
L 270.957768 191.178938 
L 271.292358 199.211725 
L 271.626947 184.606716 
L 272.296125 135.5034 
L 273.299893 129.813143 
L 273.634482 119.280388 
L 273.969071 126.918661 
L 274.303661 123.632997 
L 274.63825 126.113134 
L 275.642017 154.852249 
L 275.976607 178.38334 
L 276.311196 193.131671 
L 276.645785 190.324336 
L 276.980374 185.214152 
L 277.984142 180.928031 
L 278.318731 172.833742 
L 278.65332 159.668028 
L 278.98791 161.846774 
L 279.322499 147.044943 
L 280.326266 141.55068 
L 280.660856 126.739749 
L 280.995445 125.21444 
L 281.330034 105.655682 
L 281.664623 106.370069 
L 283.337569 108.874731 
L 283.672159 114.397775 
L 284.006748 128.690294 
L 285.679694 125.176255 
L 286.014283 125.452033 
L 286.348872 137.601545 
L 287.35264 141.571147 
L 287.687229 120.735874 
L 288.356408 111.109366 
L 288.690997 126.152302 
L 289.694764 143.976437 
L 290.029354 145.725005 
L 290.363943 149.90022 
L 290.698532 152.221723 
L 291.033121 135.321963 
L 292.036889 125.063746 
L 292.706067 134.943285 
L 293.040657 128.955897 
L 293.375246 131.221608 
L 294.379013 143.103763 
L 294.713603 162.083052 
L 295.048192 168.796237 
L 295.71737 191.222566 
L 296.721138 197.087198 
L 297.390316 225.296886 
L 297.724906 243.142326 
L 298.059495 247.796551 
L 299.063262 230.78618 
L 299.397852 230.16501 
L 299.732441 214.355138 
L 300.401619 158.443767 
L 301.739976 120.265029 
L 302.074565 131.059341 
L 302.409155 134.916433 
L 302.743744 132.006927 
L 303.747512 137.979801 
L 304.082101 129.720737 
L 304.41669 124.561639 
L 304.751279 123.6862 
L 305.085868 127.392367 
L 306.089636 152.461094 
L 306.758814 194.220915 
L 307.093404 176.513473 
L 307.427993 171.418264 
L 308.431761 149.47177 
L 308.76635 156.342408 
L 309.435528 121.984824 
L 309.770117 127.005682 
L 310.773885 134.772632 
L 311.108474 147.823088 
L 311.777653 187.62989 
L 312.112242 183.122477 
L 313.11601 157.420206 
L 313.450599 169.551649 
L 313.785188 168.497793 
L 314.119777 164.516753 
L 315.792723 167.554081 
L 316.127312 173.824445 
L 316.461902 172.932635 
L 316.796491 155.633928 
L 317.800259 150.321827 
L 318.804026 108.408276 
L 319.138615 108.387909 
L 320.142383 112.490784 
L 320.476972 100.050735 
L 320.811561 99.394243 
L 321.48074 116.504957 
L 322.819097 126.692359 
L 323.822864 174.75069 
L 324.826632 186.538889 
L 325.49581 175.649417 
L 326.164989 172.968174 
L 327.168757 163.827697 
L 327.503346 163.387544 
L 328.172524 192.581758 
L 328.507113 183.83214 
L 329.510881 151.00098 
L 330.180059 110.963649 
L 330.514649 113.832091 
L 330.849238 132.744963 
L 331.853006 146.608254 
L 332.522184 175.037483 
L 332.856773 162.912514 
L 334.19513 181.033488 
L 334.529719 181.427095 
L 334.864308 178.751385 
L 335.533487 175.96996 
L 336.537255 179.426623 
L 336.871844 188.685579 
L 337.541022 145.261523 
L 337.875611 115.267263 
L 338.879379 100.706404 
L 339.213968 101.758416 
L 339.548557 106.51391 
L 339.883147 121.835895 
L 340.217736 123.645975 
L 341.556093 143.930122 
L 341.890682 163.737569 
L 342.225271 200.945233 
L 342.55986 217.403249 
L 343.563628 202.821214 
L 344.567396 171.055029 
L 344.901985 164.628074 
L 345.905753 159.838492 
L 346.240342 167.468944 
L 346.574931 162.650115 
L 346.90952 153.679283 
L 347.244109 132.564119 
L 348.247877 119.347441 
L 348.582466 118.191592 
L 348.917056 118.406137 
L 349.251645 123.972735 
L 349.586234 120.604529 
L 350.924591 128.465483 
L 351.593769 149.850507 
L 351.928358 149.879746 
L 353.266715 160.535946 
L 354.270483 101.283262 
L 355.274251 91.633052 
L 355.60884 76.541148 
L 355.943429 87.127672 
L 356.278018 85.993005 
L 356.612607 104.489692 
L 357.616375 118.697676 
L 357.950964 144.413976 
L 358.285554 157.955273 
L 358.620143 165.773767 
L 358.954732 159.963225 
L 359.9585 166.732724 
L 360.293089 170.973808 
L 360.962267 202.364775 
L 361.296856 200.613079 
L 362.300624 198.211772 
L 362.635213 191.264569 
L 362.969803 201.927682 
L 363.304392 193.34642 
L 363.638981 169.049377 
L 364.642749 146.037051 
L 364.977338 123.853855 
L 365.311927 118.147357 
L 365.646516 93.596758 
L 365.981105 82.643402 
L 366.984873 87.671729 
L 367.654052 134.396526 
L 367.988641 138.431537 
L 368.32323 161.68253 
L 369.661587 195.906855 
L 369.996176 212.777446 
L 370.330765 212.084646 
L 370.665354 209.661844 
L 371.669122 219.411043 
L 372.003711 200.510752 
L 372.338301 189.586156 
L 372.67289 186.886522 
L 373.007479 165.02328 
L 374.011247 141.223624 
L 374.345836 126.069725 
L 374.680425 120.838876 
L 375.015014 109.429761 
L 375.349603 103.699864 
L 376.353371 101.112172 
L 376.68796 103.51073 
L 377.02255 115.853272 
L 377.357139 134.028293 
L 377.691728 137.408484 
L 378.695496 141.4228 
L 379.364674 165.240126 
L 379.699263 187.144054 
L 380.033852 178.638167 
L 381.03762 209.089336 
L 381.372209 213.936442 
L 381.706799 200.056918 
L 382.041388 193.64266 
L 382.375977 162.102036 
L 383.714334 154.930148 
L 384.048923 143.907657 
L 384.383512 147.968039 
L 384.718101 158.984664 
L 385.721869 172.028726 
L 386.056458 166.993164 
L 386.391048 182.150544 
L 387.060226 176.278981 
L 388.063994 157.041578 
L 389.067761 78.302469 
L 389.40235 78.16153 
L 390.740707 61.158832 
L 391.075297 72.469397 
L 391.744475 129.987792 
L 392.748243 134.374085 
L 393.082832 154.035208 
L 393.417421 180.699794 
L 394.0866 197.148634 
L 395.090367 174.081967 
L 395.424956 154.470569 
L 395.759546 148.510049 
L 396.094135 152.246549 
L 396.428724 149.385013 
L 397.432492 125.10056 
L 397.767081 105.389734 
L 398.10167 98.901528 
L 398.436259 97.971248 
L 398.770849 106.035192 
L 399.774616 109.54116 
L 401.112973 203.968006 
L 402.116741 184.514775 
L 402.45133 167.968474 
L 402.785919 161.381852 
L 403.120508 168.781035 
L 403.455098 152.666033 
L 405.462633 138.611465 
L 405.797222 143.543702 
L 407.470168 158.316269 
L 407.804757 175.237575 
L 408.139347 169.607262 
L 409.143114 156.483308 
L 409.477703 166.932602 
L 409.812293 155.070358 
L 410.146882 132.658969 
L 410.481471 124.895157 
L 411.485239 122.354903 
L 411.819828 119.692095 
L 412.154417 130.418027 
L 412.489006 132.188689 
L 412.823596 130.111666 
L 413.827363 129.457772 
L 414.161952 130.134525 
L 414.496542 129.405324 
L 414.831131 146.589869 
L 415.16572 151.920717 
L 416.504077 128.641708 
L 416.838666 136.459733 
L 417.173255 156.255259 
L 417.507845 164.526721 
L 418.511612 170.85097 
L 418.846201 167.504774 
L 419.180791 161.397406 
L 419.51538 158.389277 
L 419.849969 149.781165 
L 420.853737 147.124766 
L 421.188326 166.015128 
L 421.522915 176.269882 
L 421.857504 176.616133 
L 422.192094 168.059261 
L 423.195861 174.309071 
L 423.53045 187.649908 
L 423.86504 178.78921 
L 424.199629 177.446203 
L 424.534218 171.557583 
L 425.537986 147.836528 
L 425.872575 149.201533 
L 426.541753 127.817373 
L 426.876343 127.602854 
L 428.214699 145.839424 
L 428.549289 147.716404 
L 428.883878 154.908027 
L 428.883878 154.908027 
" style="fill:none;stroke:#008000;stroke-linecap:square;stroke-width:1.5;"/>
   </g>
   <g id="line2d_16">
    <path clip-path="url(#p37d5545eee)" d="M 76.561435 150.14317 
L 77.899792 150.14317 
L 78.903559 143.702495 
L 79.238148 131.862638 
L 79.572738 125.546415 
L 79.907327 134.159799 
L 80.241916 147.262375 
L 81.245684 162.959449 
L 81.914862 176.669211 
L 82.249451 194.643077 
L 82.584041 193.527488 
L 83.587808 185.741447 
L 83.922397 179.625642 
L 84.256987 184.281297 
L 84.591576 195.175458 
L 84.926165 184.833982 
L 85.929933 176.4148 
L 86.264522 176.922061 
L 86.599111 175.208753 
L 86.9337 170.154717 
L 87.26829 153.282995 
L 88.606646 114.049173 
L 88.941236 113.363408 
L 89.610414 136.160184 
L 90.614182 148.01224 
L 90.948771 145.775017 
L 91.617949 119.850548 
L 91.952539 119.214896 
L 92.956306 122.018157 
L 93.290895 142.469895 
L 93.625485 180.592522 
L 93.960074 199.728003 
L 94.294663 184.046118 
L 95.298431 165.505403 
L 95.967609 114.989723 
L 96.302198 120.7235 
L 96.636788 150.383446 
L 97.640555 165.269741 
L 97.975144 174.160143 
L 98.309734 178.809668 
L 98.644323 185.671995 
L 98.978912 172.384526 
L 99.98268 154.198187 
L 100.651858 106.998411 
L 100.986447 167.682258 
L 101.321037 167.559287 
L 102.324804 158.714471 
L 102.659393 148.654664 
L 103.328572 141.133824 
L 103.663161 153.489324 
L 104.666929 161.206929 
L 105.001518 167.304277 
L 105.336107 176.26722 
L 105.670696 169.784716 
L 106.005286 157.198691 
L 107.009053 132.964192 
L 107.343642 119.396172 
L 107.678232 119.378914 
L 108.012821 120.303562 
L 108.34741 114.787224 
L 109.351178 104.278515 
L 109.685767 98.385013 
L 110.020356 101.554093 
L 110.354945 110.834448 
L 110.689535 123.718286 
L 111.693302 129.876407 
L 112.69707 169.083815 
L 113.031659 189.445597 
L 114.035427 190.597549 
L 114.370016 172.15507 
L 114.704605 166.147207 
L 115.373784 135.047286 
L 116.71214 126.765689 
L 117.04673 121.216562 
L 117.381319 120.407284 
L 117.715908 119.239864 
L 118.719676 126.62018 
L 119.054265 140.725612 
L 119.388854 162.758522 
L 120.058033 194.123168 
L 121.0618 203.442954 
L 121.396389 205.293381 
L 122.400157 185.736134 
L 123.403925 176.123206 
L 124.073103 140.372048 
L 124.407692 149.188028 
L 124.742282 150.085987 
L 125.746049 137.711445 
L 126.080638 128.686469 
L 126.415228 116.227483 
L 126.749817 121.46507 
L 127.084406 151.242693 
L 128.088174 173.757807 
L 128.422763 184.371415 
L 128.757352 181.974756 
L 129.426531 162.3255 
L 130.430298 151.239672 
L 131.434066 120.189121 
L 131.768655 125.713128 
L 132.772423 139.38941 
L 133.107012 151.395977 
L 133.77619 164.891393 
L 134.11078 171.124418 
L 135.114547 164.803054 
L 135.783726 128.04586 
L 136.118315 121.654757 
L 136.452904 124.431547 
L 137.456672 124.846073 
L 138.12585 142.120955 
L 138.795029 174.592872 
L 139.798796 180.385725 
L 140.133385 177.752283 
L 140.802564 145.621901 
L 141.137153 138.112068 
L 142.140921 121.302174 
L 142.810099 112.395208 
L 143.144688 114.872492 
L 143.479278 114.948577 
L 144.483045 109.588417 
L 144.817634 117.589365 
L 145.486813 169.563565 
L 146.82517 176.380619 
L 147.159759 179.915218 
L 147.494348 182.047074 
L 147.828937 162.307472 
L 148.163527 151.150057 
L 149.167294 163.315582 
L 149.501883 171.034663 
L 149.836473 170.350937 
L 150.171062 178.489895 
L 150.505651 182.372229 
L 151.509419 163.671101 
L 152.513186 106.327559 
L 152.847776 110.374106 
L 153.851543 127.320982 
L 154.186132 137.561434 
L 154.520722 134.802236 
L 155.1899 147.989054 
L 156.193668 125.478929 
L 156.528257 99.060534 
L 156.862846 81.831092 
L 157.197435 75.206179 
L 157.532025 90.417355 
L 158.870381 127.819765 
L 159.204971 130.452073 
L 159.874149 161.513074 
L 161.212506 165.717601 
L 161.547095 163.252895 
L 161.881684 170.103065 
L 162.216274 169.540501 
L 163.554631 174.625709 
L 163.88922 173.697582 
L 164.223809 165.198048 
L 165.562166 160.796104 
L 165.896755 152.222965 
L 166.231344 133.881324 
L 166.565933 124.402825 
L 166.900523 122.851469 
L 167.90429 123.554407 
L 168.23888 120.781803 
L 168.573469 121.723383 
L 168.908058 131.228416 
L 169.242647 147.111583 
L 170.246415 153.426192 
L 170.581004 161.902709 
L 170.915593 174.281308 
L 171.250182 176.891197 
L 171.584772 181.616576 
L 172.588539 186.858945 
L 172.923129 176.668997 
L 173.257718 133.107693 
L 173.592307 112.004517 
L 173.926896 106.153063 
L 174.930664 125.385603 
L 175.265253 136.12642 
L 175.599842 138.163031 
L 175.934431 147.032852 
L 176.269021 150.020816 
L 177.272788 147.803992 
L 177.607378 149.337929 
L 177.941967 149.131044 
L 178.611145 109.440541 
L 179.614913 97.373854 
L 179.949502 100.046973 
L 180.284091 109.024969 
L 180.61868 108.722891 
L 180.95327 125.98224 
L 181.957037 145.363394 
L 182.291627 132.590587 
L 182.626216 129.868196 
L 182.960805 135.023634 
L 183.295394 163.697381 
L 184.299162 184.957845 
L 184.633751 203.972641 
L 184.96834 181.340233 
L 185.302929 169.557722 
L 185.637519 170.428186 
L 186.641286 182.115915 
L 186.975876 194.326029 
L 187.310465 188.08597 
L 187.645054 188.267194 
L 187.979643 183.899091 
L 188.983411 156.054785 
L 189.318 135.769993 
L 189.652589 125.473871 
L 189.987178 104.956358 
L 190.321768 94.194713 
L 191.325535 102.968965 
L 191.994714 172.291596 
L 192.663892 187.916302 
L 193.66766 192.884474 
L 194.002249 178.6882 
L 194.336838 174.140613 
L 194.671427 176.433093 
L 195.006017 181.584135 
L 196.009784 167.86426 
L 196.678963 125.176585 
L 197.013552 114.572603 
L 198.686498 112.596513 
L 199.021087 121.1959 
L 199.690266 154.166842 
L 200.694033 152.746867 
L 201.028623 147.181496 
L 201.697801 115.476392 
L 202.03239 115.221393 
L 203.370747 113.597623 
L 204.039925 92.096431 
L 204.374515 75.121048 
L 205.378282 74.692734 
L 206.047461 104.340972 
L 206.38205 134.388378 
L 206.716639 148.947174 
L 207.720407 166.012176 
L 208.054996 164.225065 
L 208.724175 193.505471 
L 209.058764 196.552087 
L 210.062531 195.125515 
L 210.73171 233.114376 
L 211.066299 237.203609 
L 211.400888 208.267646 
L 212.404656 179.241504 
L 212.739245 174.819554 
L 213.408424 132.902974 
L 213.743013 132.085764 
L 214.74678 139.058881 
L 215.415959 166.968304 
L 215.750548 164.249531 
L 216.085137 153.570483 
L 217.088905 160.445844 
L 217.758083 133.897861 
L 218.427262 113.34509 
L 219.431029 109.088683 
L 220.100208 141.217458 
L 220.434797 151.199062 
L 221.773154 136.736564 
L 222.107743 148.10017 
L 222.442332 149.217158 
L 222.776922 152.150988 
L 223.111511 150.366184 
L 224.115278 138.772238 
L 224.449868 128.893371 
L 224.784457 130.813435 
L 225.119046 139.667371 
L 225.453635 156.527748 
L 226.457403 160.626102 
L 226.791992 170.270103 
L 227.126581 169.788841 
L 227.461171 171.169435 
L 227.79576 166.856676 
L 229.134117 161.335509 
L 229.803295 121.622429 
L 230.137884 111.930005 
L 231.141652 104.804631 
L 231.81083 112.414113 
L 232.480009 149.123018 
L 233.818366 171.886591 
L 234.152955 164.813226 
L 234.487544 166.953858 
L 234.822133 163.170497 
L 235.825901 150.185288 
L 236.16049 137.323235 
L 236.829669 149.257853 
L 237.164258 146.818289 
L 238.168025 141.845505 
L 238.837204 124.971949 
L 239.171793 126.751635 
L 239.506382 148.472379 
L 240.844739 167.833371 
L 241.179328 168.619184 
L 241.513918 182.72803 
L 241.848507 183.575175 
L 242.852274 168.105565 
L 243.521453 139.070265 
L 243.856042 100.889168 
L 244.190631 78.716645 
L 245.194399 52.19878 
L 245.528988 58.080941 
L 245.863577 72.084806 
L 246.532756 120.331544 
L 247.536523 138.154212 
L 248.540291 194.417892 
L 248.87488 205.47591 
L 249.878648 193.806601 
L 250.213237 187.361833 
L 250.547826 185.045997 
L 251.217005 174.305812 
L 252.220772 173.191257 
L 252.555362 165.926423 
L 252.889951 162.172199 
L 253.22454 176.467625 
L 253.559129 176.165153 
L 254.897486 185.692036 
L 255.232075 189.342323 
L 255.566665 185.729909 
L 255.901254 162.718626 
L 256.905021 138.396932 
L 257.239611 125.05684 
L 257.5742 132.233267 
L 257.908789 128.752349 
L 258.243378 117.668422 
L 259.247146 102.014081 
L 259.581735 91.821918 
L 259.916324 76.498911 
L 260.250914 85.89673 
L 260.585503 107.041826 
L 261.58927 124.444375 
L 262.258449 176.212495 
L 262.593038 200.149539 
L 262.927627 212.700705 
L 263.931395 211.43354 
L 264.265984 212.641027 
L 264.935163 205.235704 
L 265.269752 188.634394 
L 266.273519 159.231058 
L 266.942698 105.511896 
L 267.277287 108.821152 
L 267.611876 119.723647 
L 268.615644 117.969616 
L 268.950233 107.413103 
L 269.284822 121.932466 
L 269.954001 184.104163 
L 270.957768 193.883073 
L 271.292358 194.376162 
L 271.961536 212.504913 
L 272.296125 196.000364 
L 273.299893 161.652993 
L 273.634482 127.043541 
L 274.303661 101.840292 
L 274.63825 110.633921 
L 275.642017 112.609655 
L 275.976607 118.241406 
L 276.980374 210.428494 
L 277.984142 209.938748 
L 278.65332 190.307868 
L 278.98791 176.750547 
L 279.322499 158.061859 
L 280.326266 155.591833 
L 280.660856 139.766637 
L 280.995445 131.314569 
L 281.330034 115.475448 
L 281.664623 112.497686 
L 283.337569 93.442214 
L 283.672159 92.251127 
L 284.006748 97.690789 
L 285.679694 107.478485 
L 286.014283 126.803886 
L 286.348872 128.628971 
L 287.35264 128.972798 
L 287.687229 141.664893 
L 288.021818 148.251203 
L 288.356408 126.197348 
L 288.690997 114.029864 
L 289.694764 106.315079 
L 290.029354 121.243944 
L 290.363943 144.808912 
L 290.698532 152.476389 
L 291.033121 157.592711 
L 292.036889 159.913074 
L 292.706067 124.252038 
L 293.040657 126.38996 
L 293.375246 131.718845 
L 294.379013 126.865655 
L 294.713603 128.54192 
L 295.048192 142.434501 
L 295.382781 166.4285 
L 295.71737 178.832836 
L 296.721138 192.071132 
L 297.055727 205.07697 
L 297.390316 211.625708 
L 298.059495 240.679136 
L 299.397852 266.287344 
L 299.732441 245.493203 
L 300.06703 236.559738 
L 300.401619 215.65077 
L 301.405387 182.09266 
L 302.074565 103.986494 
L 302.409155 89.871696 
L 302.743744 104.054507 
L 304.082101 121.849349 
L 304.41669 132.073934 
L 305.085868 122.140279 
L 306.089636 120.68683 
L 306.424225 125.000044 
L 307.427993 211.17744 
L 308.431761 195.031033 
L 308.76635 182.031531 
L 309.100939 153.063557 
L 309.435528 152.223114 
L 309.770117 132.679802 
L 310.773885 111.233447 
L 311.108474 113.080953 
L 311.443063 124.642311 
L 311.777653 143.724311 
L 312.112242 171.415294 
L 313.11601 199.032363 
L 313.450599 199.071781 
L 313.785188 168.411808 
L 314.119777 171.925873 
L 315.792723 170.792985 
L 316.127312 165.201273 
L 316.461902 166.596012 
L 316.796491 173.671029 
L 317.800259 174.269669 
L 318.134848 155.679818 
L 318.469437 145.740266 
L 319.138615 110.05414 
L 320.142383 93.893996 
L 320.476972 92.849957 
L 320.811561 100.087417 
L 321.146151 91.194951 
L 321.48074 90.538347 
L 322.484508 101.766282 
L 323.153686 126.806012 
L 323.488275 132.540411 
L 323.822864 150.147871 
L 324.826632 165.890925 
L 325.49581 188.94469 
L 326.164989 204.443922 
L 327.168757 192.788075 
L 327.503346 183.355562 
L 327.837935 168.820465 
L 328.172524 163.356523 
L 328.507113 177.429083 
L 329.510881 196.101136 
L 329.84547 190.408345 
L 330.514649 120.227663 
L 330.849238 94.082565 
L 331.853006 93.857503 
L 333.191362 184.246308 
L 334.19513 175.567035 
L 334.529719 176.53869 
L 334.864308 189.286089 
L 335.533487 190.883675 
L 336.537255 185.981682 
L 336.871844 180.004613 
L 337.206433 181.205952 
L 337.541022 190.838309 
L 337.875611 169.931111 
L 338.879379 140.549273 
L 339.213968 101.862069 
L 339.548557 79.229571 
L 339.883147 78.986554 
L 340.217736 88.61935 
L 341.556093 121.228335 
L 341.890682 140.827917 
L 342.225271 151.698141 
L 342.55986 174.553973 
L 343.563628 218.123379 
L 343.898217 242.925085 
L 344.232806 228.025745 
L 344.901985 187.216324 
L 345.905753 169.708205 
L 346.240342 158.059219 
L 346.574931 150.92084 
L 346.90952 158.69011 
L 347.244109 157.004212 
L 348.247877 148.486148 
L 348.917056 107.09982 
L 349.251645 103.916012 
L 349.586234 106.26581 
L 350.590002 115.316198 
L 350.924591 115.852156 
L 351.25918 124.031865 
L 351.593769 128.634479 
L 351.928358 140.416388 
L 352.932126 155.715665 
L 353.266715 158.371634 
L 353.601305 166.49987 
L 353.935894 169.025395 
L 354.270483 145.367289 
L 355.274251 120.687323 
L 355.60884 91.294892 
L 356.278018 58.216957 
L 356.612607 68.998602 
L 357.616375 74.197378 
L 358.285554 120.962898 
L 358.620143 154.482124 
L 358.954732 175.609906 
L 359.9585 186.022716 
L 360.293089 178.268466 
L 360.962267 179.819513 
L 361.296856 181.533159 
L 362.300624 213.093922 
L 362.635213 216.16979 
L 362.969803 210.983121 
L 363.304392 199.392344 
L 363.638981 206.263745 
L 364.642749 197.542978 
L 365.646516 106.282345 
L 365.981105 95.919829 
L 366.984873 71.593878 
L 367.319462 58.468569 
L 367.654052 65.76166 
L 368.32323 134.159008 
L 369.326998 147.828878 
L 369.996176 206.736527 
L 370.665354 236.651657 
L 371.669122 234.861102 
L 372.003711 226.646978 
L 372.338301 230.969741 
L 373.007479 189.60726 
L 374.011247 181.365854 
L 375.015014 105.713315 
L 375.349603 99.20214 
L 376.353371 89.752176 
L 376.68796 85.514401 
L 377.02255 85.952847 
L 377.357139 92.087723 
L 377.691728 109.579731 
L 379.699263 161.98327 
L 380.033852 176.857374 
L 381.03762 201.518938 
L 381.372209 195.349972 
L 381.706799 222.975443 
L 382.041388 231.768954 
L 382.375977 215.188478 
L 383.379745 200.993961 
L 383.714334 161.861205 
L 384.048923 145.538026 
L 384.383512 141.669098 
L 384.718101 131.237627 
L 385.721869 135.598914 
L 386.391048 170.818336 
L 387.060226 171.048213 
L 388.063994 187.044888 
L 388.398583 184.035423 
L 388.733172 161.011251 
L 389.40235 89.970404 
L 390.740707 55.768001 
L 391.075297 51.424158 
L 391.409886 37.364278 
L 392.748243 88.289276 
L 393.082832 133.10191 
L 393.417421 148.999763 
L 393.75201 171.952061 
L 394.0866 203.013714 
L 395.424956 221.401846 
L 396.428724 143.866546 
L 397.432492 144.102663 
L 397.767081 142.282663 
L 398.436259 91.14195 
L 398.770849 80.964683 
L 399.774616 81.268813 
L 400.443795 103.322779 
L 401.112973 170.297576 
L 402.116741 203.391644 
L 402.45133 228.989062 
L 402.785919 209.537366 
L 403.120508 181.821008 
L 403.455098 164.685428 
L 405.462633 167.032619 
L 405.797222 149.892323 
L 407.470168 130.601034 
L 407.804757 132.505887 
L 408.139347 151.001825 
L 409.143114 175.350989 
L 409.477703 175.852289 
L 409.812293 160.994939 
L 410.146882 167.779804 
L 410.481471 156.45853 
L 411.485239 129.404166 
L 411.819828 114.936512 
L 412.154417 110.328581 
L 412.489006 108.452013 
L 412.823596 121.832951 
L 413.827363 129.130017 
L 414.161952 129.619779 
L 414.496542 129.34017 
L 414.831131 130.465778 
L 415.16572 130.053167 
L 416.169488 148.206704 
L 416.504077 157.977448 
L 416.838666 140.032676 
L 417.173255 128.513775 
L 417.507845 134.124306 
L 418.511612 157.05644 
L 418.846201 171.252467 
L 419.180791 180.235626 
L 419.51538 177.00298 
L 419.849969 167.680837 
L 420.853737 160.936028 
L 421.188326 149.500447 
L 421.522915 143.536292 
L 422.192094 178.837994 
L 423.195861 182.751564 
L 423.53045 173.51138 
L 423.86504 177.103498 
L 424.199629 191.711893 
L 424.534218 184.853104 
L 425.537986 180.469183 
L 425.872575 172.275774 
L 426.207164 144.347276 
L 426.541753 139.577375 
L 426.876343 129.006283 
L 427.88011 116.640801 
L 428.214699 115.503579 
L 428.549289 132.361724 
L 428.883878 143.579304 
L 428.883878 143.579304 
" style="fill:none;stroke:#ffa500;stroke-linecap:square;stroke-width:1.5;"/>
   </g>
   <g id="patch_3">
    <path d="M 58.945313 277.733497 
L 58.945313 25.918125 
" style="fill:none;stroke:#000000;stroke-linecap:square;stroke-linejoin:miter;stroke-width:0.8;"/>
   </g>
   <g id="patch_4">
    <path d="M 446.5 277.733497 
L 446.5 25.918125 
" style="fill:none;stroke:#000000;stroke-linecap:square;stroke-linejoin:miter;stroke-width:0.8;"/>
   </g>
   <g id="patch_5">
    <path d="M 58.945312 277.733497 
L 446.5 277.733497 
" style="fill:none;stroke:#000000;stroke-linecap:square;stroke-linejoin:miter;stroke-width:0.8;"/>
   </g>
   <g id="patch_6">
    <path d="M 58.945312 25.918125 
L 446.5 25.918125 
" style="fill:none;stroke:#000000;stroke-linecap:square;stroke-linejoin:miter;stroke-width:0.8;"/>
   </g>
   <g id="text_17">
    <!-- MACD and Signal pointers from last 723 days -->
    <defs>
     <path d="M 18.109375 8.203125 
L 18.109375 -20.796875 
L 9.078125 -20.796875 
L 9.078125 54.6875 
L 18.109375 54.6875 
L 18.109375 46.390625 
Q 20.953125 51.265625 25.265625 53.625 
Q 29.59375 56 35.59375 56 
Q 45.5625 56 51.78125 48.09375 
Q 58.015625 40.1875 58.015625 27.296875 
Q 58.015625 14.40625 51.78125 6.484375 
Q 45.5625 -1.421875 35.59375 -1.421875 
Q 29.59375 -1.421875 25.265625 0.953125 
Q 20.953125 3.328125 18.109375 8.203125 
z
M 48.6875 27.296875 
Q 48.6875 37.203125 44.609375 42.84375 
Q 40.53125 48.484375 33.40625 48.484375 
Q 26.265625 48.484375 22.1875 42.84375 
Q 18.109375 37.203125 18.109375 27.296875 
Q 18.109375 17.390625 22.1875 11.75 
Q 26.265625 6.109375 33.40625 6.109375 
Q 40.53125 6.109375 44.609375 11.75 
Q 48.6875 17.390625 48.6875 27.296875 
z
" id="DejaVuSans-112"/>
     <path d="M 30.609375 48.390625 
Q 23.390625 48.390625 19.1875 42.75 
Q 14.984375 37.109375 14.984375 27.296875 
Q 14.984375 17.484375 19.15625 11.84375 
Q 23.34375 6.203125 30.609375 6.203125 
Q 37.796875 6.203125 41.984375 11.859375 
Q 46.1875 17.53125 46.1875 27.296875 
Q 46.1875 37.015625 41.984375 42.703125 
Q 37.796875 48.390625 30.609375 48.390625 
z
M 30.609375 56 
Q 42.328125 56 49.015625 48.375 
Q 55.71875 40.765625 55.71875 27.296875 
Q 55.71875 13.875 49.015625 6.21875 
Q 42.328125 -1.421875 30.609375 -1.421875 
Q 18.84375 -1.421875 12.171875 6.21875 
Q 5.515625 13.875 5.515625 27.296875 
Q 5.515625 40.765625 12.171875 48.375 
Q 18.84375 56 30.609375 56 
z
" id="DejaVuSans-111"/>
     <path d="M 56.203125 29.59375 
L 56.203125 25.203125 
L 14.890625 25.203125 
Q 15.484375 15.921875 20.484375 11.0625 
Q 25.484375 6.203125 34.421875 6.203125 
Q 39.59375 6.203125 44.453125 7.46875 
Q 49.3125 8.734375 54.109375 11.28125 
L 54.109375 2.78125 
Q 49.265625 0.734375 44.1875 -0.34375 
Q 39.109375 -1.421875 33.890625 -1.421875 
Q 20.796875 -1.421875 13.15625 6.1875 
Q 5.515625 13.8125 5.515625 26.8125 
Q 5.515625 40.234375 12.765625 48.109375 
Q 20.015625 56 32.328125 56 
Q 43.359375 56 49.78125 48.890625 
Q 56.203125 41.796875 56.203125 29.59375 
z
M 47.21875 32.234375 
Q 47.125 39.59375 43.09375 43.984375 
Q 39.0625 48.390625 32.421875 48.390625 
Q 24.90625 48.390625 20.390625 44.140625 
Q 15.875 39.890625 15.1875 32.171875 
z
" id="DejaVuSans-101"/>
     <path d="M 41.109375 46.296875 
Q 39.59375 47.171875 37.8125 47.578125 
Q 36.03125 48 33.890625 48 
Q 26.265625 48 22.1875 43.046875 
Q 18.109375 38.09375 18.109375 28.8125 
L 18.109375 0 
L 9.078125 0 
L 9.078125 54.6875 
L 18.109375 54.6875 
L 18.109375 46.1875 
Q 20.953125 51.171875 25.484375 53.578125 
Q 30.03125 56 36.53125 56 
Q 37.453125 56 38.578125 55.875 
Q 39.703125 55.765625 41.0625 55.515625 
z
" id="DejaVuSans-114"/>
     <path d="M 37.109375 75.984375 
L 37.109375 68.5 
L 28.515625 68.5 
Q 23.6875 68.5 21.796875 66.546875 
Q 19.921875 64.59375 19.921875 59.515625 
L 19.921875 54.6875 
L 34.71875 54.6875 
L 34.71875 47.703125 
L 19.921875 47.703125 
L 19.921875 0 
L 10.890625 0 
L 10.890625 47.703125 
L 2.296875 47.703125 
L 2.296875 54.6875 
L 10.890625 54.6875 
L 10.890625 58.5 
Q 10.890625 67.625 15.140625 71.796875 
Q 19.390625 75.984375 28.609375 75.984375 
z
" id="DejaVuSans-102"/>
     <path d="M 52 44.1875 
Q 55.375 50.25 60.0625 53.125 
Q 64.75 56 71.09375 56 
Q 79.640625 56 84.28125 50.015625 
Q 88.921875 44.046875 88.921875 33.015625 
L 88.921875 0 
L 79.890625 0 
L 79.890625 32.71875 
Q 79.890625 40.578125 77.09375 44.375 
Q 74.3125 48.1875 68.609375 48.1875 
Q 61.625 48.1875 57.5625 43.546875 
Q 53.515625 38.921875 53.515625 30.90625 
L 53.515625 0 
L 44.484375 0 
L 44.484375 32.71875 
Q 44.484375 40.625 41.703125 44.40625 
Q 38.921875 48.1875 33.109375 48.1875 
Q 26.21875 48.1875 22.15625 43.53125 
Q 18.109375 38.875 18.109375 30.90625 
L 18.109375 0 
L 9.078125 0 
L 9.078125 54.6875 
L 18.109375 54.6875 
L 18.109375 46.1875 
Q 21.1875 51.21875 25.484375 53.609375 
Q 29.78125 56 35.6875 56 
Q 41.65625 56 45.828125 52.96875 
Q 50 49.953125 52 44.1875 
z
" id="DejaVuSans-109"/>
     <path d="M 40.578125 39.3125 
Q 47.65625 37.796875 51.625 33 
Q 55.609375 28.21875 55.609375 21.1875 
Q 55.609375 10.40625 48.1875 4.484375 
Q 40.765625 -1.421875 27.09375 -1.421875 
Q 22.515625 -1.421875 17.65625 -0.515625 
Q 12.796875 0.390625 7.625 2.203125 
L 7.625 11.71875 
Q 11.71875 9.328125 16.59375 8.109375 
Q 21.484375 6.890625 26.8125 6.890625 
Q 36.078125 6.890625 40.9375 10.546875 
Q 45.796875 14.203125 45.796875 21.1875 
Q 45.796875 27.640625 41.28125 31.265625 
Q 36.765625 34.90625 28.71875 34.90625 
L 20.21875 34.90625 
L 20.21875 43.015625 
L 29.109375 43.015625 
Q 36.375 43.015625 40.234375 45.921875 
Q 44.09375 48.828125 44.09375 54.296875 
Q 44.09375 59.90625 40.109375 62.90625 
Q 36.140625 65.921875 28.71875 65.921875 
Q 24.65625 65.921875 20.015625 65.03125 
Q 15.375 64.15625 9.8125 62.3125 
L 9.8125 71.09375 
Q 15.4375 72.65625 20.34375 73.4375 
Q 25.25 74.21875 29.59375 74.21875 
Q 40.828125 74.21875 47.359375 69.109375 
Q 53.90625 64.015625 53.90625 55.328125 
Q 53.90625 49.265625 50.4375 45.09375 
Q 46.96875 40.921875 40.578125 39.3125 
z
" id="DejaVuSans-51"/>
    </defs>
    <g transform="translate(116.449531 19.918125)scale(0.12 -0.12)">
     <use xlink:href="#DejaVuSans-77"/>
     <use x="86.279297" xlink:href="#DejaVuSans-65"/>
     <use x="154.671875" xlink:href="#DejaVuSans-67"/>
     <use x="224.496094" xlink:href="#DejaVuSans-68"/>
     <use x="301.498047" xlink:href="#DejaVuSans-32"/>
     <use x="333.285156" xlink:href="#DejaVuSans-97"/>
     <use x="394.564453" xlink:href="#DejaVuSans-110"/>
     <use x="457.943359" xlink:href="#DejaVuSans-100"/>
     <use x="521.419922" xlink:href="#DejaVuSans-32"/>
     <use x="553.207031" xlink:href="#DejaVuSans-83"/>
     <use x="616.683594" xlink:href="#DejaVuSans-105"/>
     <use x="644.466797" xlink:href="#DejaVuSans-103"/>
     <use x="707.943359" xlink:href="#DejaVuSans-110"/>
     <use x="771.322266" xlink:href="#DejaVuSans-97"/>
     <use x="832.601562" xlink:href="#DejaVuSans-108"/>
     <use x="860.384766" xlink:href="#DejaVuSans-32"/>
     <use x="892.171875" xlink:href="#DejaVuSans-112"/>
     <use x="955.648438" xlink:href="#DejaVuSans-111"/>
     <use x="1016.830078" xlink:href="#DejaVuSans-105"/>
     <use x="1044.613281" xlink:href="#DejaVuSans-110"/>
     <use x="1107.992188" xlink:href="#DejaVuSans-116"/>
     <use x="1147.201172" xlink:href="#DejaVuSans-101"/>
     <use x="1208.724609" xlink:href="#DejaVuSans-114"/>
     <use x="1249.837891" xlink:href="#DejaVuSans-115"/>
     <use x="1301.9375" xlink:href="#DejaVuSans-32"/>
     <use x="1333.724609" xlink:href="#DejaVuSans-102"/>
     <use x="1368.929688" xlink:href="#DejaVuSans-114"/>
     <use x="1410.011719" xlink:href="#DejaVuSans-111"/>
     <use x="1471.193359" xlink:href="#DejaVuSans-109"/>
     <use x="1568.605469" xlink:href="#DejaVuSans-32"/>
     <use x="1600.392578" xlink:href="#DejaVuSans-108"/>
     <use x="1628.175781" xlink:href="#DejaVuSans-97"/>
     <use x="1689.455078" xlink:href="#DejaVuSans-115"/>
     <use x="1741.554688" xlink:href="#DejaVuSans-116"/>
     <use x="1780.763672" xlink:href="#DejaVuSans-32"/>
     <use x="1812.550781" xlink:href="#DejaVuSans-55"/>
     <use x="1876.173828" xlink:href="#DejaVuSans-50"/>
     <use x="1939.796875" xlink:href="#DejaVuSans-51"/>
     <use x="2003.419922" xlink:href="#DejaVuSans-32"/>
     <use x="2035.207031" xlink:href="#DejaVuSans-100"/>
     <use x="2098.683594" xlink:href="#DejaVuSans-97"/>
     <use x="2159.962891" xlink:href="#DejaVuSans-121"/>
     <use x="2219.142578" xlink:href="#DejaVuSans-115"/>
    </g>
   </g>
   <g id="legend_1">
    <g id="patch_7">
     <path d="M 65.945312 63.274375 
L 128.664062 63.274375 
Q 130.664062 63.274375 130.664062 61.274375 
L 130.664062 32.918125 
Q 130.664062 30.918125 128.664062 30.918125 
L 65.945312 30.918125 
Q 63.945312 30.918125 63.945312 32.918125 
L 63.945312 61.274375 
Q 63.945312 63.274375 65.945312 63.274375 
z
" style="fill:#ffffff;opacity:0.8;stroke:#cccccc;stroke-linejoin:miter;"/>
    </g>
    <g id="line2d_17">
     <path d="M 67.945312 39.016563 
L 87.945312 39.016563 
" style="fill:none;stroke:#008000;stroke-linecap:square;stroke-width:1.5;"/>
    </g>
    <g id="line2d_18"/>
    <g id="text_18">
     <!-- Macd -->
     <defs>
      <path d="M 48.78125 52.59375 
L 48.78125 44.1875 
Q 44.96875 46.296875 41.140625 47.34375 
Q 37.3125 48.390625 33.40625 48.390625 
Q 24.65625 48.390625 19.8125 42.84375 
Q 14.984375 37.3125 14.984375 27.296875 
Q 14.984375 17.28125 19.8125 11.734375 
Q 24.65625 6.203125 33.40625 6.203125 
Q 37.3125 6.203125 41.140625 7.25 
Q 44.96875 8.296875 48.78125 10.40625 
L 48.78125 2.09375 
Q 45.015625 0.34375 40.984375 -0.53125 
Q 36.96875 -1.421875 32.421875 -1.421875 
Q 20.0625 -1.421875 12.78125 6.34375 
Q 5.515625 14.109375 5.515625 27.296875 
Q 5.515625 40.671875 12.859375 48.328125 
Q 20.21875 56 33.015625 56 
Q 37.15625 56 41.109375 55.140625 
Q 45.0625 54.296875 48.78125 52.59375 
z
" id="DejaVuSans-99"/>
     </defs>
     <g transform="translate(95.945312 42.516563)scale(0.1 -0.1)">
      <use xlink:href="#DejaVuSans-77"/>
      <use x="86.279297" xlink:href="#DejaVuSans-97"/>
      <use x="147.558594" xlink:href="#DejaVuSans-99"/>
      <use x="202.539062" xlink:href="#DejaVuSans-100"/>
     </g>
    </g>
    <g id="line2d_19">
     <path d="M 67.945312 53.694688 
L 87.945312 53.694688 
" style="fill:none;stroke:#ffa500;stroke-linecap:square;stroke-width:1.5;"/>
    </g>
    <g id="line2d_20"/>
    <g id="text_19">
     <!-- Signal -->
     <g transform="translate(95.945312 57.194688)scale(0.1 -0.1)">
      <use xlink:href="#DejaVuSans-83"/>
      <use x="63.476562" xlink:href="#DejaVuSans-105"/>
      <use x="91.259766" xlink:href="#DejaVuSans-103"/>
      <use x="154.736328" xlink:href="#DejaVuSans-110"/>
      <use x="218.115234" xlink:href="#DejaVuSans-97"/>
      <use x="279.394531" xlink:href="#DejaVuSans-108"/>
     </g>
    </g>
   </g>
  </g>
 </g>
 <defs>
  <clipPath id="p37d5545eee">
   <rect height="251.815372" width="387.554687" x="58.945313" y="25.918125"/>
  </clipPath>
 </defs>
</svg>
