<?xml version="1.0" encoding="utf-8" standalone="no"?>
<!DOCTYPE svg PUBLIC "-//W3C//DTD SVG 1.1//EN"
  "http://www.w3.org/Graphics/SVG/1.1/DTD/svg11.dtd">
<!-- Created with matplotlib (https://matplotlib.org/) -->
<svg height="345.6pt" version="1.1" viewBox="0 0 460.8 345.6" width="460.8pt" xmlns="http://www.w3.org/2000/svg" xmlns:xlink="http://www.w3.org/1999/xlink">
 <defs>
  <style type="text/css">
*{stroke-linecap:butt;stroke-linejoin:round;}
  </style>
 </defs>
 <g id="figure_1">
  <g id="patch_1">
   <path d="M 0 345.6 
L 460.8 345.6 
L 460.8 0 
L 0 0 
z
" style="fill:#ffffff;"/>
  </g>
  <g id="axes_1">
   <g id="patch_2">
    <path d="M 75.110938 277.733497 
L 446.5 277.733497 
L 446.5 25.918125 
L 75.110938 25.918125 
z
" style="fill:#ffffff;"/>
   </g>
   <g id="matplotlib.axis_1">
    <g id="xtick_1">
     <g id="line2d_1">
      <defs>
       <path d="M 0 0 
L 0 3.5 
" id="mc4c6f8976d" style="stroke:#000000;stroke-width:0.8;"/>
      </defs>
      <g>
       <use style="stroke:#000000;stroke-width:0.8;" x="78.811648" xlink:href="#mc4c6f8976d" y="277.733497"/>
      </g>
     </g>
     <g id="text_1">
      <!-- 2016-05 -->
      <defs>
       <path d="M 19.1875 8.296875 
L 53.609375 8.296875 
L 53.609375 0 
L 7.328125 0 
L 7.328125 8.296875 
Q 12.9375 14.109375 22.625 23.890625 
Q 32.328125 33.6875 34.8125 36.53125 
Q 39.546875 41.84375 41.421875 45.53125 
Q 43.3125 49.21875 43.3125 52.78125 
Q 43.3125 58.59375 39.234375 62.25 
Q 35.15625 65.921875 28.609375 65.921875 
Q 23.96875 65.921875 18.8125 64.3125 
Q 13.671875 62.703125 7.8125 59.421875 
L 7.8125 69.390625 
Q 13.765625 71.78125 18.9375 73 
Q 24.125 74.21875 28.421875 74.21875 
Q 39.75 74.21875 46.484375 68.546875 
Q 53.21875 62.890625 53.21875 53.421875 
Q 53.21875 48.921875 51.53125 44.890625 
Q 49.859375 40.875 45.40625 35.40625 
Q 44.1875 33.984375 37.640625 27.21875 
Q 31.109375 20.453125 19.1875 8.296875 
z
" id="DejaVuSans-50"/>
       <path d="M 31.78125 66.40625 
Q 24.171875 66.40625 20.328125 58.90625 
Q 16.5 51.421875 16.5 36.375 
Q 16.5 21.390625 20.328125 13.890625 
Q 24.171875 6.390625 31.78125 6.390625 
Q 39.453125 6.390625 43.28125 13.890625 
Q 47.125 21.390625 47.125 36.375 
Q 47.125 51.421875 43.28125 58.90625 
Q 39.453125 66.40625 31.78125 66.40625 
z
M 31.78125 74.21875 
Q 44.046875 74.21875 50.515625 64.515625 
Q 56.984375 54.828125 56.984375 36.375 
Q 56.984375 17.96875 50.515625 8.265625 
Q 44.046875 -1.421875 31.78125 -1.421875 
Q 19.53125 -1.421875 13.0625 8.265625 
Q 6.59375 17.96875 6.59375 36.375 
Q 6.59375 54.828125 13.0625 64.515625 
Q 19.53125 74.21875 31.78125 74.21875 
z
" id="DejaVuSans-48"/>
       <path d="M 12.40625 8.296875 
L 28.515625 8.296875 
L 28.515625 63.921875 
L 10.984375 60.40625 
L 10.984375 69.390625 
L 28.421875 72.90625 
L 38.28125 72.90625 
L 38.28125 8.296875 
L 54.390625 8.296875 
L 54.390625 0 
L 12.40625 0 
z
" id="DejaVuSans-49"/>
       <path d="M 33.015625 40.375 
Q 26.375 40.375 22.484375 35.828125 
Q 18.609375 31.296875 18.609375 23.390625 
Q 18.609375 15.53125 22.484375 10.953125 
Q 26.375 6.390625 33.015625 6.390625 
Q 39.65625 6.390625 43.53125 10.953125 
Q 47.40625 15.53125 47.40625 23.390625 
Q 47.40625 31.296875 43.53125 35.828125 
Q 39.65625 40.375 33.015625 40.375 
z
M 52.59375 71.296875 
L 52.59375 62.3125 
Q 48.875 64.0625 45.09375 64.984375 
Q 41.3125 65.921875 37.59375 65.921875 
Q 27.828125 65.921875 22.671875 59.328125 
Q 17.53125 52.734375 16.796875 39.40625 
Q 19.671875 43.65625 24.015625 45.921875 
Q 28.375 48.1875 33.59375 48.1875 
Q 44.578125 48.1875 50.953125 41.515625 
Q 57.328125 34.859375 57.328125 23.390625 
Q 57.328125 12.15625 50.6875 5.359375 
Q 44.046875 -1.421875 33.015625 -1.421875 
Q 20.359375 -1.421875 13.671875 8.265625 
Q 6.984375 17.96875 6.984375 36.375 
Q 6.984375 53.65625 15.1875 63.9375 
Q 23.390625 74.21875 37.203125 74.21875 
Q 40.921875 74.21875 44.703125 73.484375 
Q 48.484375 72.75 52.59375 71.296875 
z
" id="DejaVuSans-54"/>
       <path d="M 4.890625 31.390625 
L 31.203125 31.390625 
L 31.203125 23.390625 
L 4.890625 23.390625 
z
" id="DejaVuSans-45"/>
       <path d="M 10.796875 72.90625 
L 49.515625 72.90625 
L 49.515625 64.59375 
L 19.828125 64.59375 
L 19.828125 46.734375 
Q 21.96875 47.46875 24.109375 47.828125 
Q 26.265625 48.1875 28.421875 48.1875 
Q 40.625 48.1875 47.75 41.5 
Q 54.890625 34.8125 54.890625 23.390625 
Q 54.890625 11.625 47.5625 5.09375 
Q 40.234375 -1.421875 26.90625 -1.421875 
Q 22.3125 -1.421875 17.546875 -0.640625 
Q 12.796875 0.140625 7.71875 1.703125 
L 7.71875 11.625 
Q 12.109375 9.234375 16.796875 8.0625 
Q 21.484375 6.890625 26.703125 6.890625 
Q 35.15625 6.890625 40.078125 11.328125 
Q 45.015625 15.765625 45.015625 23.390625 
Q 45.015625 31 40.078125 35.4375 
Q 35.15625 39.890625 26.703125 39.890625 
Q 22.75 39.890625 18.8125 39.015625 
Q 14.890625 38.140625 10.796875 36.28125 
z
" id="DejaVuSans-53"/>
      </defs>
      <g transform="translate(65.990365 319.651314)rotate(-45)scale(0.1 -0.1)">
       <use xlink:href="#DejaVuSans-50"/>
       <use x="63.623047" xlink:href="#DejaVuSans-48"/>
       <use x="127.246094" xlink:href="#DejaVuSans-49"/>
       <use x="190.869141" xlink:href="#DejaVuSans-54"/>
       <use x="254.492188" xlink:href="#DejaVuSans-45"/>
       <use x="290.576172" xlink:href="#DejaVuSans-48"/>
       <use x="354.199219" xlink:href="#DejaVuSans-53"/>
      </g>
     </g>
    </g>
    <g id="xtick_2">
     <g id="line2d_2">
      <g>
       <use style="stroke:#000000;stroke-width:0.8;" x="120.381267" xlink:href="#mc4c6f8976d" y="277.733497"/>
      </g>
     </g>
     <g id="text_2">
      <!-- 2016-09 -->
      <defs>
       <path d="M 10.984375 1.515625 
L 10.984375 10.5 
Q 14.703125 8.734375 18.5 7.8125 
Q 22.3125 6.890625 25.984375 6.890625 
Q 35.75 6.890625 40.890625 13.453125 
Q 46.046875 20.015625 46.78125 33.40625 
Q 43.953125 29.203125 39.59375 26.953125 
Q 35.25 24.703125 29.984375 24.703125 
Q 19.046875 24.703125 12.671875 31.3125 
Q 6.296875 37.9375 6.296875 49.421875 
Q 6.296875 60.640625 12.9375 67.421875 
Q 19.578125 74.21875 30.609375 74.21875 
Q 43.265625 74.21875 49.921875 64.515625 
Q 56.59375 54.828125 56.59375 36.375 
Q 56.59375 19.140625 48.40625 8.859375 
Q 40.234375 -1.421875 26.421875 -1.421875 
Q 22.703125 -1.421875 18.890625 -0.6875 
Q 15.09375 0.046875 10.984375 1.515625 
z
M 30.609375 32.421875 
Q 37.25 32.421875 41.125 36.953125 
Q 45.015625 41.5 45.015625 49.421875 
Q 45.015625 57.28125 41.125 61.84375 
Q 37.25 66.40625 30.609375 66.40625 
Q 23.96875 66.40625 20.09375 61.84375 
Q 16.21875 57.28125 16.21875 49.421875 
Q 16.21875 41.5 20.09375 36.953125 
Q 23.96875 32.421875 30.609375 32.421875 
z
" id="DejaVuSans-57"/>
      </defs>
      <g transform="translate(107.559985 319.651314)rotate(-45)scale(0.1 -0.1)">
       <use xlink:href="#DejaVuSans-50"/>
       <use x="63.623047" xlink:href="#DejaVuSans-48"/>
       <use x="127.246094" xlink:href="#DejaVuSans-49"/>
       <use x="190.869141" xlink:href="#DejaVuSans-54"/>
       <use x="254.492188" xlink:href="#DejaVuSans-45"/>
       <use x="290.576172" xlink:href="#DejaVuSans-48"/>
       <use x="354.199219" xlink:href="#DejaVuSans-57"/>
      </g>
     </g>
    </g>
    <g id="xtick_3">
     <g id="line2d_3">
      <g>
       <use style="stroke:#000000;stroke-width:0.8;" x="161.612922" xlink:href="#mc4c6f8976d" y="277.733497"/>
      </g>
     </g>
     <g id="text_3">
      <!-- 2017-01 -->
      <defs>
       <path d="M 8.203125 72.90625 
L 55.078125 72.90625 
L 55.078125 68.703125 
L 28.609375 0 
L 18.3125 0 
L 43.21875 64.59375 
L 8.203125 64.59375 
z
" id="DejaVuSans-55"/>
      </defs>
      <g transform="translate(148.79164 319.651314)rotate(-45)scale(0.1 -0.1)">
       <use xlink:href="#DejaVuSans-50"/>
       <use x="63.623047" xlink:href="#DejaVuSans-48"/>
       <use x="127.246094" xlink:href="#DejaVuSans-49"/>
       <use x="190.869141" xlink:href="#DejaVuSans-55"/>
       <use x="254.492188" xlink:href="#DejaVuSans-45"/>
       <use x="290.576172" xlink:href="#DejaVuSans-48"/>
       <use x="354.199219" xlink:href="#DejaVuSans-49"/>
      </g>
     </g>
    </g>
    <g id="xtick_4">
     <g id="line2d_4">
      <g>
       <use style="stroke:#000000;stroke-width:0.8;" x="202.168648" xlink:href="#mc4c6f8976d" y="277.733497"/>
      </g>
     </g>
     <g id="text_4">
      <!-- 2017-05 -->
      <g transform="translate(189.347366 319.651314)rotate(-45)scale(0.1 -0.1)">
       <use xlink:href="#DejaVuSans-50"/>
       <use x="63.623047" xlink:href="#DejaVuSans-48"/>
       <use x="127.246094" xlink:href="#DejaVuSans-49"/>
       <use x="190.869141" xlink:href="#DejaVuSans-55"/>
       <use x="254.492188" xlink:href="#DejaVuSans-45"/>
       <use x="290.576172" xlink:href="#DejaVuSans-48"/>
       <use x="354.199219" xlink:href="#DejaVuSans-53"/>
      </g>
     </g>
    </g>
    <g id="xtick_5">
     <g id="line2d_5">
      <g>
       <use style="stroke:#000000;stroke-width:0.8;" x="243.738267" xlink:href="#mc4c6f8976d" y="277.733497"/>
      </g>
     </g>
     <g id="text_5">
      <!-- 2017-09 -->
      <g transform="translate(230.916985 319.651314)rotate(-45)scale(0.1 -0.1)">
       <use xlink:href="#DejaVuSans-50"/>
       <use x="63.623047" xlink:href="#DejaVuSans-48"/>
       <use x="127.246094" xlink:href="#DejaVuSans-49"/>
       <use x="190.869141" xlink:href="#DejaVuSans-55"/>
       <use x="254.492188" xlink:href="#DejaVuSans-45"/>
       <use x="290.576172" xlink:href="#DejaVuSans-48"/>
       <use x="354.199219" xlink:href="#DejaVuSans-57"/>
      </g>
     </g>
    </g>
    <g id="xtick_6">
     <g id="line2d_6">
      <g>
       <use style="stroke:#000000;stroke-width:0.8;" x="284.969922" xlink:href="#mc4c6f8976d" y="277.733497"/>
      </g>
     </g>
     <g id="text_6">
      <!-- 2018-01 -->
      <defs>
       <path d="M 31.78125 34.625 
Q 24.75 34.625 20.71875 30.859375 
Q 16.703125 27.09375 16.703125 20.515625 
Q 16.703125 13.921875 20.71875 10.15625 
Q 24.75 6.390625 31.78125 6.390625 
Q 38.8125 6.390625 42.859375 10.171875 
Q 46.921875 13.96875 46.921875 20.515625 
Q 46.921875 27.09375 42.890625 30.859375 
Q 38.875 34.625 31.78125 34.625 
z
M 21.921875 38.8125 
Q 15.578125 40.375 12.03125 44.71875 
Q 8.5 49.078125 8.5 55.328125 
Q 8.5 64.0625 14.71875 69.140625 
Q 20.953125 74.21875 31.78125 74.21875 
Q 42.671875 74.21875 48.875 69.140625 
Q 55.078125 64.0625 55.078125 55.328125 
Q 55.078125 49.078125 51.53125 44.71875 
Q 48 40.375 41.703125 38.8125 
Q 48.828125 37.15625 52.796875 32.3125 
Q 56.78125 27.484375 56.78125 20.515625 
Q 56.78125 9.90625 50.3125 4.234375 
Q 43.84375 -1.421875 31.78125 -1.421875 
Q 19.734375 -1.421875 13.25 4.234375 
Q 6.78125 9.90625 6.78125 20.515625 
Q 6.78125 27.484375 10.78125 32.3125 
Q 14.796875 37.15625 21.921875 38.8125 
z
M 18.3125 54.390625 
Q 18.3125 48.734375 21.84375 45.5625 
Q 25.390625 42.390625 31.78125 42.390625 
Q 38.140625 42.390625 41.71875 45.5625 
Q 45.3125 48.734375 45.3125 54.390625 
Q 45.3125 60.0625 41.71875 63.234375 
Q 38.140625 66.40625 31.78125 66.40625 
Q 25.390625 66.40625 21.84375 63.234375 
Q 18.3125 60.0625 18.3125 54.390625 
z
" id="DejaVuSans-56"/>
      </defs>
      <g transform="translate(272.14864 319.651314)rotate(-45)scale(0.1 -0.1)">
       <use xlink:href="#DejaVuSans-50"/>
       <use x="63.623047" xlink:href="#DejaVuSans-48"/>
       <use x="127.246094" xlink:href="#DejaVuSans-49"/>
       <use x="190.869141" xlink:href="#DejaVuSans-56"/>
       <use x="254.492188" xlink:href="#DejaVuSans-45"/>
       <use x="290.576172" xlink:href="#DejaVuSans-48"/>
       <use x="354.199219" xlink:href="#DejaVuSans-49"/>
      </g>
     </g>
    </g>
    <g id="xtick_7">
     <g id="line2d_7">
      <g>
       <use style="stroke:#000000;stroke-width:0.8;" x="325.525648" xlink:href="#mc4c6f8976d" y="277.733497"/>
      </g>
     </g>
     <g id="text_7">
      <!-- 2018-05 -->
      <g transform="translate(312.704366 319.651314)rotate(-45)scale(0.1 -0.1)">
       <use xlink:href="#DejaVuSans-50"/>
       <use x="63.623047" xlink:href="#DejaVuSans-48"/>
       <use x="127.246094" xlink:href="#DejaVuSans-49"/>
       <use x="190.869141" xlink:href="#DejaVuSans-56"/>
       <use x="254.492188" xlink:href="#DejaVuSans-45"/>
       <use x="290.576172" xlink:href="#DejaVuSans-48"/>
       <use x="354.199219" xlink:href="#DejaVuSans-53"/>
      </g>
     </g>
    </g>
    <g id="xtick_8">
     <g id="line2d_8">
      <g>
       <use style="stroke:#000000;stroke-width:0.8;" x="367.095268" xlink:href="#mc4c6f8976d" y="277.733497"/>
      </g>
     </g>
     <g id="text_8">
      <!-- 2018-09 -->
      <g transform="translate(354.273986 319.651314)rotate(-45)scale(0.1 -0.1)">
       <use xlink:href="#DejaVuSans-50"/>
       <use x="63.623047" xlink:href="#DejaVuSans-48"/>
       <use x="127.246094" xlink:href="#DejaVuSans-49"/>
       <use x="190.869141" xlink:href="#DejaVuSans-56"/>
       <use x="254.492188" xlink:href="#DejaVuSans-45"/>
       <use x="290.576172" xlink:href="#DejaVuSans-48"/>
       <use x="354.199219" xlink:href="#DejaVuSans-57"/>
      </g>
     </g>
    </g>
    <g id="xtick_9">
     <g id="line2d_9">
      <g>
       <use style="stroke:#000000;stroke-width:0.8;" x="408.326923" xlink:href="#mc4c6f8976d" y="277.733497"/>
      </g>
     </g>
     <g id="text_9">
      <!-- 2019-01 -->
      <g transform="translate(395.50564 319.651314)rotate(-45)scale(0.1 -0.1)">
       <use xlink:href="#DejaVuSans-50"/>
       <use x="63.623047" xlink:href="#DejaVuSans-48"/>
       <use x="127.246094" xlink:href="#DejaVuSans-49"/>
       <use x="190.869141" xlink:href="#DejaVuSans-57"/>
       <use x="254.492188" xlink:href="#DejaVuSans-45"/>
       <use x="290.576172" xlink:href="#DejaVuSans-48"/>
       <use x="354.199219" xlink:href="#DejaVuSans-49"/>
      </g>
     </g>
    </g>
    <g id="text_10">
     <!-- Days -->
     <defs>
      <path d="M 19.671875 64.796875 
L 19.671875 8.109375 
L 31.59375 8.109375 
Q 46.6875 8.109375 53.6875 14.9375 
Q 60.6875 21.78125 60.6875 36.53125 
Q 60.6875 51.171875 53.6875 57.984375 
Q 46.6875 64.796875 31.59375 64.796875 
z
M 9.8125 72.90625 
L 30.078125 72.90625 
Q 51.265625 72.90625 61.171875 64.09375 
Q 71.09375 55.28125 71.09375 36.53125 
Q 71.09375 17.671875 61.125 8.828125 
Q 51.171875 0 30.078125 0 
L 9.8125 0 
z
" id="DejaVuSans-68"/>
      <path d="M 34.28125 27.484375 
Q 23.390625 27.484375 19.1875 25 
Q 14.984375 22.515625 14.984375 16.5 
Q 14.984375 11.71875 18.140625 8.90625 
Q 21.296875 6.109375 26.703125 6.109375 
Q 34.1875 6.109375 38.703125 11.40625 
Q 43.21875 16.703125 43.21875 25.484375 
L 43.21875 27.484375 
z
M 52.203125 31.203125 
L 52.203125 0 
L 43.21875 0 
L 43.21875 8.296875 
Q 40.140625 3.328125 35.546875 0.953125 
Q 30.953125 -1.421875 24.3125 -1.421875 
Q 15.921875 -1.421875 10.953125 3.296875 
Q 6 8.015625 6 15.921875 
Q 6 25.140625 12.171875 29.828125 
Q 18.359375 34.515625 30.609375 34.515625 
L 43.21875 34.515625 
L 43.21875 35.40625 
Q 43.21875 41.609375 39.140625 45 
Q 35.0625 48.390625 27.6875 48.390625 
Q 23 48.390625 18.546875 47.265625 
Q 14.109375 46.140625 10.015625 43.890625 
L 10.015625 52.203125 
Q 14.9375 54.109375 19.578125 55.046875 
Q 24.21875 56 28.609375 56 
Q 40.484375 56 46.34375 49.84375 
Q 52.203125 43.703125 52.203125 31.203125 
z
" id="DejaVuSans-97"/>
      <path d="M 32.171875 -5.078125 
Q 28.375 -14.84375 24.75 -17.8125 
Q 21.140625 -20.796875 15.09375 -20.796875 
L 7.90625 -20.796875 
L 7.90625 -13.28125 
L 13.1875 -13.28125 
Q 16.890625 -13.28125 18.9375 -11.515625 
Q 21 -9.765625 23.484375 -3.21875 
L 25.09375 0.875 
L 2.984375 54.6875 
L 12.5 54.6875 
L 29.59375 11.921875 
L 46.6875 54.6875 
L 56.203125 54.6875 
z
" id="DejaVuSans-121"/>
      <path d="M 44.28125 53.078125 
L 44.28125 44.578125 
Q 40.484375 46.53125 36.375 47.5 
Q 32.28125 48.484375 27.875 48.484375 
Q 21.1875 48.484375 17.84375 46.4375 
Q 14.5 44.390625 14.5 40.28125 
Q 14.5 37.15625 16.890625 35.375 
Q 19.28125 33.59375 26.515625 31.984375 
L 29.59375 31.296875 
Q 39.15625 29.25 43.1875 25.515625 
Q 47.21875 21.78125 47.21875 15.09375 
Q 47.21875 7.46875 41.1875 3.015625 
Q 35.15625 -1.421875 24.609375 -1.421875 
Q 20.21875 -1.421875 15.453125 -0.5625 
Q 10.6875 0.296875 5.421875 2 
L 5.421875 11.28125 
Q 10.40625 8.6875 15.234375 7.390625 
Q 20.0625 6.109375 24.8125 6.109375 
Q 31.15625 6.109375 34.5625 8.28125 
Q 37.984375 10.453125 37.984375 14.40625 
Q 37.984375 18.0625 35.515625 20.015625 
Q 33.0625 21.96875 24.703125 23.78125 
L 21.578125 24.515625 
Q 13.234375 26.265625 9.515625 29.90625 
Q 5.8125 33.546875 5.8125 39.890625 
Q 5.8125 47.609375 11.28125 51.796875 
Q 16.75 56 26.8125 56 
Q 31.78125 56 36.171875 55.265625 
Q 40.578125 54.546875 44.28125 53.078125 
z
" id="DejaVuSans-115"/>
     </defs>
     <g transform="translate(248.327344 332.720312)scale(0.1 -0.1)">
      <use xlink:href="#DejaVuSans-68"/>
      <use x="77.001953" xlink:href="#DejaVuSans-97"/>
      <use x="138.28125" xlink:href="#DejaVuSans-121"/>
      <use x="197.460938" xlink:href="#DejaVuSans-115"/>
     </g>
    </g>
   </g>
   <g id="matplotlib.axis_2">
    <g id="ytick_1">
     <g id="line2d_10">
      <defs>
       <path d="M 0 0 
L -3.5 0 
" id="ma8804f447f" style="stroke:#000000;stroke-width:0.8;"/>
      </defs>
      <g>
       <use style="stroke:#000000;stroke-width:0.8;" x="75.110938" xlink:href="#ma8804f447f" y="268.570136"/>
      </g>
     </g>
     <g id="text_11">
      <!-- 0 USD -->
      <defs>
       <path id="DejaVuSans-32"/>
       <path d="M 8.6875 72.90625 
L 18.609375 72.90625 
L 18.609375 28.609375 
Q 18.609375 16.890625 22.84375 11.734375 
Q 27.09375 6.59375 36.625 6.59375 
Q 46.09375 6.59375 50.34375 11.734375 
Q 54.59375 16.890625 54.59375 28.609375 
L 54.59375 72.90625 
L 64.5 72.90625 
L 64.5 27.390625 
Q 64.5 13.140625 57.4375 5.859375 
Q 50.390625 -1.421875 36.625 -1.421875 
Q 22.796875 -1.421875 15.734375 5.859375 
Q 8.6875 13.140625 8.6875 27.390625 
z
" id="DejaVuSans-85"/>
       <path d="M 53.515625 70.515625 
L 53.515625 60.890625 
Q 47.90625 63.578125 42.921875 64.890625 
Q 37.9375 66.21875 33.296875 66.21875 
Q 25.25 66.21875 20.875 63.09375 
Q 16.5 59.96875 16.5 54.203125 
Q 16.5 49.359375 19.40625 46.890625 
Q 22.3125 44.4375 30.421875 42.921875 
L 36.375 41.703125 
Q 47.40625 39.59375 52.65625 34.296875 
Q 57.90625 29 57.90625 20.125 
Q 57.90625 9.515625 50.796875 4.046875 
Q 43.703125 -1.421875 29.984375 -1.421875 
Q 24.8125 -1.421875 18.96875 -0.25 
Q 13.140625 0.921875 6.890625 3.21875 
L 6.890625 13.375 
Q 12.890625 10.015625 18.65625 8.296875 
Q 24.421875 6.59375 29.984375 6.59375 
Q 38.421875 6.59375 43.015625 9.90625 
Q 47.609375 13.234375 47.609375 19.390625 
Q 47.609375 24.75 44.3125 27.78125 
Q 41.015625 30.8125 33.5 32.328125 
L 27.484375 33.5 
Q 16.453125 35.6875 11.515625 40.375 
Q 6.59375 45.0625 6.59375 53.421875 
Q 6.59375 63.09375 13.40625 68.65625 
Q 20.21875 74.21875 32.171875 74.21875 
Q 37.3125 74.21875 42.625 73.28125 
Q 47.953125 72.359375 53.515625 70.515625 
z
" id="DejaVuSans-83"/>
      </defs>
      <g transform="translate(37.203125 272.369355)scale(0.1 -0.1)">
       <use xlink:href="#DejaVuSans-48"/>
       <use x="63.623047" xlink:href="#DejaVuSans-32"/>
       <use x="95.410156" xlink:href="#DejaVuSans-85"/>
       <use x="168.603516" xlink:href="#DejaVuSans-83"/>
       <use x="232.080078" xlink:href="#DejaVuSans-68"/>
      </g>
     </g>
    </g>
    <g id="ytick_2">
     <g id="line2d_11">
      <g>
       <use style="stroke:#000000;stroke-width:0.8;" x="75.110938" xlink:href="#ma8804f447f" y="236.051731"/>
      </g>
     </g>
     <g id="text_12">
      <!-- 50 USD -->
      <g transform="translate(30.840625 239.85095)scale(0.1 -0.1)">
       <use xlink:href="#DejaVuSans-53"/>
       <use x="63.623047" xlink:href="#DejaVuSans-48"/>
       <use x="127.246094" xlink:href="#DejaVuSans-32"/>
       <use x="159.033203" xlink:href="#DejaVuSans-85"/>
       <use x="232.226562" xlink:href="#DejaVuSans-83"/>
       <use x="295.703125" xlink:href="#DejaVuSans-68"/>
      </g>
     </g>
    </g>
    <g id="ytick_3">
     <g id="line2d_12">
      <g>
       <use style="stroke:#000000;stroke-width:0.8;" x="75.110938" xlink:href="#ma8804f447f" y="203.533326"/>
      </g>
     </g>
     <g id="text_13">
      <!-- 100 USD -->
      <g transform="translate(24.478125 207.332545)scale(0.1 -0.1)">
       <use xlink:href="#DejaVuSans-49"/>
       <use x="63.623047" xlink:href="#DejaVuSans-48"/>
       <use x="127.246094" xlink:href="#DejaVuSans-48"/>
       <use x="190.869141" xlink:href="#DejaVuSans-32"/>
       <use x="222.65625" xlink:href="#DejaVuSans-85"/>
       <use x="295.849609" xlink:href="#DejaVuSans-83"/>
       <use x="359.326172" xlink:href="#DejaVuSans-68"/>
      </g>
     </g>
    </g>
    <g id="ytick_4">
     <g id="line2d_13">
      <g>
       <use style="stroke:#000000;stroke-width:0.8;" x="75.110938" xlink:href="#ma8804f447f" y="171.014922"/>
      </g>
     </g>
     <g id="text_14">
      <!-- 150 USD -->
      <g transform="translate(24.478125 174.81414)scale(0.1 -0.1)">
       <use xlink:href="#DejaVuSans-49"/>
       <use x="63.623047" xlink:href="#DejaVuSans-53"/>
       <use x="127.246094" xlink:href="#DejaVuSans-48"/>
       <use x="190.869141" xlink:href="#DejaVuSans-32"/>
       <use x="222.65625" xlink:href="#DejaVuSans-85"/>
       <use x="295.849609" xlink:href="#DejaVuSans-83"/>
       <use x="359.326172" xlink:href="#DejaVuSans-68"/>
      </g>
     </g>
    </g>
    <g id="ytick_5">
     <g id="line2d_14">
      <g>
       <use style="stroke:#000000;stroke-width:0.8;" x="75.110938" xlink:href="#ma8804f447f" y="138.496517"/>
      </g>
     </g>
     <g id="text_15">
      <!-- 200 USD -->
      <g transform="translate(24.478125 142.295736)scale(0.1 -0.1)">
       <use xlink:href="#DejaVuSans-50"/>
       <use x="63.623047" xlink:href="#DejaVuSans-48"/>
       <use x="127.246094" xlink:href="#DejaVuSans-48"/>
       <use x="190.869141" xlink:href="#DejaVuSans-32"/>
       <use x="222.65625" xlink:href="#DejaVuSans-85"/>
       <use x="295.849609" xlink:href="#DejaVuSans-83"/>
       <use x="359.326172" xlink:href="#DejaVuSans-68"/>
      </g>
     </g>
    </g>
    <g id="ytick_6">
     <g id="line2d_15">
      <g>
       <use style="stroke:#000000;stroke-width:0.8;" x="75.110938" xlink:href="#ma8804f447f" y="105.978112"/>
      </g>
     </g>
     <g id="text_16">
      <!-- 250 USD -->
      <g transform="translate(24.478125 109.777331)scale(0.1 -0.1)">
       <use xlink:href="#DejaVuSans-50"/>
       <use x="63.623047" xlink:href="#DejaVuSans-53"/>
       <use x="127.246094" xlink:href="#DejaVuSans-48"/>
       <use x="190.869141" xlink:href="#DejaVuSans-32"/>
       <use x="222.65625" xlink:href="#DejaVuSans-85"/>
       <use x="295.849609" xlink:href="#DejaVuSans-83"/>
       <use x="359.326172" xlink:href="#DejaVuSans-68"/>
      </g>
     </g>
    </g>
    <g id="ytick_7">
     <g id="line2d_16">
      <g>
       <use style="stroke:#000000;stroke-width:0.8;" x="75.110938" xlink:href="#ma8804f447f" y="73.459708"/>
      </g>
     </g>
     <g id="text_17">
      <!-- 300 USD -->
      <defs>
       <path d="M 40.578125 39.3125 
Q 47.65625 37.796875 51.625 33 
Q 55.609375 28.21875 55.609375 21.1875 
Q 55.609375 10.40625 48.1875 4.484375 
Q 40.765625 -1.421875 27.09375 -1.421875 
Q 22.515625 -1.421875 17.65625 -0.515625 
Q 12.796875 0.390625 7.625 2.203125 
L 7.625 11.71875 
Q 11.71875 9.328125 16.59375 8.109375 
Q 21.484375 6.890625 26.8125 6.890625 
Q 36.078125 6.890625 40.9375 10.546875 
Q 45.796875 14.203125 45.796875 21.1875 
Q 45.796875 27.640625 41.28125 31.265625 
Q 36.765625 34.90625 28.71875 34.90625 
L 20.21875 34.90625 
L 20.21875 43.015625 
L 29.109375 43.015625 
Q 36.375 43.015625 40.234375 45.921875 
Q 44.09375 48.828125 44.09375 54.296875 
Q 44.09375 59.90625 40.109375 62.90625 
Q 36.140625 65.921875 28.71875 65.921875 
Q 24.65625 65.921875 20.015625 65.03125 
Q 15.375 64.15625 9.8125 62.3125 
L 9.8125 71.09375 
Q 15.4375 72.65625 20.34375 73.4375 
Q 25.25 74.21875 29.59375 74.21875 
Q 40.828125 74.21875 47.359375 69.109375 
Q 53.90625 64.015625 53.90625 55.328125 
Q 53.90625 49.265625 50.4375 45.09375 
Q 46.96875 40.921875 40.578125 39.3125 
z
" id="DejaVuSans-51"/>
      </defs>
      <g transform="translate(24.478125 77.258926)scale(0.1 -0.1)">
       <use xlink:href="#DejaVuSans-51"/>
       <use x="63.623047" xlink:href="#DejaVuSans-48"/>
       <use x="127.246094" xlink:href="#DejaVuSans-48"/>
       <use x="190.869141" xlink:href="#DejaVuSans-32"/>
       <use x="222.65625" xlink:href="#DejaVuSans-85"/>
       <use x="295.849609" xlink:href="#DejaVuSans-83"/>
       <use x="359.326172" xlink:href="#DejaVuSans-68"/>
      </g>
     </g>
    </g>
    <g id="ytick_8">
     <g id="line2d_17">
      <g>
       <use style="stroke:#000000;stroke-width:0.8;" x="75.110938" xlink:href="#ma8804f447f" y="40.941303"/>
      </g>
     </g>
     <g id="text_18">
      <!-- 350 USD -->
      <g transform="translate(24.478125 44.740522)scale(0.1 -0.1)">
       <use xlink:href="#DejaVuSans-51"/>
       <use x="63.623047" xlink:href="#DejaVuSans-53"/>
       <use x="127.246094" xlink:href="#DejaVuSans-48"/>
       <use x="190.869141" xlink:href="#DejaVuSans-32"/>
       <use x="222.65625" xlink:href="#DejaVuSans-85"/>
       <use x="295.849609" xlink:href="#DejaVuSans-83"/>
       <use x="359.326172" xlink:href="#DejaVuSans-68"/>
      </g>
     </g>
    </g>
    <g id="text_19">
     <!-- Price (USD) -->
     <defs>
      <path d="M 19.671875 64.796875 
L 19.671875 37.40625 
L 32.078125 37.40625 
Q 38.96875 37.40625 42.71875 40.96875 
Q 46.484375 44.53125 46.484375 51.125 
Q 46.484375 57.671875 42.71875 61.234375 
Q 38.96875 64.796875 32.078125 64.796875 
z
M 9.8125 72.90625 
L 32.078125 72.90625 
Q 44.34375 72.90625 50.609375 67.359375 
Q 56.890625 61.8125 56.890625 51.125 
Q 56.890625 40.328125 50.609375 34.8125 
Q 44.34375 29.296875 32.078125 29.296875 
L 19.671875 29.296875 
L 19.671875 0 
L 9.8125 0 
z
" id="DejaVuSans-80"/>
      <path d="M 41.109375 46.296875 
Q 39.59375 47.171875 37.8125 47.578125 
Q 36.03125 48 33.890625 48 
Q 26.265625 48 22.1875 43.046875 
Q 18.109375 38.09375 18.109375 28.8125 
L 18.109375 0 
L 9.078125 0 
L 9.078125 54.6875 
L 18.109375 54.6875 
L 18.109375 46.1875 
Q 20.953125 51.171875 25.484375 53.578125 
Q 30.03125 56 36.53125 56 
Q 37.453125 56 38.578125 55.875 
Q 39.703125 55.765625 41.0625 55.515625 
z
" id="DejaVuSans-114"/>
      <path d="M 9.421875 54.6875 
L 18.40625 54.6875 
L 18.40625 0 
L 9.421875 0 
z
M 9.421875 75.984375 
L 18.40625 75.984375 
L 18.40625 64.59375 
L 9.421875 64.59375 
z
" id="DejaVuSans-105"/>
      <path d="M 48.78125 52.59375 
L 48.78125 44.1875 
Q 44.96875 46.296875 41.140625 47.34375 
Q 37.3125 48.390625 33.40625 48.390625 
Q 24.65625 48.390625 19.8125 42.84375 
Q 14.984375 37.3125 14.984375 27.296875 
Q 14.984375 17.28125 19.8125 11.734375 
Q 24.65625 6.203125 33.40625 6.203125 
Q 37.3125 6.203125 41.140625 7.25 
Q 44.96875 8.296875 48.78125 10.40625 
L 48.78125 2.09375 
Q 45.015625 0.34375 40.984375 -0.53125 
Q 36.96875 -1.421875 32.421875 -1.421875 
Q 20.0625 -1.421875 12.78125 6.34375 
Q 5.515625 14.109375 5.515625 27.296875 
Q 5.515625 40.671875 12.859375 48.328125 
Q 20.21875 56 33.015625 56 
Q 37.15625 56 41.109375 55.140625 
Q 45.0625 54.296875 48.78125 52.59375 
z
" id="DejaVuSans-99"/>
      <path d="M 56.203125 29.59375 
L 56.203125 25.203125 
L 14.890625 25.203125 
Q 15.484375 15.921875 20.484375 11.0625 
Q 25.484375 6.203125 34.421875 6.203125 
Q 39.59375 6.203125 44.453125 7.46875 
Q 49.3125 8.734375 54.109375 11.28125 
L 54.109375 2.78125 
Q 49.265625 0.734375 44.1875 -0.34375 
Q 39.109375 -1.421875 33.890625 -1.421875 
Q 20.796875 -1.421875 13.15625 6.1875 
Q 5.515625 13.8125 5.515625 26.8125 
Q 5.515625 40.234375 12.765625 48.109375 
Q 20.015625 56 32.328125 56 
Q 43.359375 56 49.78125 48.890625 
Q 56.203125 41.796875 56.203125 29.59375 
z
M 47.21875 32.234375 
Q 47.125 39.59375 43.09375 43.984375 
Q 39.0625 48.390625 32.421875 48.390625 
Q 24.90625 48.390625 20.390625 44.140625 
Q 15.875 39.890625 15.1875 32.171875 
z
" id="DejaVuSans-101"/>
      <path d="M 31 75.875 
Q 24.46875 64.65625 21.28125 53.65625 
Q 18.109375 42.671875 18.109375 31.390625 
Q 18.109375 20.125 21.3125 9.0625 
Q 24.515625 -2 31 -13.1875 
L 23.1875 -13.1875 
Q 15.875 -1.703125 12.234375 9.375 
Q 8.59375 20.453125 8.59375 31.390625 
Q 8.59375 42.28125 12.203125 53.3125 
Q 15.828125 64.359375 23.1875 75.875 
z
" id="DejaVuSans-40"/>
      <path d="M 8.015625 75.875 
L 15.828125 75.875 
Q 23.140625 64.359375 26.78125 53.3125 
Q 30.421875 42.28125 30.421875 31.390625 
Q 30.421875 20.453125 26.78125 9.375 
Q 23.140625 -1.703125 15.828125 -13.1875 
L 8.015625 -13.1875 
Q 14.5 -2 17.703125 9.0625 
Q 20.90625 20.125 20.90625 31.390625 
Q 20.90625 42.671875 17.703125 53.65625 
Q 14.5 64.65625 8.015625 75.875 
z
" id="DejaVuSans-41"/>
     </defs>
     <g transform="translate(18.398438 180.284405)rotate(-90)scale(0.1 -0.1)">
      <use xlink:href="#DejaVuSans-80"/>
      <use x="60.287109" xlink:href="#DejaVuSans-114"/>
      <use x="101.400391" xlink:href="#DejaVuSans-105"/>
      <use x="129.183594" xlink:href="#DejaVuSans-99"/>
      <use x="184.164062" xlink:href="#DejaVuSans-101"/>
      <use x="245.6875" xlink:href="#DejaVuSans-32"/>
      <use x="277.474609" xlink:href="#DejaVuSans-40"/>
      <use x="316.488281" xlink:href="#DejaVuSans-85"/>
      <use x="389.681641" xlink:href="#DejaVuSans-83"/>
      <use x="453.158203" xlink:href="#DejaVuSans-68"/>
      <use x="530.160156" xlink:href="#DejaVuSans-41"/>
     </g>
    </g>
   </g>
   <g id="line2d_18">
    <path clip-path="url(#p92e6e746c4)" d="M 91.992259 265.46788 
L 93.344116 265.142696 
L 93.68208 265.227244 
L 94.020045 265.162207 
L 94.358009 264.869541 
L 95.709867 265.071156 
L 96.047831 265.376829 
L 96.385796 266.040204 
L 96.72376 265.994678 
L 97.061724 265.793064 
L 97.399689 265.780057 
L 97.737653 265.923138 
L 98.413582 265.884116 
L 98.751546 265.929641 
L 99.765439 265.539421 
L 100.103404 265.754042 
L 100.441368 265.649983 
L 101.117297 265.656487 
L 101.455261 265.903627 
L 101.793226 265.806071 
L 102.807119 265.897123 
L 103.145083 265.806071 
L 103.821012 265.858101 
L 105.848798 265.877612 
L 109.904371 266.040204 
L 110.5803 266.144263 
L 112.608086 266.144263 
L 112.94605 266.261329 
L 113.284015 266.144263 
L 114.635872 266.254825 
L 116.325694 266.228811 
L 117.001623 266.189789 
L 117.339587 265.994678 
L 118.015516 266.08573 
L 123.422946 265.955656 
L 124.436839 266.066219 
L 125.450733 266.079226 
L 128.492412 266.098737 
L 129.84427 266.053211 
L 133.561878 266.111744 
L 134.913735 266.020693 
L 137.279486 266.059715 
L 138.293379 266.046708 
L 141.335059 265.877612 
L 141.673023 266.059715 
L 143.024881 266.040204 
L 144.714703 266.111744 
L 145.390631 266.0337 
L 152.149919 266.0337 
L 152.487883 266.287344 
L 158.233278 266.176781 
L 158.571242 265.669494 
L 159.9231 265.747538 
L 160.599029 265.584946 
L 161.274957 265.734531 
L 162.288851 265.571939 
L 162.626815 265.604457 
L 163.302744 266.072722 
L 163.978672 265.968663 
L 164.316637 265.702013 
L 164.654601 265.584946 
L 164.992566 266.007686 
L 165.668494 266.001182 
L 166.682388 266.053211 
L 167.358316 266.046708 
L 169.048138 266.08573 
L 169.724067 266.170278 
L 170.399996 266.046708 
L 171.075925 266.072722 
L 171.413889 265.936145 
L 174.455568 265.988175 
L 174.793533 266.118248 
L 183.918571 266.040204 
L 185.270429 266.053211 
L 185.608393 265.728027 
L 185.946358 265.858101 
L 186.622286 265.773553 
L 187.298215 265.968663 
L 187.636179 266.007686 
L 188.312108 265.955656 
L 188.988037 265.96216 
L 189.326001 265.877612 
L 190.339895 265.884116 
L 191.015823 265.767049 
L 191.353788 263.510272 
L 191.691752 263.933011 
L 192.029716 263.633842 
L 192.367681 263.15257 
L 192.705645 262.97697 
L 193.04361 262.651786 
L 193.381574 260.505571 
L 193.719538 261.513642 
L 194.057503 262.059951 
L 194.395467 261.591686 
L 194.733432 262.489194 
L 195.071396 262.111981 
L 195.40936 262.209536 
L 195.747325 260.902296 
L 196.085289 261.266502 
L 196.423253 260.817748 
L 196.761218 260.863274 
L 197.099182 260.7332 
L 197.437147 260.986844 
L 197.775111 261.077895 
L 198.113075 261.66973 
L 198.789004 260.212906 
L 199.126969 258.547964 
L 199.464933 257.708989 
L 199.802897 258.034173 
L 200.140862 257.741507 
L 201.154755 258.48943 
L 201.492719 257.520382 
L 201.830684 257.617937 
L 202.168648 257.318768 
L 202.506612 257.383805 
L 202.844577 253.61167 
L 204.196434 248.603835 
L 204.534399 249.898068 
L 204.872363 246.457621 
L 205.548292 248.408725 
L 205.886256 250.489903 
L 206.224221 249.449314 
L 206.562185 249.449314 
L 206.900149 251.797143 
L 207.238114 253.143405 
L 207.576078 251.654062 
L 207.914043 249.624913 
L 208.252007 250.769561 
L 208.589971 250.880124 
L 209.2659 252.99382 
L 209.603864 248.610339 
L 209.941829 246.730775 
L 210.279793 250.87362 
L 210.955722 254.197001 
L 211.293686 253.728736 
L 211.631651 252.447511 
L 211.969615 253.175923 
L 212.30758 252.454014 
L 212.645544 251.335381 
L 212.983508 251.029708 
L 213.321473 251.387411 
L 213.659437 250.737043 
L 213.997401 249.059093 
L 214.335366 249.215181 
L 214.67333 250.294792 
L 215.011295 249.156648 
L 215.349259 249.377773 
L 215.687223 249.891564 
L 216.025188 247.010434 
L 216.363152 250.366333 
L 216.701117 249.007064 
L 217.039081 250.18423 
L 217.377045 249.989119 
L 217.71501 246.945397 
L 218.052974 239.069439 
L 218.390938 240.532767 
L 218.728903 237.872762 
L 219.066867 238.802788 
L 219.404832 240.110028 
L 219.742796 238.750759 
L 220.08076 239.153987 
L 220.418725 241.70343 
L 220.756689 242.451353 
L 221.094654 243.999229 
L 221.770582 241.781474 
L 222.108547 243.030181 
L 222.446511 243.316343 
L 222.784475 244.500013 
L 223.12244 242.295265 
L 223.460404 239.108461 
L 223.798369 233.066542 
L 224.474297 235.511926 
L 224.812262 238.854818 
L 225.150226 235.453392 
L 225.488191 237.222394 
L 225.826155 239.745822 
L 226.164119 240.318146 
L 226.502084 238.106894 
L 226.840048 239.193009 
L 227.178012 241.027047 
L 227.515977 243.609008 
L 227.853941 241.95057 
L 228.52987 240.298635 
L 228.867834 242.555412 
L 229.205799 239.401127 
L 229.543763 239.010906 
L 229.881728 237.996332 
L 230.219692 239.232031 
L 230.557656 239.238535 
L 230.895621 241.202646 
L 231.233585 241.189639 
L 231.571549 241.404261 
L 231.909514 242.26925 
L 232.247478 241.872526 
L 232.585443 242.555412 
L 232.923407 241.183135 
L 233.261371 240.526264 
L 233.599336 241.378246 
L 233.9373 240.877462 
L 234.275265 240.5913 
L 234.613229 238.484108 
L 234.951193 238.984891 
L 235.289158 238.653204 
L 235.627122 236.702099 
L 236.303051 238.328019 
L 236.641015 238.02885 
L 236.97898 238.731248 
L 237.316944 239.121469 
L 237.654908 238.978388 
L 237.992873 240.623819 
L 238.330837 240.012473 
L 238.668802 240.20108 
L 239.006766 238.315012 
L 239.34473 239.316579 
L 239.682695 238.854818 
L 240.020659 237.371978 
L 240.358623 238.490611 
L 240.696588 234.100627 
L 241.034552 236.272856 
L 241.372517 235.453392 
L 241.710481 235.056668 
L 242.048445 229.222866 
L 243.062339 226.003544 
L 243.400303 221.294879 
L 243.738267 211.903564 
L 244.076232 217.522744 
L 244.414196 217.509737 
L 244.75216 225.125547 
L 245.428089 215.81878 
L 245.766054 216.475651 
L 246.104018 221.151798 
L 246.441982 222.556593 
L 246.779947 224.858896 
L 247.117911 224.267061 
L 247.455876 225.684864 
L 247.79384 228.474943 
L 248.131804 239.303572 
L 248.469769 234.868061 
L 248.807733 234.868061 
L 249.145697 235.583466 
L 249.483662 231.954412 
L 249.821626 234.373781 
L 250.159591 235.076179 
L 250.497555 238.393056 
L 250.835519 237.677651 
L 251.173484 236.519996 
L 251.511448 237.807725 
L 251.849413 234.490848 
L 252.187377 234.620921 
L 252.525341 231.616221 
L 253.20127 234.178671 
L 253.539234 232.435685 
L 253.877199 232.884439 
L 254.553128 234.698966 
L 254.891092 235.245275 
L 255.904985 234.380285 
L 256.24295 233.899013 
L 256.580914 236.006205 
L 256.918878 235.596473 
L 257.256843 235.531437 
L 257.594807 229.222866 
L 257.932771 229.996804 
L 258.270736 226.9856 
L 258.6087 225.736893 
L 258.946665 226.439291 
L 259.284629 230.074848 
L 259.622593 229.222866 
L 259.960558 229.840716 
L 260.298522 229.561058 
L 261.312415 233.105564 
L 261.65038 232.383655 
L 261.988344 232.123508 
L 262.664273 232.825905 
L 263.002237 233.443755 
L 263.340202 231.603213 
L 264.01613 232.442188 
L 264.354095 234.198182 
L 264.692059 233.456762 
L 265.030024 232.260085 
L 265.367988 233.034023 
L 266.043917 233.203119 
L 266.381881 229.326925 
L 267.05781 226.744964 
L 267.395774 230.452062 
L 267.733739 228.448928 
L 268.071703 230.679691 
L 268.409667 228.897682 
L 269.085596 227.577435 
L 269.423561 222.491556 
L 269.761525 224.910926 
L 270.437454 221.80867 
L 270.775418 221.529012 
L 271.113382 223.050873 
L 271.451347 221.912729 
L 271.789311 221.502997 
L 272.127276 217.912965 
L 272.46524 211.051582 
L 272.803204 211.097107 
L 273.141169 209.542728 
L 273.479133 207.435535 
L 273.817098 214.147334 
L 274.155062 212.788064 
L 274.493026 204.938121 
L 275.168955 203.53983 
L 275.506919 201.309068 
L 276.182848 205.803111 
L 276.520813 207.721697 
L 277.196741 171.66529 
L 277.534706 174.526909 
L 278.210635 78.636638 
L 278.548599 76.483919 
L 278.886563 88.866928 
L 279.224528 76.353846 
L 279.562492 76.275801 
L 279.900456 64.679738 
L 280.238421 37.364278 
L 280.576385 46.924689 
L 280.91435 70.656621 
L 281.252314 69.147767 
L 281.590278 107.038212 
L 281.928243 93.621118 
L 282.266207 98.180199 
L 282.604172 98.733012 
L 282.942136 87.260518 
L 283.618065 107.636551 
L 283.956029 112.800474 
L 284.293993 133.950444 
L 284.631958 121.977167 
L 284.969922 123.206363 
L 285.307887 105.906572 
L 285.983815 113.938618 
L 286.32178 110.595726 
L 286.659744 87.767806 
L 286.997709 92.287864 
L 287.335673 104.176593 
L 287.673637 109.229953 
L 288.011602 106.472392 
L 288.349566 121.899123 
L 288.68753 115.759648 
L 289.025495 100.970278 
L 289.363459 115.577545 
L 289.701424 118.302588 
L 290.039388 150.333216 
L 290.377352 147.139909 
L 290.715317 146.522059 
L 291.053281 143.90758 
L 291.391246 132.090391 
L 291.72921 145.026213 
L 292.067174 151.803048 
L 292.405139 153.038748 
L 292.743103 151.269746 
L 293.081068 152.284321 
L 293.419032 154.515083 
L 293.756996 150.53483 
L 294.094961 141.04596 
L 294.770889 159.731035 
L 295.108854 161.584584 
L 295.446818 175.437425 
L 295.784783 182.721547 
L 296.122747 163.633244 
L 296.460711 172.660353 
L 296.798676 187.066006 
L 297.13664 176.341436 
L 297.474605 178.864865 
L 298.150533 162.163412 
L 298.826462 171.717319 
L 299.164426 163.607229 
L 299.502391 165.038039 
L 299.840355 130.711611 
L 300.516284 119.961026 
L 300.854248 119.700879 
L 301.192213 129.671022 
L 301.868142 119.64885 
L 302.54407 143.393789 
L 302.882035 134.457731 
L 303.219999 134.379687 
L 303.557963 126.705343 
L 303.895928 126.555759 
L 304.233892 128.76701 
L 304.571857 137.182773 
L 304.909821 132.474108 
L 305.247785 129.833614 
L 305.58575 132.044865 
L 305.923714 129.736059 
L 306.261679 131.992836 
L 306.937607 148.141476 
L 307.275572 154.443543 
L 307.613536 147.575656 
L 307.9515 153.780167 
L 308.289465 146.183868 
L 308.627429 153.181829 
L 308.965394 154.664668 
L 309.303358 164.4397 
L 309.641322 161.857739 
L 309.979287 162.013827 
L 310.317251 169.584112 
L 310.655216 168.712619 
L 311.331144 158.833527 
L 311.669109 158.963601 
L 312.007073 162.059353 
L 312.345037 158.814016 
L 312.683002 165.194127 
L 313.020966 164.543759 
L 313.696895 180.854991 
L 314.034859 183.02722 
L 314.372824 194.05096 
L 314.710788 191.644598 
L 315.048753 193.127437 
L 315.386717 193.842842 
L 315.724681 191.06577 
L 316.062646 181.420811 
L 316.40061 191.709634 
L 316.738574 191.534035 
L 317.076539 195.176096 
L 317.414503 193.179466 
L 317.752468 192.086848 
L 318.090432 193.914382 
L 318.428396 194.298099 
L 318.766361 191.599072 
L 319.104325 184.321453 
L 319.44229 186.922925 
L 319.780254 186.389623 
L 320.118218 182.292304 
L 320.456183 184.789718 
L 320.794147 182.591474 
L 321.80804 167.288313 
L 322.146005 171.990474 
L 322.483969 173.29121 
L 322.821933 169.389001 
L 323.159898 161.539059 
L 323.497862 174.27977 
L 323.835827 168.985773 
L 324.173791 173.824512 
L 324.511755 169.720689 
L 324.84972 168.764648 
L 325.187684 172.270132 
L 325.525648 172.296147 
L 325.863613 169.896289 
L 326.877506 152.277817 
L 327.891399 165.116083 
L 328.229364 166.657455 
L 328.567328 172.224606 
L 328.905292 179.853424 
L 329.243257 176.582073 
L 329.919185 172.692871 
L 330.25715 178.006379 
L 330.595114 178.058408 
L 330.933079 182.441889 
L 331.271043 180.068046 
L 331.609007 180.679392 
L 331.946972 177.681195 
L 332.622901 185.388057 
L 332.960865 191.618583 
L 333.298829 188.782978 
L 333.636794 191.150318 
L 334.312722 191.93076 
L 334.650687 196.444314 
L 334.988651 190.838141 
L 335.326616 192.37301 
L 335.66458 191.625087 
L 336.002544 190.265817 
L 336.340509 188.126106 
L 336.678473 187.000969 
L 337.016438 190.597505 
L 337.354402 188.971585 
L 337.692366 189.517894 
L 338.030331 189.452857 
L 338.368295 190.545476 
L 338.706259 192.275455 
L 339.044224 199.364467 
L 339.382188 199.05229 
L 340.058117 207.747712 
L 340.396081 203.006528 
L 340.734046 206.459983 
L 341.07201 205.718563 
L 341.409975 206.869715 
L 341.747939 204.287753 
L 342.085903 204.339783 
L 342.761832 205.673037 
L 343.099796 213.353885 
L 343.775725 216.150467 
L 344.11369 215.57164 
L 344.451654 219.272234 
L 344.789618 216.091934 
L 345.127583 220.423386 
L 345.465547 217.093501 
L 345.803512 215.747239 
L 346.141476 216.599221 
L 346.47944 212.918138 
L 346.817405 213.27584 
L 347.155369 213.015693 
L 347.493333 214.381466 
L 347.831298 214.51154 
L 348.169262 213.27584 
L 348.507227 215.122886 
L 348.845191 216.248023 
L 349.183155 219.226709 
L 349.52112 217.724358 
L 349.859084 218.491793 
L 350.535013 219.025094 
L 350.872977 217.405678 
L 351.548906 210.64185 
L 351.88687 212.430362 
L 352.224835 212.553932 
L 352.562799 215.311493 
L 352.900764 214.303422 
L 353.576692 215.636677 
L 353.914657 210.420725 
L 354.590586 214.199363 
L 354.92855 213.666061 
L 355.604479 213.887186 
L 355.942443 215.12939 
L 356.280407 217.334137 
L 356.956336 219.057613 
L 357.294301 218.127586 
L 357.632265 221.093265 
L 357.970229 220.026661 
L 358.308194 220.722555 
L 358.984123 228.156262 
L 359.322087 227.661983 
L 359.998016 232.494218 
L 360.33598 232.494218 
L 360.673944 231.837346 
L 361.011909 233.229134 
L 361.349873 233.216126 
L 361.687838 232.60478 
L 362.025802 228.370884 
L 362.363766 231.414607 
L 362.701731 230.991867 
L 363.039695 233.84048 
L 363.37766 231.876368 
L 363.715624 232.695832 
L 364.053588 231.323555 
L 364.391553 230.920327 
L 364.729517 230.933334 
L 365.067481 231.453629 
L 365.405446 229.079785 
L 365.74341 227.499391 
L 366.419339 229.385458 
L 366.757303 228.162766 
L 367.095268 225.320658 
L 367.433232 225.48325 
L 367.771197 226.029559 
L 368.109161 224.605253 
L 368.447125 231.004875 
L 368.78509 231.147956 
L 369.461018 234.068108 
L 369.798983 232.97549 
L 370.136947 233.196615 
L 370.474912 234.711973 
L 370.812876 234.978624 
L 371.15084 233.190112 
L 371.488805 232.032456 
L 371.826769 231.928397 
L 372.164734 231.635732 
L 372.502698 234.692462 
L 372.840662 233.450259 
L 373.178627 233.216126 
L 373.516591 231.726783 
L 373.854555 228.949712 
L 374.19252 229.1058 
L 374.530484 228.631031 
L 374.868449 230.874801 
L 375.544377 231.336562 
L 375.882342 227.382324 
L 376.220306 228.279832 
L 376.896235 228.754601 
L 377.572164 229.873234 
L 377.910128 231.128445 
L 378.586057 230.178907 
L 378.924021 230.900816 
L 379.261986 230.653676 
L 379.59995 229.762672 
L 380.275879 230.53661 
L 380.613843 235.225764 
L 380.951808 233.632362 
L 381.289772 233.391726 
L 381.627736 234.373781 
L 381.965701 232.097493 
L 382.641629 232.552751 
L 382.979594 233.775443 
L 383.317558 233.638866 
L 383.655523 233.287667 
L 384.331451 234.055101 
L 384.669416 233.892509 
L 385.345345 234.185175 
L 386.359238 234.718477 
L 386.697202 236.617551 
L 387.035166 236.487478 
L 387.711095 235.648503 
L 388.04906 234.913587 
L 388.387024 235.349334 
L 388.724988 233.014512 
L 389.062953 233.46977 
L 389.400917 231.869864 
L 390.076846 234.276226 
L 390.41481 234.562388 
L 390.752775 234.412804 
L 391.090739 235.102194 
L 391.428703 235.21926 
L 391.766668 235.772073 
L 392.104632 239.303572 
L 392.442597 239.505186 
L 392.780561 240.604308 
L 393.118525 240.942499 
L 393.45649 240.883966 
L 393.794454 244.408961 
L 394.132419 246.56168 
L 394.470383 245.703194 
L 394.808347 247.699824 
L 395.146312 247.283588 
L 395.484276 249.234692 
L 395.82224 248.051022 
L 396.160205 248.916012 
L 396.498169 247.992489 
L 396.836134 245.742216 
L 397.174098 246.412095 
L 397.512062 247.628283 
L 397.850027 246.054392 
L 398.187991 246.457621 
L 398.525956 248.369703 
L 398.86392 248.226622 
L 399.877813 252.024772 
L 400.215777 252.349956 
L 400.553742 251.634551 
L 401.229671 253.006827 
L 401.567635 252.460518 
L 401.905599 253.305997 
L 402.581528 252.876754 
L 402.919493 251.582521 
L 403.257457 249.137137 
L 403.595421 248.428236 
L 403.933386 249.091611 
L 404.27135 246.75679 
L 404.609314 248.207111 
L 405.285243 246.379576 
L 405.623208 246.535665 
L 405.961172 247.810386 
L 406.299136 248.06403 
L 406.637101 249.911075 
L 406.975065 246.802316 
L 407.31303 247.823394 
L 407.650994 247.192537 
L 407.988958 248.43474 
L 408.664887 246.269014 
L 409.002852 247.270581 
L 409.340816 247.016937 
L 409.67878 245.410528 
L 410.016745 242.503383 
L 410.354709 243.433409 
L 410.692673 242.451353 
L 411.030638 242.991159 
L 411.368602 246.444613 
L 411.706567 247.452684 
L 412.044531 247.309603 
L 412.382495 248.727405 
L 412.72046 247.238062 
L 413.058424 247.992489 
L 413.734353 247.543735 
L 414.072317 248.116059 
L 414.410282 247.179529 
L 414.748246 248.421732 
L 415.08621 248.213615 
L 415.424175 247.719335 
L 415.762139 247.563246 
L 416.100104 246.9519 
L 416.776032 246.847842 
L 417.451961 248.077037 
L 417.789926 248.13557 
L 418.12789 247.543735 
L 418.465854 247.732342 
L 418.803819 246.886864 
L 419.141783 245.722705 
L 419.479747 246.56168 
L 420.155676 245.963341 
L 420.493641 246.932389 
L 420.831605 246.685249 
L 421.169569 240.07751 
L 421.507534 239.082446 
L 421.845498 237.612615 
L 422.183463 240.27262 
L 422.521427 239.485675 
L 422.859391 241.040054 
L 423.197356 241.241669 
L 423.53532 240.383183 
L 424.211249 239.433645 
L 424.549213 236.812662 
L 424.887178 237.280927 
L 425.225142 234.386789 
L 425.563106 236.194812 
L 425.901071 235.765569 
L 426.239035 234.360774 
L 426.577 239.45966 
L 426.914964 238.334523 
L 427.252928 238.731248 
L 427.590893 238.568656 
L 427.928857 238.249975 
L 428.604786 236.331389 
L 428.94275 236.780143 
L 429.280715 238.119902 
L 429.618679 238.334523 
L 429.618679 238.334523 
" style="fill:none;stroke:#1f77b4;stroke-linecap:square;stroke-width:1.5;"/>
   </g>
   <g id="patch_3">
    <path d="M 75.110938 277.733497 
L 75.110938 25.918125 
" style="fill:none;stroke:#000000;stroke-linecap:square;stroke-linejoin:miter;stroke-width:0.8;"/>
   </g>
   <g id="patch_4">
    <path d="M 446.5 277.733497 
L 446.5 25.918125 
" style="fill:none;stroke:#000000;stroke-linecap:square;stroke-linejoin:miter;stroke-width:0.8;"/>
   </g>
   <g id="patch_5">
    <path d="M 75.110937 277.733497 
L 446.5 277.733497 
" style="fill:none;stroke:#000000;stroke-linecap:square;stroke-linejoin:miter;stroke-width:0.8;"/>
   </g>
   <g id="patch_6">
    <path d="M 75.110937 25.918125 
L 446.5 25.918125 
" style="fill:none;stroke:#000000;stroke-linecap:square;stroke-linejoin:miter;stroke-width:0.8;"/>
   </g>
   <g id="text_20">
    <!-- Price of LiteCoin from last 1000 days -->
    <defs>
     <path d="M 30.609375 48.390625 
Q 23.390625 48.390625 19.1875 42.75 
Q 14.984375 37.109375 14.984375 27.296875 
Q 14.984375 17.484375 19.15625 11.84375 
Q 23.34375 6.203125 30.609375 6.203125 
Q 37.796875 6.203125 41.984375 11.859375 
Q 46.1875 17.53125 46.1875 27.296875 
Q 46.1875 37.015625 41.984375 42.703125 
Q 37.796875 48.390625 30.609375 48.390625 
z
M 30.609375 56 
Q 42.328125 56 49.015625 48.375 
Q 55.71875 40.765625 55.71875 27.296875 
Q 55.71875 13.875 49.015625 6.21875 
Q 42.328125 -1.421875 30.609375 -1.421875 
Q 18.84375 -1.421875 12.171875 6.21875 
Q 5.515625 13.875 5.515625 27.296875 
Q 5.515625 40.765625 12.171875 48.375 
Q 18.84375 56 30.609375 56 
z
" id="DejaVuSans-111"/>
     <path d="M 37.109375 75.984375 
L 37.109375 68.5 
L 28.515625 68.5 
Q 23.6875 68.5 21.796875 66.546875 
Q 19.921875 64.59375 19.921875 59.515625 
L 19.921875 54.6875 
L 34.71875 54.6875 
L 34.71875 47.703125 
L 19.921875 47.703125 
L 19.921875 0 
L 10.890625 0 
L 10.890625 47.703125 
L 2.296875 47.703125 
L 2.296875 54.6875 
L 10.890625 54.6875 
L 10.890625 58.5 
Q 10.890625 67.625 15.140625 71.796875 
Q 19.390625 75.984375 28.609375 75.984375 
z
" id="DejaVuSans-102"/>
     <path d="M 9.8125 72.90625 
L 19.671875 72.90625 
L 19.671875 8.296875 
L 55.171875 8.296875 
L 55.171875 0 
L 9.8125 0 
z
" id="DejaVuSans-76"/>
     <path d="M 18.3125 70.21875 
L 18.3125 54.6875 
L 36.8125 54.6875 
L 36.8125 47.703125 
L 18.3125 47.703125 
L 18.3125 18.015625 
Q 18.3125 11.328125 20.140625 9.421875 
Q 21.96875 7.515625 27.59375 7.515625 
L 36.8125 7.515625 
L 36.8125 0 
L 27.59375 0 
Q 17.1875 0 13.234375 3.875 
Q 9.28125 7.765625 9.28125 18.015625 
L 9.28125 47.703125 
L 2.6875 47.703125 
L 2.6875 54.6875 
L 9.28125 54.6875 
L 9.28125 70.21875 
z
" id="DejaVuSans-116"/>
     <path d="M 64.40625 67.28125 
L 64.40625 56.890625 
Q 59.421875 61.53125 53.78125 63.8125 
Q 48.140625 66.109375 41.796875 66.109375 
Q 29.296875 66.109375 22.65625 58.46875 
Q 16.015625 50.828125 16.015625 36.375 
Q 16.015625 21.96875 22.65625 14.328125 
Q 29.296875 6.6875 41.796875 6.6875 
Q 48.140625 6.6875 53.78125 8.984375 
Q 59.421875 11.28125 64.40625 15.921875 
L 64.40625 5.609375 
Q 59.234375 2.09375 53.4375 0.328125 
Q 47.65625 -1.421875 41.21875 -1.421875 
Q 24.65625 -1.421875 15.125 8.703125 
Q 5.609375 18.84375 5.609375 36.375 
Q 5.609375 53.953125 15.125 64.078125 
Q 24.65625 74.21875 41.21875 74.21875 
Q 47.75 74.21875 53.53125 72.484375 
Q 59.328125 70.75 64.40625 67.28125 
z
" id="DejaVuSans-67"/>
     <path d="M 54.890625 33.015625 
L 54.890625 0 
L 45.90625 0 
L 45.90625 32.71875 
Q 45.90625 40.484375 42.875 44.328125 
Q 39.84375 48.1875 33.796875 48.1875 
Q 26.515625 48.1875 22.3125 43.546875 
Q 18.109375 38.921875 18.109375 30.90625 
L 18.109375 0 
L 9.078125 0 
L 9.078125 54.6875 
L 18.109375 54.6875 
L 18.109375 46.1875 
Q 21.34375 51.125 25.703125 53.5625 
Q 30.078125 56 35.796875 56 
Q 45.21875 56 50.046875 50.171875 
Q 54.890625 44.34375 54.890625 33.015625 
z
" id="DejaVuSans-110"/>
     <path d="M 52 44.1875 
Q 55.375 50.25 60.0625 53.125 
Q 64.75 56 71.09375 56 
Q 79.640625 56 84.28125 50.015625 
Q 88.921875 44.046875 88.921875 33.015625 
L 88.921875 0 
L 79.890625 0 
L 79.890625 32.71875 
Q 79.890625 40.578125 77.09375 44.375 
Q 74.3125 48.1875 68.609375 48.1875 
Q 61.625 48.1875 57.5625 43.546875 
Q 53.515625 38.921875 53.515625 30.90625 
L 53.515625 0 
L 44.484375 0 
L 44.484375 32.71875 
Q 44.484375 40.625 41.703125 44.40625 
Q 38.921875 48.1875 33.109375 48.1875 
Q 26.21875 48.1875 22.15625 43.53125 
Q 18.109375 38.875 18.109375 30.90625 
L 18.109375 0 
L 9.078125 0 
L 9.078125 54.6875 
L 18.109375 54.6875 
L 18.109375 46.1875 
Q 21.1875 51.21875 25.484375 53.609375 
Q 29.78125 56 35.6875 56 
Q 41.65625 56 45.828125 52.96875 
Q 50 49.953125 52 44.1875 
z
" id="DejaVuSans-109"/>
     <path d="M 9.421875 75.984375 
L 18.40625 75.984375 
L 18.40625 0 
L 9.421875 0 
z
" id="DejaVuSans-108"/>
     <path d="M 45.40625 46.390625 
L 45.40625 75.984375 
L 54.390625 75.984375 
L 54.390625 0 
L 45.40625 0 
L 45.40625 8.203125 
Q 42.578125 3.328125 38.25 0.953125 
Q 33.9375 -1.421875 27.875 -1.421875 
Q 17.96875 -1.421875 11.734375 6.484375 
Q 5.515625 14.40625 5.515625 27.296875 
Q 5.515625 40.1875 11.734375 48.09375 
Q 17.96875 56 27.875 56 
Q 33.9375 56 38.25 53.625 
Q 42.578125 51.265625 45.40625 46.390625 
z
M 14.796875 27.296875 
Q 14.796875 17.390625 18.875 11.75 
Q 22.953125 6.109375 30.078125 6.109375 
Q 37.203125 6.109375 41.296875 11.75 
Q 45.40625 17.390625 45.40625 27.296875 
Q 45.40625 37.203125 41.296875 42.84375 
Q 37.203125 48.484375 30.078125 48.484375 
Q 22.953125 48.484375 18.875 42.84375 
Q 14.796875 37.203125 14.796875 27.296875 
z
" id="DejaVuSans-100"/>
    </defs>
    <g transform="translate(150.108281 19.918125)scale(0.12 -0.12)">
     <use xlink:href="#DejaVuSans-80"/>
     <use x="60.287109" xlink:href="#DejaVuSans-114"/>
     <use x="101.400391" xlink:href="#DejaVuSans-105"/>
     <use x="129.183594" xlink:href="#DejaVuSans-99"/>
     <use x="184.164062" xlink:href="#DejaVuSans-101"/>
     <use x="245.6875" xlink:href="#DejaVuSans-32"/>
     <use x="277.474609" xlink:href="#DejaVuSans-111"/>
     <use x="338.65625" xlink:href="#DejaVuSans-102"/>
     <use x="373.861328" xlink:href="#DejaVuSans-32"/>
     <use x="405.648438" xlink:href="#DejaVuSans-76"/>
     <use x="461.361328" xlink:href="#DejaVuSans-105"/>
     <use x="489.144531" xlink:href="#DejaVuSans-116"/>
     <use x="528.353516" xlink:href="#DejaVuSans-101"/>
     <use x="589.876953" xlink:href="#DejaVuSans-67"/>
     <use x="659.701172" xlink:href="#DejaVuSans-111"/>
     <use x="720.882812" xlink:href="#DejaVuSans-105"/>
     <use x="748.666016" xlink:href="#DejaVuSans-110"/>
     <use x="812.044922" xlink:href="#DejaVuSans-32"/>
     <use x="843.832031" xlink:href="#DejaVuSans-102"/>
     <use x="879.037109" xlink:href="#DejaVuSans-114"/>
     <use x="920.119141" xlink:href="#DejaVuSans-111"/>
     <use x="981.300781" xlink:href="#DejaVuSans-109"/>
     <use x="1078.712891" xlink:href="#DejaVuSans-32"/>
     <use x="1110.5" xlink:href="#DejaVuSans-108"/>
     <use x="1138.283203" xlink:href="#DejaVuSans-97"/>
     <use x="1199.5625" xlink:href="#DejaVuSans-115"/>
     <use x="1251.662109" xlink:href="#DejaVuSans-116"/>
     <use x="1290.871094" xlink:href="#DejaVuSans-32"/>
     <use x="1322.658203" xlink:href="#DejaVuSans-49"/>
     <use x="1386.28125" xlink:href="#DejaVuSans-48"/>
     <use x="1449.904297" xlink:href="#DejaVuSans-48"/>
     <use x="1513.527344" xlink:href="#DejaVuSans-48"/>
     <use x="1577.150391" xlink:href="#DejaVuSans-32"/>
     <use x="1608.9375" xlink:href="#DejaVuSans-100"/>
     <use x="1672.414062" xlink:href="#DejaVuSans-97"/>
     <use x="1733.693359" xlink:href="#DejaVuSans-121"/>
     <use x="1792.873047" xlink:href="#DejaVuSans-115"/>
    </g>
   </g>
   <g id="legend_1">
    <g id="patch_7">
     <path d="M 82.110938 38.918125 
L 86.110938 38.918125 
Q 88.110938 38.918125 88.110938 36.918125 
L 88.110938 32.918125 
Q 88.110938 30.918125 86.110938 30.918125 
L 82.110938 30.918125 
Q 80.110938 30.918125 80.110938 32.918125 
L 80.110938 36.918125 
Q 80.110938 38.918125 82.110938 38.918125 
z
" style="fill:#ffffff;opacity:0.8;stroke:#cccccc;stroke-linejoin:miter;"/>
    </g>
   </g>
  </g>
 </g>
 <defs>
  <clipPath id="p92e6e746c4">
   <rect height="251.815372" width="371.389062" x="75.110938" y="25.918125"/>
  </clipPath>
 </defs>
</svg>
