<?xml version="1.0" encoding="utf-8" standalone="no"?>
<!DOCTYPE svg PUBLIC "-//W3C//DTD SVG 1.1//EN"
  "http://www.w3.org/Graphics/SVG/1.1/DTD/svg11.dtd">
<!-- Created with matplotlib (https://matplotlib.org/) -->
<svg height="345.6pt" version="1.1" viewBox="0 0 460.8 345.6" width="460.8pt" xmlns="http://www.w3.org/2000/svg" xmlns:xlink="http://www.w3.org/1999/xlink">
 <defs>
  <style type="text/css">
*{stroke-linecap:butt;stroke-linejoin:round;}
  </style>
 </defs>
 <g id="figure_1">
  <g id="patch_1">
   <path d="M 0 345.6 
L 460.8 345.6 
L 460.8 0 
L 0 0 
z
" style="fill:#ffffff;"/>
  </g>
  <g id="axes_1">
   <g id="patch_2">
    <path d="M 81.473438 277.733497 
L 446.5 277.733497 
L 446.5 25.918125 
L 81.473438 25.918125 
z
" style="fill:#ffffff;"/>
   </g>
   <g id="matplotlib.axis_1">
    <g id="xtick_1">
     <g id="line2d_1">
      <defs>
       <path d="M 0 0 
L 0 3.5 
" id="md7a420c297" style="stroke:#000000;stroke-width:0.8;"/>
      </defs>
      <g>
       <use style="stroke:#000000;stroke-width:0.8;" x="102.162373" xlink:href="#md7a420c297" y="277.733497"/>
      </g>
     </g>
     <g id="text_1">
      <!-- 2016-05 -->
      <defs>
       <path d="M 19.1875 8.296875 
L 53.609375 8.296875 
L 53.609375 0 
L 7.328125 0 
L 7.328125 8.296875 
Q 12.9375 14.109375 22.625 23.890625 
Q 32.328125 33.6875 34.8125 36.53125 
Q 39.546875 41.84375 41.421875 45.53125 
Q 43.3125 49.21875 43.3125 52.78125 
Q 43.3125 58.59375 39.234375 62.25 
Q 35.15625 65.921875 28.609375 65.921875 
Q 23.96875 65.921875 18.8125 64.3125 
Q 13.671875 62.703125 7.8125 59.421875 
L 7.8125 69.390625 
Q 13.765625 71.78125 18.9375 73 
Q 24.125 74.21875 28.421875 74.21875 
Q 39.75 74.21875 46.484375 68.546875 
Q 53.21875 62.890625 53.21875 53.421875 
Q 53.21875 48.921875 51.53125 44.890625 
Q 49.859375 40.875 45.40625 35.40625 
Q 44.1875 33.984375 37.640625 27.21875 
Q 31.109375 20.453125 19.1875 8.296875 
z
" id="DejaVuSans-50"/>
       <path d="M 31.78125 66.40625 
Q 24.171875 66.40625 20.328125 58.90625 
Q 16.5 51.421875 16.5 36.375 
Q 16.5 21.390625 20.328125 13.890625 
Q 24.171875 6.390625 31.78125 6.390625 
Q 39.453125 6.390625 43.28125 13.890625 
Q 47.125 21.390625 47.125 36.375 
Q 47.125 51.421875 43.28125 58.90625 
Q 39.453125 66.40625 31.78125 66.40625 
z
M 31.78125 74.21875 
Q 44.046875 74.21875 50.515625 64.515625 
Q 56.984375 54.828125 56.984375 36.375 
Q 56.984375 17.96875 50.515625 8.265625 
Q 44.046875 -1.421875 31.78125 -1.421875 
Q 19.53125 -1.421875 13.0625 8.265625 
Q 6.59375 17.96875 6.59375 36.375 
Q 6.59375 54.828125 13.0625 64.515625 
Q 19.53125 74.21875 31.78125 74.21875 
z
" id="DejaVuSans-48"/>
       <path d="M 12.40625 8.296875 
L 28.515625 8.296875 
L 28.515625 63.921875 
L 10.984375 60.40625 
L 10.984375 69.390625 
L 28.421875 72.90625 
L 38.28125 72.90625 
L 38.28125 8.296875 
L 54.390625 8.296875 
L 54.390625 0 
L 12.40625 0 
z
" id="DejaVuSans-49"/>
       <path d="M 33.015625 40.375 
Q 26.375 40.375 22.484375 35.828125 
Q 18.609375 31.296875 18.609375 23.390625 
Q 18.609375 15.53125 22.484375 10.953125 
Q 26.375 6.390625 33.015625 6.390625 
Q 39.65625 6.390625 43.53125 10.953125 
Q 47.40625 15.53125 47.40625 23.390625 
Q 47.40625 31.296875 43.53125 35.828125 
Q 39.65625 40.375 33.015625 40.375 
z
M 52.59375 71.296875 
L 52.59375 62.3125 
Q 48.875 64.0625 45.09375 64.984375 
Q 41.3125 65.921875 37.59375 65.921875 
Q 27.828125 65.921875 22.671875 59.328125 
Q 17.53125 52.734375 16.796875 39.40625 
Q 19.671875 43.65625 24.015625 45.921875 
Q 28.375 48.1875 33.59375 48.1875 
Q 44.578125 48.1875 50.953125 41.515625 
Q 57.328125 34.859375 57.328125 23.390625 
Q 57.328125 12.15625 50.6875 5.359375 
Q 44.046875 -1.421875 33.015625 -1.421875 
Q 20.359375 -1.421875 13.671875 8.265625 
Q 6.984375 17.96875 6.984375 36.375 
Q 6.984375 53.65625 15.1875 63.9375 
Q 23.390625 74.21875 37.203125 74.21875 
Q 40.921875 74.21875 44.703125 73.484375 
Q 48.484375 72.75 52.59375 71.296875 
z
" id="DejaVuSans-54"/>
       <path d="M 4.890625 31.390625 
L 31.203125 31.390625 
L 31.203125 23.390625 
L 4.890625 23.390625 
z
" id="DejaVuSans-45"/>
       <path d="M 10.796875 72.90625 
L 49.515625 72.90625 
L 49.515625 64.59375 
L 19.828125 64.59375 
L 19.828125 46.734375 
Q 21.96875 47.46875 24.109375 47.828125 
Q 26.265625 48.1875 28.421875 48.1875 
Q 40.625 48.1875 47.75 41.5 
Q 54.890625 34.8125 54.890625 23.390625 
Q 54.890625 11.625 47.5625 5.09375 
Q 40.234375 -1.421875 26.90625 -1.421875 
Q 22.3125 -1.421875 17.546875 -0.640625 
Q 12.796875 0.140625 7.71875 1.703125 
L 7.71875 11.625 
Q 12.109375 9.234375 16.796875 8.0625 
Q 21.484375 6.890625 26.703125 6.890625 
Q 35.15625 6.890625 40.078125 11.328125 
Q 45.015625 15.765625 45.015625 23.390625 
Q 45.015625 31 40.078125 35.4375 
Q 35.15625 39.890625 26.703125 39.890625 
Q 22.75 39.890625 18.8125 39.015625 
Q 14.890625 38.140625 10.796875 36.28125 
z
" id="DejaVuSans-53"/>
      </defs>
      <g transform="translate(89.341091 319.651314)rotate(-45)scale(0.1 -0.1)">
       <use xlink:href="#DejaVuSans-50"/>
       <use x="63.623047" xlink:href="#DejaVuSans-48"/>
       <use x="127.246094" xlink:href="#DejaVuSans-49"/>
       <use x="190.869141" xlink:href="#DejaVuSans-54"/>
       <use x="254.492188" xlink:href="#DejaVuSans-45"/>
       <use x="290.576172" xlink:href="#DejaVuSans-48"/>
       <use x="354.199219" xlink:href="#DejaVuSans-53"/>
      </g>
     </g>
    </g>
    <g id="xtick_2">
     <g id="line2d_2">
      <g>
       <use style="stroke:#000000;stroke-width:0.8;" x="140.924582" xlink:href="#md7a420c297" y="277.733497"/>
      </g>
     </g>
     <g id="text_2">
      <!-- 2016-09 -->
      <defs>
       <path d="M 10.984375 1.515625 
L 10.984375 10.5 
Q 14.703125 8.734375 18.5 7.8125 
Q 22.3125 6.890625 25.984375 6.890625 
Q 35.75 6.890625 40.890625 13.453125 
Q 46.046875 20.015625 46.78125 33.40625 
Q 43.953125 29.203125 39.59375 26.953125 
Q 35.25 24.703125 29.984375 24.703125 
Q 19.046875 24.703125 12.671875 31.3125 
Q 6.296875 37.9375 6.296875 49.421875 
Q 6.296875 60.640625 12.9375 67.421875 
Q 19.578125 74.21875 30.609375 74.21875 
Q 43.265625 74.21875 49.921875 64.515625 
Q 56.59375 54.828125 56.59375 36.375 
Q 56.59375 19.140625 48.40625 8.859375 
Q 40.234375 -1.421875 26.421875 -1.421875 
Q 22.703125 -1.421875 18.890625 -0.6875 
Q 15.09375 0.046875 10.984375 1.515625 
z
M 30.609375 32.421875 
Q 37.25 32.421875 41.125 36.953125 
Q 45.015625 41.5 45.015625 49.421875 
Q 45.015625 57.28125 41.125 61.84375 
Q 37.25 66.40625 30.609375 66.40625 
Q 23.96875 66.40625 20.09375 61.84375 
Q 16.21875 57.28125 16.21875 49.421875 
Q 16.21875 41.5 20.09375 36.953125 
Q 23.96875 32.421875 30.609375 32.421875 
z
" id="DejaVuSans-57"/>
      </defs>
      <g transform="translate(128.1033 319.651314)rotate(-45)scale(0.1 -0.1)">
       <use xlink:href="#DejaVuSans-50"/>
       <use x="63.623047" xlink:href="#DejaVuSans-48"/>
       <use x="127.246094" xlink:href="#DejaVuSans-49"/>
       <use x="190.869141" xlink:href="#DejaVuSans-54"/>
       <use x="254.492188" xlink:href="#DejaVuSans-45"/>
       <use x="290.576172" xlink:href="#DejaVuSans-48"/>
       <use x="354.199219" xlink:href="#DejaVuSans-57"/>
      </g>
     </g>
    </g>
    <g id="xtick_3">
     <g id="line2d_3">
      <g>
       <use style="stroke:#000000;stroke-width:0.8;" x="179.371652" xlink:href="#md7a420c297" y="277.733497"/>
      </g>
     </g>
     <g id="text_3">
      <!-- 2017-01 -->
      <defs>
       <path d="M 8.203125 72.90625 
L 55.078125 72.90625 
L 55.078125 68.703125 
L 28.609375 0 
L 18.3125 0 
L 43.21875 64.59375 
L 8.203125 64.59375 
z
" id="DejaVuSans-55"/>
      </defs>
      <g transform="translate(166.55037 319.651314)rotate(-45)scale(0.1 -0.1)">
       <use xlink:href="#DejaVuSans-50"/>
       <use x="63.623047" xlink:href="#DejaVuSans-48"/>
       <use x="127.246094" xlink:href="#DejaVuSans-49"/>
       <use x="190.869141" xlink:href="#DejaVuSans-55"/>
       <use x="254.492188" xlink:href="#DejaVuSans-45"/>
       <use x="290.576172" xlink:href="#DejaVuSans-48"/>
       <use x="354.199219" xlink:href="#DejaVuSans-49"/>
      </g>
     </g>
    </g>
    <g id="xtick_4">
     <g id="line2d_4">
      <g>
       <use style="stroke:#000000;stroke-width:0.8;" x="217.188442" xlink:href="#md7a420c297" y="277.733497"/>
      </g>
     </g>
     <g id="text_4">
      <!-- 2017-05 -->
      <g transform="translate(204.367159 319.651314)rotate(-45)scale(0.1 -0.1)">
       <use xlink:href="#DejaVuSans-50"/>
       <use x="63.623047" xlink:href="#DejaVuSans-48"/>
       <use x="127.246094" xlink:href="#DejaVuSans-49"/>
       <use x="190.869141" xlink:href="#DejaVuSans-55"/>
       <use x="254.492188" xlink:href="#DejaVuSans-45"/>
       <use x="290.576172" xlink:href="#DejaVuSans-48"/>
       <use x="354.199219" xlink:href="#DejaVuSans-53"/>
      </g>
     </g>
    </g>
    <g id="xtick_5">
     <g id="line2d_5">
      <g>
       <use style="stroke:#000000;stroke-width:0.8;" x="255.950651" xlink:href="#md7a420c297" y="277.733497"/>
      </g>
     </g>
     <g id="text_5">
      <!-- 2017-09 -->
      <g transform="translate(243.129369 319.651314)rotate(-45)scale(0.1 -0.1)">
       <use xlink:href="#DejaVuSans-50"/>
       <use x="63.623047" xlink:href="#DejaVuSans-48"/>
       <use x="127.246094" xlink:href="#DejaVuSans-49"/>
       <use x="190.869141" xlink:href="#DejaVuSans-55"/>
       <use x="254.492188" xlink:href="#DejaVuSans-45"/>
       <use x="290.576172" xlink:href="#DejaVuSans-48"/>
       <use x="354.199219" xlink:href="#DejaVuSans-57"/>
      </g>
     </g>
    </g>
    <g id="xtick_6">
     <g id="line2d_6">
      <g>
       <use style="stroke:#000000;stroke-width:0.8;" x="294.39772" xlink:href="#md7a420c297" y="277.733497"/>
      </g>
     </g>
     <g id="text_6">
      <!-- 2018-01 -->
      <defs>
       <path d="M 31.78125 34.625 
Q 24.75 34.625 20.71875 30.859375 
Q 16.703125 27.09375 16.703125 20.515625 
Q 16.703125 13.921875 20.71875 10.15625 
Q 24.75 6.390625 31.78125 6.390625 
Q 38.8125 6.390625 42.859375 10.171875 
Q 46.921875 13.96875 46.921875 20.515625 
Q 46.921875 27.09375 42.890625 30.859375 
Q 38.875 34.625 31.78125 34.625 
z
M 21.921875 38.8125 
Q 15.578125 40.375 12.03125 44.71875 
Q 8.5 49.078125 8.5 55.328125 
Q 8.5 64.0625 14.71875 69.140625 
Q 20.953125 74.21875 31.78125 74.21875 
Q 42.671875 74.21875 48.875 69.140625 
Q 55.078125 64.0625 55.078125 55.328125 
Q 55.078125 49.078125 51.53125 44.71875 
Q 48 40.375 41.703125 38.8125 
Q 48.828125 37.15625 52.796875 32.3125 
Q 56.78125 27.484375 56.78125 20.515625 
Q 56.78125 9.90625 50.3125 4.234375 
Q 43.84375 -1.421875 31.78125 -1.421875 
Q 19.734375 -1.421875 13.25 4.234375 
Q 6.78125 9.90625 6.78125 20.515625 
Q 6.78125 27.484375 10.78125 32.3125 
Q 14.796875 37.15625 21.921875 38.8125 
z
M 18.3125 54.390625 
Q 18.3125 48.734375 21.84375 45.5625 
Q 25.390625 42.390625 31.78125 42.390625 
Q 38.140625 42.390625 41.71875 45.5625 
Q 45.3125 48.734375 45.3125 54.390625 
Q 45.3125 60.0625 41.71875 63.234375 
Q 38.140625 66.40625 31.78125 66.40625 
Q 25.390625 66.40625 21.84375 63.234375 
Q 18.3125 60.0625 18.3125 54.390625 
z
" id="DejaVuSans-56"/>
      </defs>
      <g transform="translate(281.576438 319.651314)rotate(-45)scale(0.1 -0.1)">
       <use xlink:href="#DejaVuSans-50"/>
       <use x="63.623047" xlink:href="#DejaVuSans-48"/>
       <use x="127.246094" xlink:href="#DejaVuSans-49"/>
       <use x="190.869141" xlink:href="#DejaVuSans-56"/>
       <use x="254.492188" xlink:href="#DejaVuSans-45"/>
       <use x="290.576172" xlink:href="#DejaVuSans-48"/>
       <use x="354.199219" xlink:href="#DejaVuSans-49"/>
      </g>
     </g>
    </g>
    <g id="xtick_7">
     <g id="line2d_7">
      <g>
       <use style="stroke:#000000;stroke-width:0.8;" x="332.21451" xlink:href="#md7a420c297" y="277.733497"/>
      </g>
     </g>
     <g id="text_7">
      <!-- 2018-05 -->
      <g transform="translate(319.393228 319.651314)rotate(-45)scale(0.1 -0.1)">
       <use xlink:href="#DejaVuSans-50"/>
       <use x="63.623047" xlink:href="#DejaVuSans-48"/>
       <use x="127.246094" xlink:href="#DejaVuSans-49"/>
       <use x="190.869141" xlink:href="#DejaVuSans-56"/>
       <use x="254.492188" xlink:href="#DejaVuSans-45"/>
       <use x="290.576172" xlink:href="#DejaVuSans-48"/>
       <use x="354.199219" xlink:href="#DejaVuSans-53"/>
      </g>
     </g>
    </g>
    <g id="xtick_8">
     <g id="line2d_8">
      <g>
       <use style="stroke:#000000;stroke-width:0.8;" x="370.97672" xlink:href="#md7a420c297" y="277.733497"/>
      </g>
     </g>
     <g id="text_8">
      <!-- 2018-09 -->
      <g transform="translate(358.155437 319.651314)rotate(-45)scale(0.1 -0.1)">
       <use xlink:href="#DejaVuSans-50"/>
       <use x="63.623047" xlink:href="#DejaVuSans-48"/>
       <use x="127.246094" xlink:href="#DejaVuSans-49"/>
       <use x="190.869141" xlink:href="#DejaVuSans-56"/>
       <use x="254.492188" xlink:href="#DejaVuSans-45"/>
       <use x="290.576172" xlink:href="#DejaVuSans-48"/>
       <use x="354.199219" xlink:href="#DejaVuSans-57"/>
      </g>
     </g>
    </g>
    <g id="xtick_9">
     <g id="line2d_9">
      <g>
       <use style="stroke:#000000;stroke-width:0.8;" x="409.423789" xlink:href="#md7a420c297" y="277.733497"/>
      </g>
     </g>
     <g id="text_9">
      <!-- 2019-01 -->
      <g transform="translate(396.602507 319.651314)rotate(-45)scale(0.1 -0.1)">
       <use xlink:href="#DejaVuSans-50"/>
       <use x="63.623047" xlink:href="#DejaVuSans-48"/>
       <use x="127.246094" xlink:href="#DejaVuSans-49"/>
       <use x="190.869141" xlink:href="#DejaVuSans-57"/>
       <use x="254.492188" xlink:href="#DejaVuSans-45"/>
       <use x="290.576172" xlink:href="#DejaVuSans-48"/>
       <use x="354.199219" xlink:href="#DejaVuSans-49"/>
      </g>
     </g>
    </g>
    <g id="text_10">
     <!-- Days -->
     <defs>
      <path d="M 19.671875 64.796875 
L 19.671875 8.109375 
L 31.59375 8.109375 
Q 46.6875 8.109375 53.6875 14.9375 
Q 60.6875 21.78125 60.6875 36.53125 
Q 60.6875 51.171875 53.6875 57.984375 
Q 46.6875 64.796875 31.59375 64.796875 
z
M 9.8125 72.90625 
L 30.078125 72.90625 
Q 51.265625 72.90625 61.171875 64.09375 
Q 71.09375 55.28125 71.09375 36.53125 
Q 71.09375 17.671875 61.125 8.828125 
Q 51.171875 0 30.078125 0 
L 9.8125 0 
z
" id="DejaVuSans-68"/>
      <path d="M 34.28125 27.484375 
Q 23.390625 27.484375 19.1875 25 
Q 14.984375 22.515625 14.984375 16.5 
Q 14.984375 11.71875 18.140625 8.90625 
Q 21.296875 6.109375 26.703125 6.109375 
Q 34.1875 6.109375 38.703125 11.40625 
Q 43.21875 16.703125 43.21875 25.484375 
L 43.21875 27.484375 
z
M 52.203125 31.203125 
L 52.203125 0 
L 43.21875 0 
L 43.21875 8.296875 
Q 40.140625 3.328125 35.546875 0.953125 
Q 30.953125 -1.421875 24.3125 -1.421875 
Q 15.921875 -1.421875 10.953125 3.296875 
Q 6 8.015625 6 15.921875 
Q 6 25.140625 12.171875 29.828125 
Q 18.359375 34.515625 30.609375 34.515625 
L 43.21875 34.515625 
L 43.21875 35.40625 
Q 43.21875 41.609375 39.140625 45 
Q 35.0625 48.390625 27.6875 48.390625 
Q 23 48.390625 18.546875 47.265625 
Q 14.109375 46.140625 10.015625 43.890625 
L 10.015625 52.203125 
Q 14.9375 54.109375 19.578125 55.046875 
Q 24.21875 56 28.609375 56 
Q 40.484375 56 46.34375 49.84375 
Q 52.203125 43.703125 52.203125 31.203125 
z
" id="DejaVuSans-97"/>
      <path d="M 32.171875 -5.078125 
Q 28.375 -14.84375 24.75 -17.8125 
Q 21.140625 -20.796875 15.09375 -20.796875 
L 7.90625 -20.796875 
L 7.90625 -13.28125 
L 13.1875 -13.28125 
Q 16.890625 -13.28125 18.9375 -11.515625 
Q 21 -9.765625 23.484375 -3.21875 
L 25.09375 0.875 
L 2.984375 54.6875 
L 12.5 54.6875 
L 29.59375 11.921875 
L 46.6875 54.6875 
L 56.203125 54.6875 
z
" id="DejaVuSans-121"/>
      <path d="M 44.28125 53.078125 
L 44.28125 44.578125 
Q 40.484375 46.53125 36.375 47.5 
Q 32.28125 48.484375 27.875 48.484375 
Q 21.1875 48.484375 17.84375 46.4375 
Q 14.5 44.390625 14.5 40.28125 
Q 14.5 37.15625 16.890625 35.375 
Q 19.28125 33.59375 26.515625 31.984375 
L 29.59375 31.296875 
Q 39.15625 29.25 43.1875 25.515625 
Q 47.21875 21.78125 47.21875 15.09375 
Q 47.21875 7.46875 41.1875 3.015625 
Q 35.15625 -1.421875 24.609375 -1.421875 
Q 20.21875 -1.421875 15.453125 -0.5625 
Q 10.6875 0.296875 5.421875 2 
L 5.421875 11.28125 
Q 10.40625 8.6875 15.234375 7.390625 
Q 20.0625 6.109375 24.8125 6.109375 
Q 31.15625 6.109375 34.5625 8.28125 
Q 37.984375 10.453125 37.984375 14.40625 
Q 37.984375 18.0625 35.515625 20.015625 
Q 33.0625 21.96875 24.703125 23.78125 
L 21.578125 24.515625 
Q 13.234375 26.265625 9.515625 29.90625 
Q 5.8125 33.546875 5.8125 39.890625 
Q 5.8125 47.609375 11.28125 51.796875 
Q 16.75 56 26.8125 56 
Q 31.78125 56 36.171875 55.265625 
Q 40.578125 54.546875 44.28125 53.078125 
z
" id="DejaVuSans-115"/>
     </defs>
     <g transform="translate(251.508594 332.720312)scale(0.1 -0.1)">
      <use xlink:href="#DejaVuSans-68"/>
      <use x="77.001953" xlink:href="#DejaVuSans-97"/>
      <use x="138.28125" xlink:href="#DejaVuSans-121"/>
      <use x="197.460938" xlink:href="#DejaVuSans-115"/>
     </g>
    </g>
   </g>
   <g id="matplotlib.axis_2">
    <g id="ytick_1">
     <g id="line2d_10">
      <defs>
       <path d="M 0 0 
L -3.5 0 
" id="m0bbb5e6bd6" style="stroke:#000000;stroke-width:0.8;"/>
      </defs>
      <g>
       <use style="stroke:#000000;stroke-width:0.8;" x="81.473438" xlink:href="#m0bbb5e6bd6" y="236.544633"/>
      </g>
     </g>
     <g id="text_11">
      <!-- 1800 USD -->
      <defs>
       <path id="DejaVuSans-32"/>
       <path d="M 8.6875 72.90625 
L 18.609375 72.90625 
L 18.609375 28.609375 
Q 18.609375 16.890625 22.84375 11.734375 
Q 27.09375 6.59375 36.625 6.59375 
Q 46.09375 6.59375 50.34375 11.734375 
Q 54.59375 16.890625 54.59375 28.609375 
L 54.59375 72.90625 
L 64.5 72.90625 
L 64.5 27.390625 
Q 64.5 13.140625 57.4375 5.859375 
Q 50.390625 -1.421875 36.625 -1.421875 
Q 22.796875 -1.421875 15.734375 5.859375 
Q 8.6875 13.140625 8.6875 27.390625 
z
" id="DejaVuSans-85"/>
       <path d="M 53.515625 70.515625 
L 53.515625 60.890625 
Q 47.90625 63.578125 42.921875 64.890625 
Q 37.9375 66.21875 33.296875 66.21875 
Q 25.25 66.21875 20.875 63.09375 
Q 16.5 59.96875 16.5 54.203125 
Q 16.5 49.359375 19.40625 46.890625 
Q 22.3125 44.4375 30.421875 42.921875 
L 36.375 41.703125 
Q 47.40625 39.59375 52.65625 34.296875 
Q 57.90625 29 57.90625 20.125 
Q 57.90625 9.515625 50.796875 4.046875 
Q 43.703125 -1.421875 29.984375 -1.421875 
Q 24.8125 -1.421875 18.96875 -0.25 
Q 13.140625 0.921875 6.890625 3.21875 
L 6.890625 13.375 
Q 12.890625 10.015625 18.65625 8.296875 
Q 24.421875 6.59375 29.984375 6.59375 
Q 38.421875 6.59375 43.015625 9.90625 
Q 47.609375 13.234375 47.609375 19.390625 
Q 47.609375 24.75 44.3125 27.78125 
Q 41.015625 30.8125 33.5 32.328125 
L 27.484375 33.5 
Q 16.453125 35.6875 11.515625 40.375 
Q 6.59375 45.0625 6.59375 53.421875 
Q 6.59375 63.09375 13.40625 68.65625 
Q 20.21875 74.21875 32.171875 74.21875 
Q 37.3125 74.21875 42.625 73.28125 
Q 47.953125 72.359375 53.515625 70.515625 
z
" id="DejaVuSans-83"/>
      </defs>
      <g transform="translate(24.478125 240.343852)scale(0.1 -0.1)">
       <use xlink:href="#DejaVuSans-49"/>
       <use x="63.623047" xlink:href="#DejaVuSans-56"/>
       <use x="127.246094" xlink:href="#DejaVuSans-48"/>
       <use x="190.869141" xlink:href="#DejaVuSans-48"/>
       <use x="254.492188" xlink:href="#DejaVuSans-32"/>
       <use x="286.279297" xlink:href="#DejaVuSans-85"/>
       <use x="359.472656" xlink:href="#DejaVuSans-83"/>
       <use x="422.949219" xlink:href="#DejaVuSans-68"/>
      </g>
     </g>
    </g>
    <g id="ytick_2">
     <g id="line2d_11">
      <g>
       <use style="stroke:#000000;stroke-width:0.8;" x="81.473438" xlink:href="#m0bbb5e6bd6" y="188.522174"/>
      </g>
     </g>
     <g id="text_12">
      <!-- 2000 USD -->
      <g transform="translate(24.478125 192.321392)scale(0.1 -0.1)">
       <use xlink:href="#DejaVuSans-50"/>
       <use x="63.623047" xlink:href="#DejaVuSans-48"/>
       <use x="127.246094" xlink:href="#DejaVuSans-48"/>
       <use x="190.869141" xlink:href="#DejaVuSans-48"/>
       <use x="254.492188" xlink:href="#DejaVuSans-32"/>
       <use x="286.279297" xlink:href="#DejaVuSans-85"/>
       <use x="359.472656" xlink:href="#DejaVuSans-83"/>
       <use x="422.949219" xlink:href="#DejaVuSans-68"/>
      </g>
     </g>
    </g>
    <g id="ytick_3">
     <g id="line2d_12">
      <g>
       <use style="stroke:#000000;stroke-width:0.8;" x="81.473438" xlink:href="#m0bbb5e6bd6" y="140.499714"/>
      </g>
     </g>
     <g id="text_13">
      <!-- 2200 USD -->
      <g transform="translate(24.478125 144.298933)scale(0.1 -0.1)">
       <use xlink:href="#DejaVuSans-50"/>
       <use x="63.623047" xlink:href="#DejaVuSans-50"/>
       <use x="127.246094" xlink:href="#DejaVuSans-48"/>
       <use x="190.869141" xlink:href="#DejaVuSans-48"/>
       <use x="254.492188" xlink:href="#DejaVuSans-32"/>
       <use x="286.279297" xlink:href="#DejaVuSans-85"/>
       <use x="359.472656" xlink:href="#DejaVuSans-83"/>
       <use x="422.949219" xlink:href="#DejaVuSans-68"/>
      </g>
     </g>
    </g>
    <g id="ytick_4">
     <g id="line2d_13">
      <g>
       <use style="stroke:#000000;stroke-width:0.8;" x="81.473438" xlink:href="#m0bbb5e6bd6" y="92.477254"/>
      </g>
     </g>
     <g id="text_14">
      <!-- 2400 USD -->
      <defs>
       <path d="M 37.796875 64.3125 
L 12.890625 25.390625 
L 37.796875 25.390625 
z
M 35.203125 72.90625 
L 47.609375 72.90625 
L 47.609375 25.390625 
L 58.015625 25.390625 
L 58.015625 17.1875 
L 47.609375 17.1875 
L 47.609375 0 
L 37.796875 0 
L 37.796875 17.1875 
L 4.890625 17.1875 
L 4.890625 26.703125 
z
" id="DejaVuSans-52"/>
      </defs>
      <g transform="translate(24.478125 96.276473)scale(0.1 -0.1)">
       <use xlink:href="#DejaVuSans-50"/>
       <use x="63.623047" xlink:href="#DejaVuSans-52"/>
       <use x="127.246094" xlink:href="#DejaVuSans-48"/>
       <use x="190.869141" xlink:href="#DejaVuSans-48"/>
       <use x="254.492188" xlink:href="#DejaVuSans-32"/>
       <use x="286.279297" xlink:href="#DejaVuSans-85"/>
       <use x="359.472656" xlink:href="#DejaVuSans-83"/>
       <use x="422.949219" xlink:href="#DejaVuSans-68"/>
      </g>
     </g>
    </g>
    <g id="ytick_5">
     <g id="line2d_14">
      <g>
       <use style="stroke:#000000;stroke-width:0.8;" x="81.473438" xlink:href="#m0bbb5e6bd6" y="44.454794"/>
      </g>
     </g>
     <g id="text_15">
      <!-- 2600 USD -->
      <g transform="translate(24.478125 48.254013)scale(0.1 -0.1)">
       <use xlink:href="#DejaVuSans-50"/>
       <use x="63.623047" xlink:href="#DejaVuSans-54"/>
       <use x="127.246094" xlink:href="#DejaVuSans-48"/>
       <use x="190.869141" xlink:href="#DejaVuSans-48"/>
       <use x="254.492188" xlink:href="#DejaVuSans-32"/>
       <use x="286.279297" xlink:href="#DejaVuSans-85"/>
       <use x="359.472656" xlink:href="#DejaVuSans-83"/>
       <use x="422.949219" xlink:href="#DejaVuSans-68"/>
      </g>
     </g>
    </g>
    <g id="text_16">
     <!-- Price (USD) -->
     <defs>
      <path d="M 19.671875 64.796875 
L 19.671875 37.40625 
L 32.078125 37.40625 
Q 38.96875 37.40625 42.71875 40.96875 
Q 46.484375 44.53125 46.484375 51.125 
Q 46.484375 57.671875 42.71875 61.234375 
Q 38.96875 64.796875 32.078125 64.796875 
z
M 9.8125 72.90625 
L 32.078125 72.90625 
Q 44.34375 72.90625 50.609375 67.359375 
Q 56.890625 61.8125 56.890625 51.125 
Q 56.890625 40.328125 50.609375 34.8125 
Q 44.34375 29.296875 32.078125 29.296875 
L 19.671875 29.296875 
L 19.671875 0 
L 9.8125 0 
z
" id="DejaVuSans-80"/>
      <path d="M 41.109375 46.296875 
Q 39.59375 47.171875 37.8125 47.578125 
Q 36.03125 48 33.890625 48 
Q 26.265625 48 22.1875 43.046875 
Q 18.109375 38.09375 18.109375 28.8125 
L 18.109375 0 
L 9.078125 0 
L 9.078125 54.6875 
L 18.109375 54.6875 
L 18.109375 46.1875 
Q 20.953125 51.171875 25.484375 53.578125 
Q 30.03125 56 36.53125 56 
Q 37.453125 56 38.578125 55.875 
Q 39.703125 55.765625 41.0625 55.515625 
z
" id="DejaVuSans-114"/>
      <path d="M 9.421875 54.6875 
L 18.40625 54.6875 
L 18.40625 0 
L 9.421875 0 
z
M 9.421875 75.984375 
L 18.40625 75.984375 
L 18.40625 64.59375 
L 9.421875 64.59375 
z
" id="DejaVuSans-105"/>
      <path d="M 48.78125 52.59375 
L 48.78125 44.1875 
Q 44.96875 46.296875 41.140625 47.34375 
Q 37.3125 48.390625 33.40625 48.390625 
Q 24.65625 48.390625 19.8125 42.84375 
Q 14.984375 37.3125 14.984375 27.296875 
Q 14.984375 17.28125 19.8125 11.734375 
Q 24.65625 6.203125 33.40625 6.203125 
Q 37.3125 6.203125 41.140625 7.25 
Q 44.96875 8.296875 48.78125 10.40625 
L 48.78125 2.09375 
Q 45.015625 0.34375 40.984375 -0.53125 
Q 36.96875 -1.421875 32.421875 -1.421875 
Q 20.0625 -1.421875 12.78125 6.34375 
Q 5.515625 14.109375 5.515625 27.296875 
Q 5.515625 40.671875 12.859375 48.328125 
Q 20.21875 56 33.015625 56 
Q 37.15625 56 41.109375 55.140625 
Q 45.0625 54.296875 48.78125 52.59375 
z
" id="DejaVuSans-99"/>
      <path d="M 56.203125 29.59375 
L 56.203125 25.203125 
L 14.890625 25.203125 
Q 15.484375 15.921875 20.484375 11.0625 
Q 25.484375 6.203125 34.421875 6.203125 
Q 39.59375 6.203125 44.453125 7.46875 
Q 49.3125 8.734375 54.109375 11.28125 
L 54.109375 2.78125 
Q 49.265625 0.734375 44.1875 -0.34375 
Q 39.109375 -1.421875 33.890625 -1.421875 
Q 20.796875 -1.421875 13.15625 6.1875 
Q 5.515625 13.8125 5.515625 26.8125 
Q 5.515625 40.234375 12.765625 48.109375 
Q 20.015625 56 32.328125 56 
Q 43.359375 56 49.78125 48.890625 
Q 56.203125 41.796875 56.203125 29.59375 
z
M 47.21875 32.234375 
Q 47.125 39.59375 43.09375 43.984375 
Q 39.0625 48.390625 32.421875 48.390625 
Q 24.90625 48.390625 20.390625 44.140625 
Q 15.875 39.890625 15.1875 32.171875 
z
" id="DejaVuSans-101"/>
      <path d="M 31 75.875 
Q 24.46875 64.65625 21.28125 53.65625 
Q 18.109375 42.671875 18.109375 31.390625 
Q 18.109375 20.125 21.3125 9.0625 
Q 24.515625 -2 31 -13.1875 
L 23.1875 -13.1875 
Q 15.875 -1.703125 12.234375 9.375 
Q 8.59375 20.453125 8.59375 31.390625 
Q 8.59375 42.28125 12.203125 53.3125 
Q 15.828125 64.359375 23.1875 75.875 
z
" id="DejaVuSans-40"/>
      <path d="M 8.015625 75.875 
L 15.828125 75.875 
Q 23.140625 64.359375 26.78125 53.3125 
Q 30.421875 42.28125 30.421875 31.390625 
Q 30.421875 20.453125 26.78125 9.375 
Q 23.140625 -1.703125 15.828125 -13.1875 
L 8.015625 -13.1875 
Q 14.5 -2 17.703125 9.0625 
Q 20.90625 20.125 20.90625 31.390625 
Q 20.90625 42.671875 17.703125 53.65625 
Q 14.5 64.65625 8.015625 75.875 
z
" id="DejaVuSans-41"/>
     </defs>
     <g transform="translate(18.398437 180.284405)rotate(-90)scale(0.1 -0.1)">
      <use xlink:href="#DejaVuSans-80"/>
      <use x="60.287109" xlink:href="#DejaVuSans-114"/>
      <use x="101.400391" xlink:href="#DejaVuSans-105"/>
      <use x="129.183594" xlink:href="#DejaVuSans-99"/>
      <use x="184.164062" xlink:href="#DejaVuSans-101"/>
      <use x="245.6875" xlink:href="#DejaVuSans-32"/>
      <use x="277.474609" xlink:href="#DejaVuSans-40"/>
      <use x="316.488281" xlink:href="#DejaVuSans-85"/>
      <use x="389.681641" xlink:href="#DejaVuSans-83"/>
      <use x="453.158203" xlink:href="#DejaVuSans-68"/>
      <use x="530.160156" xlink:href="#DejaVuSans-41"/>
     </g>
    </g>
   </g>
   <g id="line2d_15">
    <path clip-path="url(#p7fedddd718)" d="M 98.065554 204.724952 
L 98.695834 197.247855 
L 99.010974 196.484297 
L 99.326114 200.623834 
L 100.271533 202.79685 
L 100.901813 209.390334 
L 101.216953 216.089467 
L 101.532093 212.69668 
L 102.477513 212.790324 
L 103.107793 214.725629 
L 103.738072 227.221073 
L 104.683492 222.176313 
L 104.998632 225.609919 
L 105.313772 230.901994 
L 105.944052 233.466394 
L 106.889472 229.492535 
L 107.204611 222.173912 
L 107.519751 225.50427 
L 107.834891 225.962884 
L 108.150031 236.362148 
L 109.095451 235.132773 
L 109.410591 232.349872 
L 109.725731 227.60045 
L 110.356011 224.591843 
L 111.30143 226.721639 
L 111.61657 225.926868 
L 111.93171 234.150714 
L 112.24685 246.18034 
L 112.56199 246.103504 
L 113.50741 237.209744 
L 113.82255 236.674294 
L 114.13769 228.606521 
L 114.45283 226.327855 
L 114.767969 232.822893 
L 115.713389 243.543907 
L 116.028529 242.031199 
L 116.658809 246.593333 
L 116.973949 251.061823 
L 118.234508 242.528232 
L 118.864788 231.675156 
L 119.179928 266.287344 
L 120.125348 246.177939 
L 120.440488 247.820307 
L 120.755628 246.903078 
L 121.070768 248.12525 
L 121.385908 246.996722 
L 122.646467 255.124523 
L 122.961607 256.642033 
L 123.276747 261.153743 
L 123.591887 256.992597 
L 124.537307 255.799239 
L 124.852447 249.06649 
L 125.167587 249.19615 
L 125.482727 250.944168 
L 126.743286 244.984581 
L 127.058426 239.570048 
L 127.373566 237.204942 
L 127.688706 236.508617 
L 128.003846 236.335736 
L 128.949266 236.871186 
L 129.264405 233.624868 
L 129.894685 238.573582 
L 130.209825 238.244628 
L 131.155245 246.060284 
L 131.470385 241.877528 
L 131.785525 234.969497 
L 132.100665 238.676831 
L 132.415805 231.103689 
L 133.361224 229.766263 
L 134.621784 221.22787 
L 135.882344 223.04552 
L 136.197484 225.192124 
L 136.512623 230.63547 
L 136.827763 230.553832 
L 138.088323 238.110166 
L 138.403463 239.452393 
L 138.718603 239.18827 
L 139.033743 240.564113 
L 139.979163 243.109304 
L 140.294302 242.208883 
L 140.609442 237.180931 
L 140.924582 237.358614 
L 141.239722 246.084295 
L 142.185142 243.543907 
L 142.500282 238.46073 
L 142.815422 238.295052 
L 143.130562 233.720913 
L 143.445702 238.33347 
L 144.706261 251.78216 
L 145.021401 253.133992 
L 145.336541 251.854194 
L 145.651681 249.702787 
L 146.597101 250.814507 
L 147.85766 242.691508 
L 148.80308 246.989518 
L 149.11822 250.547983 
L 149.43336 252.363232 
L 149.7485 253.19402 
L 150.06364 254.975653 
L 151.00906 257.395985 
L 151.324199 253.695855 
L 151.639339 247.282455 
L 151.954479 245.440794 
L 152.269619 245.584861 
L 153.215039 246.698983 
L 153.530179 244.379498 
L 153.845319 247.642624 
L 154.160459 248.089233 
L 154.475599 252.677779 
L 155.421018 256.411525 
L 156.051298 255.170144 
L 156.366438 248.271718 
L 156.681578 248.266916 
L 157.626998 247.71946 
L 157.942138 240.703378 
L 158.257278 240.112702 
L 158.572417 241.159592 
L 158.887557 237.711579 
L 159.832977 232.491538 
L 160.463257 235.375287 
L 160.778397 245.030202 
L 161.093537 244.83331 
L 162.038957 242.989248 
L 162.669236 245.755341 
L 162.984376 236.499012 
L 164.244936 237.930081 
L 164.560076 246.809434 
L 164.875216 246.722994 
L 165.190356 245.680906 
L 165.505496 251.714928 
L 166.450915 253.018738 
L 166.766055 244.850118 
L 167.081195 243.1021 
L 167.396335 237.024858 
L 167.711475 234.033059 
L 168.656895 237.831635 
L 168.972035 241.865522 
L 169.287175 240.518492 
L 169.602314 235.850709 
L 169.917454 239.476405 
L 170.862874 239.202677 
L 171.178014 225.302576 
L 171.808294 212.816736 
L 172.123434 208.533133 
L 173.068854 211.49852 
L 173.383993 215.707688 
L 173.699133 208.266608 
L 174.014273 205.003482 
L 174.329413 209.399938 
L 175.274833 208.821267 
L 175.905113 202.511116 
L 176.220253 205.882293 
L 176.535393 202.331032 
L 177.795952 204.585686 
L 178.111092 204.03823 
L 178.426232 204.203908 
L 178.741372 200.794313 
L 179.686792 201.118465 
L 180.001932 197.711271 
L 180.317072 190.450275 
L 180.632211 189.789967 
L 181.892771 188.726269 
L 182.207911 186.745343 
L 182.523051 182.545779 
L 182.838191 181.395641 
L 183.153331 182.99719 
L 184.098751 185.323878 
L 184.41389 182.183209 
L 184.72903 184.063288 
L 185.04417 187.177545 
L 185.35931 184.846054 
L 186.30473 187.55212 
L 186.61987 189.835588 
L 186.93501 184.918088 
L 187.25015 167.685228 
L 187.56529 169.690166 
L 188.510709 168.633672 
L 188.825849 175.981108 
L 189.456129 169.791013 
L 189.771269 172.773208 
L 190.716689 169.685364 
L 191.031829 167.137772 
L 191.346969 167.596387 
L 191.662108 166.220543 
L 191.977248 153.81154 
L 192.922668 149.823274 
L 193.237808 144.980209 
L 193.552948 145.246734 
L 193.868088 143.995749 
L 194.183228 136.934046 
L 195.128648 142.086856 
L 195.443787 142.293353 
L 195.758927 127.87701 
L 196.074067 128.53972 
L 196.389207 127.920231 
L 197.334627 137.409469 
L 197.649767 137.085317 
L 197.964907 141.640247 
L 198.280047 126.918962 
L 198.595187 129.860338 
L 199.540606 132.657646 
L 200.170886 141.311294 
L 200.486026 136.686731 
L 200.801166 141.599428 
L 201.746586 140.451691 
L 202.061726 130.186891 
L 202.692005 129.250453 
L 203.007145 119.912485 
L 203.952565 117.725062 
L 204.267705 121.245109 
L 204.582845 133.101854 
L 204.897985 136.573878 
L 205.213125 132.057366 
L 206.473684 138.324297 
L 206.788824 131.920502 
L 207.419104 139.668925 
L 208.364524 143.244198 
L 208.994804 131.185758 
L 209.625084 128.479692 
L 210.570503 128.270795 
L 210.885643 130.508641 
L 211.200783 134.907498 
L 211.515923 136.437014 
L 213.091623 131.385051 
L 213.406763 129.956383 
L 213.721902 122.78663 
L 214.037042 119.403447 
L 214.982462 120.531975 
L 215.297602 116.387637 
L 215.612742 103.481601 
L 215.927882 97.625262 
L 216.243022 96.191791 
L 217.503581 96.876112 
L 218.133861 93.632194 
L 218.449001 100.182458 
L 219.394421 94.9264 
L 219.709561 97.601251 
L 220.024701 90.104945 
L 220.339841 96.880914 
L 220.654981 100.177656 
L 221.6004 97.666081 
L 221.91554 98.328791 
L 222.54582 116.706986 
L 222.86096 117.170403 
L 223.80638 107.839639 
L 224.12152 107.080884 
L 224.43666 115.052613 
L 224.751799 106.994444 
L 225.066939 103.733719 
L 226.327499 112.709116 
L 226.642639 118.178875 
L 226.957779 120.421524 
L 227.272919 118.31814 
L 228.218338 116.087497 
L 228.533478 123.482955 
L 228.848618 114.481145 
L 229.163758 113.921684 
L 229.478898 106.953625 
L 230.424318 109.309126 
L 230.739458 117.136787 
L 231.054598 116.147525 
L 231.684878 118.128451 
L 232.630297 113.455866 
L 232.945437 109.803758 
L 233.260577 117.468142 
L 233.575717 113.222957 
L 233.890857 115.119844 
L 234.836277 113.16533 
L 235.151417 108.127774 
L 235.466557 106.065209 
L 236.096836 110.555309 
L 237.042256 115.227894 
L 237.357396 112.252903 
L 237.672536 116.788624 
L 237.987676 114.257841 
L 238.302816 116.666167 
L 239.248235 115.163064 
L 239.563375 115.652893 
L 239.878515 117.189612 
L 240.193655 107.966899 
L 240.508795 104.610129 
L 241.454215 103.652081 
L 241.769355 100.163249 
L 242.084495 101.121297 
L 242.399635 98.30478 
L 242.714775 102.826094 
L 243.660194 105.772272 
L 243.975334 107.412239 
L 244.290474 105.856311 
L 244.605614 101.711973 
L 244.920754 105.719447 
L 245.866174 102.694033 
L 246.181314 97.992634 
L 246.496454 95.433037 
L 246.811593 100.725112 
L 247.126733 100.67949 
L 248.387293 95.476257 
L 248.702433 87.583766 
L 249.017573 91.711296 
L 249.332713 98.789807 
L 250.278132 98.295175 
L 250.908412 97.548426 
L 251.223552 97.550827 
L 251.538692 105.251228 
L 252.484112 102.348271 
L 252.799252 97.166647 
L 253.429532 93.605782 
L 253.744672 76.915576 
L 254.690091 74.677729 
L 255.005231 62.364771 
L 255.320371 66.715606 
L 255.635511 63.608553 
L 255.950651 65.474225 
L 256.896071 65.253322 
L 257.211211 63.414062 
L 257.526351 65.558264 
L 257.84149 65.627897 
L 258.15663 71.186497 
L 259.10205 71.004011 
L 259.41719 64.107986 
L 259.73233 66.609956 
L 260.04747 67.949783 
L 260.36261 66.785238 
L 261.308029 67.568004 
L 261.623169 69.476897 
L 261.938309 67.140604 
L 262.253449 68.187494 
L 262.568589 76.973203 
L 263.514009 73.489174 
L 263.829149 79.98181 
L 264.144289 81.031101 
L 264.459429 85.079394 
L 264.774569 85.233066 
L 266.035128 75.376456 
L 266.350268 75.575749 
L 266.665408 81.873895 
L 266.980548 76.629842 
L 267.925968 72.401465 
L 268.241108 66.83086 
L 268.556248 63.469287 
L 268.871387 54.664369 
L 269.186527 59.207294 
L 270.131947 61.637231 
L 270.447087 60.261387 
L 270.762227 64.105585 
L 271.077367 70.80952 
L 271.392507 74.752164 
L 272.337926 76.476171 
L 272.653066 75.914308 
L 272.968206 80.706949 
L 273.283346 79.878562 
L 274.543906 70.675057 
L 274.859046 65.046825 
L 275.489326 62.578471 
L 275.804466 67.628032 
L 276.749885 69.061503 
L 277.380165 57.569728 
L 278.010445 73.765303 
L 278.955865 78.33464 
L 279.271005 76.982808 
L 279.586144 78.008087 
L 279.901284 85.629251 
L 280.216424 89.442235 
L 281.161844 83.31697 
L 281.792124 70.715877 
L 282.107264 72.778441 
L 282.422404 67.844133 
L 283.367823 73.755698 
L 283.682963 69.717009 
L 283.998103 70.396527 
L 284.313243 83.717958 
L 284.628383 89.804804 
L 285.573803 94.232475 
L 285.888943 91.696889 
L 286.204083 92.261153 
L 286.519223 93.320048 
L 286.834363 92.333187 
L 287.779782 89.88164 
L 288.094922 96.064532 
L 288.410062 89.754381 
L 288.725202 91.175846 
L 289.040342 85.101004 
L 289.985762 87.607777 
L 290.300902 76.639447 
L 290.616041 79.151022 
L 290.931181 77.933652 
L 291.246321 77.424614 
L 292.822021 81.549743 
L 293.137161 74.353578 
L 293.452301 73.393129 
L 295.028 77.28775 
L 295.34314 74.893831 
L 295.65828 61.077769 
L 296.6037 60.174947 
L 296.91884 55.860129 
L 297.23398 61.010537 
L 297.54912 64.300076 
L 297.86426 59.627491 
L 298.809679 59.973252 
L 299.124819 58.474952 
L 299.439959 47.403373 
L 299.755099 43.304657 
L 300.070239 46.195609 
L 301.015659 44.349145 
L 301.330799 37.364278 
L 301.645938 37.395493 
L 301.961078 40.872319 
L 302.276218 46.320467 
L 303.221638 44.646884 
L 303.851918 52.789092 
L 304.167058 54.340218 
L 304.482198 62.091043 
L 305.427617 70.293279 
L 305.742757 81.544941 
L 306.057897 86.020634 
L 306.373037 82.80313 
L 306.688177 93.250416 
L 307.633597 91.953809 
L 307.948737 88.239272 
L 308.579017 77.794387 
L 308.894157 81.576156 
L 309.839576 90.092939 
L 310.154716 91.382342 
L 310.469856 90.251413 
L 310.784996 94.909592 
L 311.100136 89.497461 
L 312.045556 88.150431 
L 312.360696 88.378537 
L 312.675835 89.905651 
L 313.306115 109.770142 
L 314.251535 115.744136 
L 314.566675 105.793882 
L 314.881815 109.91661 
L 315.196955 101.474262 
L 315.512095 111.19881 
L 316.772654 97.452381 
L 317.087794 103.584849 
L 317.402934 105.976368 
L 317.718074 111.640617 
L 318.663494 120.056553 
L 318.978634 128.43167 
L 319.293774 123.96318 
L 319.608914 113.350216 
L 319.924054 127.322351 
L 320.869473 125.893683 
L 321.184613 126.337891 
L 321.814893 136.672324 
L 323.390593 137.81766 
L 323.705732 131.315419 
L 324.020872 135.010747 
L 324.336012 129.855536 
L 325.281432 125.679983 
L 325.596572 121.240306 
L 325.911712 122.678579 
L 326.226852 123.504565 
L 326.541992 113.907277 
L 327.487411 113.816034 
L 327.802551 115.38877 
L 328.117691 114.944562 
L 328.432831 113.861656 
L 328.747971 111.129178 
L 329.693391 116.654162 
L 330.008531 117.391306 
L 330.323671 124.441003 
L 330.638811 126.786901 
L 330.95395 119.732401 
L 331.89937 121.951039 
L 332.52965 118.440597 
L 333.15993 121.170674 
L 334.10535 130.222908 
L 334.42049 136.74916 
L 334.735629 131.738016 
L 335.050769 118.38297 
L 335.365909 115.535238 
L 336.311329 109.626075 
L 336.626469 113.676769 
L 336.941609 121.540447 
L 337.256749 123.802305 
L 337.571889 127.017408 
L 338.517308 132.94338 
L 338.832448 124.200891 
L 339.462728 137.563141 
L 339.777868 136.540262 
L 340.723288 136.929244 
L 341.038428 138.422743 
L 341.353568 143.722021 
L 341.983847 150.58443 
L 342.929267 140.869487 
L 343.244407 136.393794 
L 343.559547 126.25145 
L 343.874687 124.335354 
L 344.189827 125.965716 
L 345.135247 126.18662 
L 345.450387 131.488299 
L 345.765526 126.846929 
L 346.080666 132.693663 
L 346.395806 130.873612 
L 347.341226 139.599293 
L 347.656366 155.468315 
L 347.971506 158.037516 
L 348.286646 150.250674 
L 349.547205 151.321575 
L 349.862345 151.007028 
L 350.492625 154.49586 
L 350.807765 161.857703 
L 351.753185 159.780732 
L 352.068325 158.421696 
L 352.383465 150.961407 
L 352.698605 149.078926 
L 353.013744 150.526804 
L 353.959164 149.475112 
L 354.274304 151.468044 
L 354.589444 147.254073 
L 354.904584 150.072991 
L 355.219724 147.854354 
L 356.165144 151.268751 
L 356.480284 154.529476 
L 356.795423 151.239937 
L 357.110563 155.482721 
L 357.425703 154.404617 
L 358.686263 138.18263 
L 359.001403 128.34763 
L 359.316543 125.142131 
L 359.631683 114.944562 
L 360.577102 119.074494 
L 360.892242 110.992314 
L 361.207382 115.51843 
L 361.522522 114.123378 
L 361.837662 120.263049 
L 362.783082 118.865596 
L 363.098222 117.617012 
L 363.413362 111.314064 
L 363.728502 114.461936 
L 364.043641 114.411513 
L 364.989061 130.071637 
L 365.304201 124.003999 
L 365.934481 125.504701 
L 366.249621 124.798771 
L 367.195041 134.364845 
L 367.510181 130.595082 
L 367.82532 122.284795 
L 368.14046 117.65543 
L 368.4556 110.980308 
L 369.40102 111.962367 
L 369.71616 98.528084 
L 370.0313 95.711567 
L 370.34644 96.883315 
L 370.66158 104.819026 
L 371.606999 106.864783 
L 371.922139 101.74799 
L 372.552419 118.48862 
L 372.867559 117.693848 
L 373.812979 126.390715 
L 374.128119 125.423063 
L 374.443259 127.973055 
L 374.758399 137.315825 
L 375.073538 130.076439 
L 376.018958 133.193097 
L 376.334098 138.16102 
L 376.964378 125.754418 
L 377.279518 124.421794 
L 378.224938 125.696791 
L 378.540078 119.898079 
L 379.485497 115.470408 
L 380.430917 118.697517 
L 380.746057 123.101177 
L 381.061197 119.343419 
L 381.376337 119.098505 
L 381.691477 122.407252 
L 382.636896 126.162609 
L 382.952036 135.258062 
L 383.267176 127.480825 
L 383.582316 147.614241 
L 383.897456 146.658594 
L 384.842876 142.379793 
L 385.158016 146.144754 
L 385.473156 134.470494 
L 385.788296 141.107198 
L 386.103435 142.876826 
L 387.048855 139.724151 
L 387.994275 158.635396 
L 388.309415 154.930463 
L 389.254835 167.02492 
L 389.569975 163.430438 
L 389.885114 156.82735 
L 390.515394 147.794326 
L 391.460814 141.30409 
L 391.775954 131.413865 
L 392.091094 133.858208 
L 392.406234 121.266719 
L 392.721374 126.174614 
L 393.981933 133.077843 
L 394.297073 138.967797 
L 394.612213 131.509909 
L 394.927353 138.393929 
L 395.872773 146.934724 
L 396.187913 145.035435 
L 396.503053 148.202516 
L 396.818193 136.156082 
L 397.133332 132.158213 
L 398.078752 133.382785 
L 398.393892 136.758764 
L 398.709032 135.070775 
L 399.024172 122.772223 
L 399.339312 116.399643 
L 400.284732 113.907277 
L 400.599872 111.148387 
L 400.915011 111.849514 
L 401.230151 108.017322 
L 401.545291 116.298795 
L 402.490711 122.608947 
L 403.120991 133.637304 
L 403.436131 120.625619 
L 403.751271 117.168002 
L 404.69669 117.259245 
L 405.01183 122.966714 
L 405.32697 113.489481 
L 405.64211 109.887797 
L 405.95725 115.54004 
L 407.84809 121.521238 
L 408.163229 127.761756 
L 409.738929 122.407252 
L 410.054069 118.056417 
L 410.369209 126.717268 
L 411.314629 118.226897 
L 411.629769 109.184268 
L 411.944908 109.503617 
L 412.260048 108.836105 
L 412.575188 105.988373 
L 413.520608 110.187937 
L 414.781168 100.475395 
L 415.726587 97.469189 
L 416.041727 104.504479 
L 416.356867 102.040927 
L 416.672007 90.023307 
L 416.987147 89.326981 
L 417.932567 92.53248 
L 418.247707 99.490934 
L 418.562847 98.554496 
L 418.877987 100.220876 
L 419.193126 97.173851 
L 420.138546 94.359735 
L 420.453686 94.054792 
L 420.768826 90.102544 
L 421.083966 90.568361 
L 421.399106 100.669886 
L 422.344526 102.297847 
L 422.659665 101.594318 
L 422.974805 98.614525 
L 423.605085 112.408976 
L 424.550505 106.83597 
L 424.865645 110.562513 
L 425.180785 109.950226 
L 425.495925 100.497005 
L 425.811065 107.313793 
L 426.756484 102.374683 
L 427.071624 99.548561 
L 427.386764 101.02045 
L 427.701904 107.647549 
L 428.017044 106.891195 
L 428.962464 106.511818 
L 429.277604 110.293587 
L 429.592744 110.464066 
L 429.907884 110.058277 
L 429.907884 110.058277 
" style="fill:none;stroke:#1f77b4;stroke-linecap:square;stroke-width:1.5;"/>
   </g>
   <g id="patch_3">
    <path d="M 81.473438 277.733497 
L 81.473438 25.918125 
" style="fill:none;stroke:#000000;stroke-linecap:square;stroke-linejoin:miter;stroke-width:0.8;"/>
   </g>
   <g id="patch_4">
    <path d="M 446.5 277.733497 
L 446.5 25.918125 
" style="fill:none;stroke:#000000;stroke-linecap:square;stroke-linejoin:miter;stroke-width:0.8;"/>
   </g>
   <g id="patch_5">
    <path d="M 81.473438 277.733497 
L 446.5 277.733497 
" style="fill:none;stroke:#000000;stroke-linecap:square;stroke-linejoin:miter;stroke-width:0.8;"/>
   </g>
   <g id="patch_6">
    <path d="M 81.473438 25.918125 
L 446.5 25.918125 
" style="fill:none;stroke:#000000;stroke-linecap:square;stroke-linejoin:miter;stroke-width:0.8;"/>
   </g>
   <g id="text_17">
    <!-- Price of LiteCoin from last 723 days -->
    <defs>
     <path d="M 30.609375 48.390625 
Q 23.390625 48.390625 19.1875 42.75 
Q 14.984375 37.109375 14.984375 27.296875 
Q 14.984375 17.484375 19.15625 11.84375 
Q 23.34375 6.203125 30.609375 6.203125 
Q 37.796875 6.203125 41.984375 11.859375 
Q 46.1875 17.53125 46.1875 27.296875 
Q 46.1875 37.015625 41.984375 42.703125 
Q 37.796875 48.390625 30.609375 48.390625 
z
M 30.609375 56 
Q 42.328125 56 49.015625 48.375 
Q 55.71875 40.765625 55.71875 27.296875 
Q 55.71875 13.875 49.015625 6.21875 
Q 42.328125 -1.421875 30.609375 -1.421875 
Q 18.84375 -1.421875 12.171875 6.21875 
Q 5.515625 13.875 5.515625 27.296875 
Q 5.515625 40.765625 12.171875 48.375 
Q 18.84375 56 30.609375 56 
z
" id="DejaVuSans-111"/>
     <path d="M 37.109375 75.984375 
L 37.109375 68.5 
L 28.515625 68.5 
Q 23.6875 68.5 21.796875 66.546875 
Q 19.921875 64.59375 19.921875 59.515625 
L 19.921875 54.6875 
L 34.71875 54.6875 
L 34.71875 47.703125 
L 19.921875 47.703125 
L 19.921875 0 
L 10.890625 0 
L 10.890625 47.703125 
L 2.296875 47.703125 
L 2.296875 54.6875 
L 10.890625 54.6875 
L 10.890625 58.5 
Q 10.890625 67.625 15.140625 71.796875 
Q 19.390625 75.984375 28.609375 75.984375 
z
" id="DejaVuSans-102"/>
     <path d="M 9.8125 72.90625 
L 19.671875 72.90625 
L 19.671875 8.296875 
L 55.171875 8.296875 
L 55.171875 0 
L 9.8125 0 
z
" id="DejaVuSans-76"/>
     <path d="M 18.3125 70.21875 
L 18.3125 54.6875 
L 36.8125 54.6875 
L 36.8125 47.703125 
L 18.3125 47.703125 
L 18.3125 18.015625 
Q 18.3125 11.328125 20.140625 9.421875 
Q 21.96875 7.515625 27.59375 7.515625 
L 36.8125 7.515625 
L 36.8125 0 
L 27.59375 0 
Q 17.1875 0 13.234375 3.875 
Q 9.28125 7.765625 9.28125 18.015625 
L 9.28125 47.703125 
L 2.6875 47.703125 
L 2.6875 54.6875 
L 9.28125 54.6875 
L 9.28125 70.21875 
z
" id="DejaVuSans-116"/>
     <path d="M 64.40625 67.28125 
L 64.40625 56.890625 
Q 59.421875 61.53125 53.78125 63.8125 
Q 48.140625 66.109375 41.796875 66.109375 
Q 29.296875 66.109375 22.65625 58.46875 
Q 16.015625 50.828125 16.015625 36.375 
Q 16.015625 21.96875 22.65625 14.328125 
Q 29.296875 6.6875 41.796875 6.6875 
Q 48.140625 6.6875 53.78125 8.984375 
Q 59.421875 11.28125 64.40625 15.921875 
L 64.40625 5.609375 
Q 59.234375 2.09375 53.4375 0.328125 
Q 47.65625 -1.421875 41.21875 -1.421875 
Q 24.65625 -1.421875 15.125 8.703125 
Q 5.609375 18.84375 5.609375 36.375 
Q 5.609375 53.953125 15.125 64.078125 
Q 24.65625 74.21875 41.21875 74.21875 
Q 47.75 74.21875 53.53125 72.484375 
Q 59.328125 70.75 64.40625 67.28125 
z
" id="DejaVuSans-67"/>
     <path d="M 54.890625 33.015625 
L 54.890625 0 
L 45.90625 0 
L 45.90625 32.71875 
Q 45.90625 40.484375 42.875 44.328125 
Q 39.84375 48.1875 33.796875 48.1875 
Q 26.515625 48.1875 22.3125 43.546875 
Q 18.109375 38.921875 18.109375 30.90625 
L 18.109375 0 
L 9.078125 0 
L 9.078125 54.6875 
L 18.109375 54.6875 
L 18.109375 46.1875 
Q 21.34375 51.125 25.703125 53.5625 
Q 30.078125 56 35.796875 56 
Q 45.21875 56 50.046875 50.171875 
Q 54.890625 44.34375 54.890625 33.015625 
z
" id="DejaVuSans-110"/>
     <path d="M 52 44.1875 
Q 55.375 50.25 60.0625 53.125 
Q 64.75 56 71.09375 56 
Q 79.640625 56 84.28125 50.015625 
Q 88.921875 44.046875 88.921875 33.015625 
L 88.921875 0 
L 79.890625 0 
L 79.890625 32.71875 
Q 79.890625 40.578125 77.09375 44.375 
Q 74.3125 48.1875 68.609375 48.1875 
Q 61.625 48.1875 57.5625 43.546875 
Q 53.515625 38.921875 53.515625 30.90625 
L 53.515625 0 
L 44.484375 0 
L 44.484375 32.71875 
Q 44.484375 40.625 41.703125 44.40625 
Q 38.921875 48.1875 33.109375 48.1875 
Q 26.21875 48.1875 22.15625 43.53125 
Q 18.109375 38.875 18.109375 30.90625 
L 18.109375 0 
L 9.078125 0 
L 9.078125 54.6875 
L 18.109375 54.6875 
L 18.109375 46.1875 
Q 21.1875 51.21875 25.484375 53.609375 
Q 29.78125 56 35.6875 56 
Q 41.65625 56 45.828125 52.96875 
Q 50 49.953125 52 44.1875 
z
" id="DejaVuSans-109"/>
     <path d="M 9.421875 75.984375 
L 18.40625 75.984375 
L 18.40625 0 
L 9.421875 0 
z
" id="DejaVuSans-108"/>
     <path d="M 40.578125 39.3125 
Q 47.65625 37.796875 51.625 33 
Q 55.609375 28.21875 55.609375 21.1875 
Q 55.609375 10.40625 48.1875 4.484375 
Q 40.765625 -1.421875 27.09375 -1.421875 
Q 22.515625 -1.421875 17.65625 -0.515625 
Q 12.796875 0.390625 7.625 2.203125 
L 7.625 11.71875 
Q 11.71875 9.328125 16.59375 8.109375 
Q 21.484375 6.890625 26.8125 6.890625 
Q 36.078125 6.890625 40.9375 10.546875 
Q 45.796875 14.203125 45.796875 21.1875 
Q 45.796875 27.640625 41.28125 31.265625 
Q 36.765625 34.90625 28.71875 34.90625 
L 20.21875 34.90625 
L 20.21875 43.015625 
L 29.109375 43.015625 
Q 36.375 43.015625 40.234375 45.921875 
Q 44.09375 48.828125 44.09375 54.296875 
Q 44.09375 59.90625 40.109375 62.90625 
Q 36.140625 65.921875 28.71875 65.921875 
Q 24.65625 65.921875 20.015625 65.03125 
Q 15.375 64.15625 9.8125 62.3125 
L 9.8125 71.09375 
Q 15.4375 72.65625 20.34375 73.4375 
Q 25.25 74.21875 29.59375 74.21875 
Q 40.828125 74.21875 47.359375 69.109375 
Q 53.90625 64.015625 53.90625 55.328125 
Q 53.90625 49.265625 50.4375 45.09375 
Q 46.96875 40.921875 40.578125 39.3125 
z
" id="DejaVuSans-51"/>
     <path d="M 45.40625 46.390625 
L 45.40625 75.984375 
L 54.390625 75.984375 
L 54.390625 0 
L 45.40625 0 
L 45.40625 8.203125 
Q 42.578125 3.328125 38.25 0.953125 
Q 33.9375 -1.421875 27.875 -1.421875 
Q 17.96875 -1.421875 11.734375 6.484375 
Q 5.515625 14.40625 5.515625 27.296875 
Q 5.515625 40.1875 11.734375 48.09375 
Q 17.96875 56 27.875 56 
Q 33.9375 56 38.25 53.625 
Q 42.578125 51.265625 45.40625 46.390625 
z
M 14.796875 27.296875 
Q 14.796875 17.390625 18.875 11.75 
Q 22.953125 6.109375 30.078125 6.109375 
Q 37.203125 6.109375 41.296875 11.75 
Q 45.40625 17.390625 45.40625 27.296875 
Q 45.40625 37.203125 41.296875 42.84375 
Q 37.203125 48.484375 30.078125 48.484375 
Q 22.953125 48.484375 18.875 42.84375 
Q 14.796875 37.203125 14.796875 27.296875 
z
" id="DejaVuSans-100"/>
    </defs>
    <g transform="translate(157.107031 19.918125)scale(0.12 -0.12)">
     <use xlink:href="#DejaVuSans-80"/>
     <use x="60.287109" xlink:href="#DejaVuSans-114"/>
     <use x="101.400391" xlink:href="#DejaVuSans-105"/>
     <use x="129.183594" xlink:href="#DejaVuSans-99"/>
     <use x="184.164062" xlink:href="#DejaVuSans-101"/>
     <use x="245.6875" xlink:href="#DejaVuSans-32"/>
     <use x="277.474609" xlink:href="#DejaVuSans-111"/>
     <use x="338.65625" xlink:href="#DejaVuSans-102"/>
     <use x="373.861328" xlink:href="#DejaVuSans-32"/>
     <use x="405.648438" xlink:href="#DejaVuSans-76"/>
     <use x="461.361328" xlink:href="#DejaVuSans-105"/>
     <use x="489.144531" xlink:href="#DejaVuSans-116"/>
     <use x="528.353516" xlink:href="#DejaVuSans-101"/>
     <use x="589.876953" xlink:href="#DejaVuSans-67"/>
     <use x="659.701172" xlink:href="#DejaVuSans-111"/>
     <use x="720.882812" xlink:href="#DejaVuSans-105"/>
     <use x="748.666016" xlink:href="#DejaVuSans-110"/>
     <use x="812.044922" xlink:href="#DejaVuSans-32"/>
     <use x="843.832031" xlink:href="#DejaVuSans-102"/>
     <use x="879.037109" xlink:href="#DejaVuSans-114"/>
     <use x="920.119141" xlink:href="#DejaVuSans-111"/>
     <use x="981.300781" xlink:href="#DejaVuSans-109"/>
     <use x="1078.712891" xlink:href="#DejaVuSans-32"/>
     <use x="1110.5" xlink:href="#DejaVuSans-108"/>
     <use x="1138.283203" xlink:href="#DejaVuSans-97"/>
     <use x="1199.5625" xlink:href="#DejaVuSans-115"/>
     <use x="1251.662109" xlink:href="#DejaVuSans-116"/>
     <use x="1290.871094" xlink:href="#DejaVuSans-32"/>
     <use x="1322.658203" xlink:href="#DejaVuSans-55"/>
     <use x="1386.28125" xlink:href="#DejaVuSans-50"/>
     <use x="1449.904297" xlink:href="#DejaVuSans-51"/>
     <use x="1513.527344" xlink:href="#DejaVuSans-32"/>
     <use x="1545.314453" xlink:href="#DejaVuSans-100"/>
     <use x="1608.791016" xlink:href="#DejaVuSans-97"/>
     <use x="1670.070312" xlink:href="#DejaVuSans-121"/>
     <use x="1729.25" xlink:href="#DejaVuSans-115"/>
    </g>
   </g>
   <g id="legend_1">
    <g id="patch_7">
     <path d="M 88.473438 38.918125 
L 92.473438 38.918125 
Q 94.473438 38.918125 94.473438 36.918125 
L 94.473438 32.918125 
Q 94.473438 30.918125 92.473438 30.918125 
L 88.473438 30.918125 
Q 86.473438 30.918125 86.473438 32.918125 
L 86.473438 36.918125 
Q 86.473438 38.918125 88.473438 38.918125 
z
" style="fill:#ffffff;opacity:0.8;stroke:#cccccc;stroke-linejoin:miter;"/>
    </g>
   </g>
  </g>
 </g>
 <defs>
  <clipPath id="p7fedddd718">
   <rect height="251.815372" width="365.026562" x="81.473438" y="25.918125"/>
  </clipPath>
 </defs>
</svg>
